%TF.GenerationSoftware,KiCad,Pcbnew,9.0.1*%
%TF.CreationDate,2026-01-13T22:06:20-06:00*%
%TF.ProjectId,ThermistorBreakoutPCB,54686572-6d69-4737-946f-72427265616b,rev?*%
%TF.SameCoordinates,Original*%
%TF.FileFunction,Legend,Top*%
%TF.FilePolarity,Positive*%
%FSLAX46Y46*%
G04 Gerber Fmt 4.6, Leading zero omitted, Abs format (unit mm)*
G04 Created by KiCad (PCBNEW 9.0.1) date 2026-01-13 22:06:20*
%MOMM*%
%LPD*%
G01*
G04 APERTURE LIST*
%ADD10C,0.100000*%
%ADD11C,0.300000*%
%ADD12C,0.150000*%
%ADD13C,0.120000*%
%ADD14C,0.508000*%
%ADD15C,0.152400*%
G04 APERTURE END LIST*
D10*
X125641245Y-57237472D02*
X126641245Y-56904139D01*
X126641245Y-56904139D02*
X125641245Y-56570806D01*
X126641245Y-56237472D02*
X125641245Y-56237472D01*
X125641245Y-56237472D02*
X125641245Y-55999377D01*
X125641245Y-55999377D02*
X125688864Y-55856520D01*
X125688864Y-55856520D02*
X125784102Y-55761282D01*
X125784102Y-55761282D02*
X125879340Y-55713663D01*
X125879340Y-55713663D02*
X126069816Y-55666044D01*
X126069816Y-55666044D02*
X126212673Y-55666044D01*
X126212673Y-55666044D02*
X126403149Y-55713663D01*
X126403149Y-55713663D02*
X126498387Y-55761282D01*
X126498387Y-55761282D02*
X126593626Y-55856520D01*
X126593626Y-55856520D02*
X126641245Y-55999377D01*
X126641245Y-55999377D02*
X126641245Y-56237472D01*
X126641245Y-55237472D02*
X125641245Y-55237472D01*
X125641245Y-55237472D02*
X125641245Y-54999377D01*
X125641245Y-54999377D02*
X125688864Y-54856520D01*
X125688864Y-54856520D02*
X125784102Y-54761282D01*
X125784102Y-54761282D02*
X125879340Y-54713663D01*
X125879340Y-54713663D02*
X126069816Y-54666044D01*
X126069816Y-54666044D02*
X126212673Y-54666044D01*
X126212673Y-54666044D02*
X126403149Y-54713663D01*
X126403149Y-54713663D02*
X126498387Y-54761282D01*
X126498387Y-54761282D02*
X126593626Y-54856520D01*
X126593626Y-54856520D02*
X126641245Y-54999377D01*
X126641245Y-54999377D02*
X126641245Y-55237472D01*
X122180418Y-57768867D02*
X122180418Y-57197439D01*
X123180418Y-57483153D02*
X122180418Y-57483153D01*
X122656608Y-56864105D02*
X122656608Y-56530772D01*
X123180418Y-56387915D02*
X123180418Y-56864105D01*
X123180418Y-56864105D02*
X122180418Y-56864105D01*
X122180418Y-56864105D02*
X122180418Y-56387915D01*
X123180418Y-55959343D02*
X122180418Y-55959343D01*
X122180418Y-55959343D02*
X122894703Y-55626010D01*
X122894703Y-55626010D02*
X122180418Y-55292677D01*
X122180418Y-55292677D02*
X123180418Y-55292677D01*
X123180418Y-54816486D02*
X122180418Y-54816486D01*
X122180418Y-54816486D02*
X122180418Y-54435534D01*
X122180418Y-54435534D02*
X122228037Y-54340296D01*
X122228037Y-54340296D02*
X122275656Y-54292677D01*
X122275656Y-54292677D02*
X122370894Y-54245058D01*
X122370894Y-54245058D02*
X122513751Y-54245058D01*
X122513751Y-54245058D02*
X122608989Y-54292677D01*
X122608989Y-54292677D02*
X122656608Y-54340296D01*
X122656608Y-54340296D02*
X122704227Y-54435534D01*
X122704227Y-54435534D02*
X122704227Y-54816486D01*
X118741372Y-56801780D02*
X118693753Y-56897018D01*
X118693753Y-56897018D02*
X118693753Y-57039875D01*
X118693753Y-57039875D02*
X118741372Y-57182732D01*
X118741372Y-57182732D02*
X118836610Y-57277970D01*
X118836610Y-57277970D02*
X118931848Y-57325589D01*
X118931848Y-57325589D02*
X119122324Y-57373208D01*
X119122324Y-57373208D02*
X119265181Y-57373208D01*
X119265181Y-57373208D02*
X119455657Y-57325589D01*
X119455657Y-57325589D02*
X119550895Y-57277970D01*
X119550895Y-57277970D02*
X119646134Y-57182732D01*
X119646134Y-57182732D02*
X119693753Y-57039875D01*
X119693753Y-57039875D02*
X119693753Y-56944637D01*
X119693753Y-56944637D02*
X119646134Y-56801780D01*
X119646134Y-56801780D02*
X119598514Y-56754161D01*
X119598514Y-56754161D02*
X119265181Y-56754161D01*
X119265181Y-56754161D02*
X119265181Y-56944637D01*
X119693753Y-56325589D02*
X118693753Y-56325589D01*
X118693753Y-56325589D02*
X119693753Y-55754161D01*
X119693753Y-55754161D02*
X118693753Y-55754161D01*
X119693753Y-55277970D02*
X118693753Y-55277970D01*
X118693753Y-55277970D02*
X118693753Y-55039875D01*
X118693753Y-55039875D02*
X118741372Y-54897018D01*
X118741372Y-54897018D02*
X118836610Y-54801780D01*
X118836610Y-54801780D02*
X118931848Y-54754161D01*
X118931848Y-54754161D02*
X119122324Y-54706542D01*
X119122324Y-54706542D02*
X119265181Y-54706542D01*
X119265181Y-54706542D02*
X119455657Y-54754161D01*
X119455657Y-54754161D02*
X119550895Y-54801780D01*
X119550895Y-54801780D02*
X119646134Y-54897018D01*
X119646134Y-54897018D02*
X119693753Y-55039875D01*
X119693753Y-55039875D02*
X119693753Y-55277970D01*
D11*
X117654510Y-70600828D02*
X117654510Y-69100828D01*
X117654510Y-69815114D02*
X118511653Y-69815114D01*
X118511653Y-70600828D02*
X118511653Y-69100828D01*
X119511654Y-69100828D02*
X119797368Y-69100828D01*
X119797368Y-69100828D02*
X119940225Y-69172257D01*
X119940225Y-69172257D02*
X120083082Y-69315114D01*
X120083082Y-69315114D02*
X120154511Y-69600828D01*
X120154511Y-69600828D02*
X120154511Y-70100828D01*
X120154511Y-70100828D02*
X120083082Y-70386542D01*
X120083082Y-70386542D02*
X119940225Y-70529400D01*
X119940225Y-70529400D02*
X119797368Y-70600828D01*
X119797368Y-70600828D02*
X119511654Y-70600828D01*
X119511654Y-70600828D02*
X119368797Y-70529400D01*
X119368797Y-70529400D02*
X119225939Y-70386542D01*
X119225939Y-70386542D02*
X119154511Y-70100828D01*
X119154511Y-70100828D02*
X119154511Y-69600828D01*
X119154511Y-69600828D02*
X119225939Y-69315114D01*
X119225939Y-69315114D02*
X119368797Y-69172257D01*
X119368797Y-69172257D02*
X119511654Y-69100828D01*
X120583083Y-69100828D02*
X121440226Y-69100828D01*
X121011654Y-70600828D02*
X121011654Y-69100828D01*
X123083082Y-70600828D02*
X123083082Y-69100828D01*
X123083082Y-69815114D02*
X123940225Y-69815114D01*
X123940225Y-70600828D02*
X123940225Y-69100828D01*
X124654511Y-69815114D02*
X125154511Y-69815114D01*
X125368797Y-70600828D02*
X124654511Y-70600828D01*
X124654511Y-70600828D02*
X124654511Y-69100828D01*
X124654511Y-69100828D02*
X125368797Y-69100828D01*
X126868797Y-70600828D02*
X126368797Y-69886542D01*
X126011654Y-70600828D02*
X126011654Y-69100828D01*
X126011654Y-69100828D02*
X126583083Y-69100828D01*
X126583083Y-69100828D02*
X126725940Y-69172257D01*
X126725940Y-69172257D02*
X126797369Y-69243685D01*
X126797369Y-69243685D02*
X126868797Y-69386542D01*
X126868797Y-69386542D02*
X126868797Y-69600828D01*
X126868797Y-69600828D02*
X126797369Y-69743685D01*
X126797369Y-69743685D02*
X126725940Y-69815114D01*
X126725940Y-69815114D02*
X126583083Y-69886542D01*
X126583083Y-69886542D02*
X126011654Y-69886542D01*
X127511654Y-69815114D02*
X128011654Y-69815114D01*
X128225940Y-70600828D02*
X127511654Y-70600828D01*
X127511654Y-70600828D02*
X127511654Y-69100828D01*
X127511654Y-69100828D02*
X128225940Y-69100828D01*
D12*
X124014286Y-73584819D02*
X124585714Y-73584819D01*
X124300000Y-74584819D02*
X124300000Y-73584819D01*
X124919048Y-74584819D02*
X124919048Y-73584819D01*
X124919048Y-74061009D02*
X125490476Y-74061009D01*
X125490476Y-74584819D02*
X125490476Y-73584819D01*
X126490476Y-74584819D02*
X125919048Y-74584819D01*
X126204762Y-74584819D02*
X126204762Y-73584819D01*
X126204762Y-73584819D02*
X126109524Y-73727676D01*
X126109524Y-73727676D02*
X126014286Y-73822914D01*
X126014286Y-73822914D02*
X125919048Y-73870533D01*
X120033333Y-74584819D02*
X119700000Y-74108628D01*
X119461905Y-74584819D02*
X119461905Y-73584819D01*
X119461905Y-73584819D02*
X119842857Y-73584819D01*
X119842857Y-73584819D02*
X119938095Y-73632438D01*
X119938095Y-73632438D02*
X119985714Y-73680057D01*
X119985714Y-73680057D02*
X120033333Y-73775295D01*
X120033333Y-73775295D02*
X120033333Y-73918152D01*
X120033333Y-73918152D02*
X119985714Y-74013390D01*
X119985714Y-74013390D02*
X119938095Y-74061009D01*
X119938095Y-74061009D02*
X119842857Y-74108628D01*
X119842857Y-74108628D02*
X119461905Y-74108628D01*
X120985714Y-74584819D02*
X120414286Y-74584819D01*
X120700000Y-74584819D02*
X120700000Y-73584819D01*
X120700000Y-73584819D02*
X120604762Y-73727676D01*
X120604762Y-73727676D02*
X120509524Y-73822914D01*
X120509524Y-73822914D02*
X120414286Y-73870533D01*
X122466666Y-47854819D02*
X122466666Y-48569104D01*
X122466666Y-48569104D02*
X122419047Y-48711961D01*
X122419047Y-48711961D02*
X122323809Y-48807200D01*
X122323809Y-48807200D02*
X122180952Y-48854819D01*
X122180952Y-48854819D02*
X122085714Y-48854819D01*
X123466666Y-48854819D02*
X122895238Y-48854819D01*
X123180952Y-48854819D02*
X123180952Y-47854819D01*
X123180952Y-47854819D02*
X123085714Y-47997676D01*
X123085714Y-47997676D02*
X122990476Y-48092914D01*
X122990476Y-48092914D02*
X122895238Y-48140533D01*
D13*
%TO.C,TP1*%
X120500000Y-62033380D02*
X118100000Y-62033380D01*
X120500000Y-59633380D02*
X120500000Y-62033380D01*
X118100000Y-62033380D02*
X118100000Y-59633380D01*
X118100000Y-59633380D02*
X120500000Y-59633380D01*
%TO.C,TP3*%
X123926625Y-62042698D02*
X121526625Y-62042698D01*
X123926625Y-59642698D02*
X123926625Y-62042698D01*
X121526625Y-62042698D02*
X121526625Y-59642698D01*
X121526625Y-59642698D02*
X123926625Y-59642698D01*
%TO.C,TP2*%
X127400000Y-62042698D02*
X125000000Y-62042698D01*
X127400000Y-59642698D02*
X127400000Y-62042698D01*
X125000000Y-62042698D02*
X125000000Y-59642698D01*
X125000000Y-59642698D02*
X127400000Y-59642698D01*
%TO.C,TH1*%
X125554724Y-73222500D02*
X125045276Y-73222500D01*
X125554724Y-72177500D02*
X125045276Y-72177500D01*
%TO.C,R1*%
X120454724Y-73222500D02*
X119945276Y-73222500D01*
X120454724Y-72177500D02*
X119945276Y-72177500D01*
D14*
%TO.C,J1*%
X117059600Y-48400000D02*
G75*
G02*
X116297600Y-48400000I-381000J0D01*
G01*
X116297600Y-48400000D02*
G75*
G02*
X117059600Y-48400000I381000J0D01*
G01*
D15*
X118456600Y-50266900D02*
X120069500Y-50266900D01*
X120069500Y-50266900D02*
X120069500Y-53137100D01*
X120069500Y-53137100D02*
X125530500Y-53137100D01*
X125530500Y-53137100D02*
X125530500Y-50266900D01*
X125530500Y-50266900D02*
X127143400Y-50266900D01*
X127143400Y-50266900D02*
X127143400Y-46533100D01*
X127143400Y-46533100D02*
X118456600Y-46533100D01*
X118456600Y-46533100D02*
X118456600Y-50266900D01*
%TD*%
M02*
