M48
; DRILL file {KiCad 9.0.0} date 2026-01-11T18:51:07-0600
; FORMAT={-:-/ absolute / inch / decimal}
; #@! TF.CreationDate,2026-01-11T18:51:07-06:00
; #@! TF.GenerationSoftware,Kicad,Pcbnew,9.0.0
; #@! TF.FileFunction,Plated,1,4,PTH
FMAT,2
INCH
; #@! TA.AperFunction,Plated,PTH,ViaDrill
T1C0.0118
; #@! TA.AperFunction,Plated,PTH,ComponentDrill
T2C0.0400
; #@! TA.AperFunction,Plated,PTH,ComponentDrill
T3C0.0490
; #@! TA.AperFunction,Plated,PTH,ComponentDrill
T4C0.1260
%
G90
G05
T1
X1.2382Y-1.8504
X1.3091Y-2.0433
X1.3937Y-1.8898
X1.4278Y-1.3643
X1.4291Y-1.3268
X1.4311Y-1.4035
X1.4409Y-1.6378
X1.4685Y-1.6654
X1.4974Y-1.2983
X1.5236Y-1.5551
X1.5512Y-1.5827
X1.5536Y-1.9158
X1.5591Y-2.0591
X1.5689Y-2.3091
X1.5943Y-2.0591
X1.5943Y-2.2883
X1.6063Y-1.4764
X1.6063Y-1.5039
X1.6339Y-1.4488
X1.6339Y-1.4764
X1.6339Y-1.5039
X1.6693Y-1.7913
X1.6693Y-1.8189
X1.6693Y-1.8465
X1.6772Y-2.4016
X1.6772Y-2.4291
X1.6772Y-2.4567
X1.7008Y-1.7913
X1.7008Y-1.8189
X1.7008Y-1.8465
X1.7047Y-2.4016
X1.7047Y-2.4291
X1.7047Y-2.4567
X1.7245Y-1.4075
X1.7283Y-1.8902
X1.7323Y-1.7913
X1.7323Y-1.8189
X1.7323Y-1.8465
X1.7323Y-2.4016
X1.7323Y-2.4291
X1.7323Y-2.4567
X1.7598Y-2.5669
X1.7598Y-2.5945
X1.7598Y-2.622
X1.7835Y-2.0197
X1.7835Y-2.0472
X1.7874Y-2.5669
X1.7874Y-2.5945
X1.7874Y-2.622
X1.8012Y-1.4204
X1.811Y-1.9921
X1.811Y-2.0197
X1.811Y-2.0472
X1.815Y-2.5669
X1.815Y-2.5945
X1.815Y-2.622
X1.8228Y-2.3268
X1.8386Y-1.9921
X1.8386Y-2.0197
X1.8386Y-2.0472
X1.8425Y-2.5669
X1.8425Y-2.5945
X1.8425Y-2.622
X1.8701Y-1.3573
X1.8701Y-2.5669
X1.8701Y-2.5945
X1.8701Y-2.622
X1.8799Y-1.4204
X1.8888Y-2.3268
X1.8927Y-1.5827
X1.8976Y-2.5669
X1.8976Y-2.5945
X1.8976Y-2.622
X1.9252Y-2.7323
X1.9252Y-2.7598
X1.9252Y-2.7874
X1.9331Y-2.2677
X1.9525Y-1.5512
X1.9528Y-2.7323
X1.9528Y-2.7598
X1.9528Y-2.7874
X1.9803Y-2.7323
X1.9803Y-2.7598
X1.9803Y-2.7874
X1.9921Y-2.1831
X1.9921Y-2.3518
X2.0079Y-2.7323
X2.0079Y-2.7598
X2.0079Y-2.7874
X2.0197Y-2.0825
X2.0354Y-2.7323
X2.0354Y-2.7598
X2.0354Y-2.7874
X2.0551Y-1.4085
X2.063Y-2.7323
X2.063Y-2.7598
X2.063Y-2.7874
X2.064Y-2.5226
X2.0906Y-2.8976
X2.0906Y-2.9252
X2.0906Y-2.9528
X2.1043Y-2.4764
X2.1181Y-2.8976
X2.1181Y-2.9252
X2.1181Y-2.9528
X2.1319Y-1.4124
X2.1381Y-2.1932
X2.1457Y-2.8976
X2.1457Y-2.9252
X2.1457Y-2.9528
X2.1732Y-2.8976
X2.1732Y-2.9252
X2.1732Y-2.9528
X2.1821Y-1.4124
X2.2008Y-2.8976
X2.2008Y-2.9252
X2.2008Y-2.9528
X2.2219Y-2.0669
X2.2283Y-2.8976
X2.2283Y-2.9252
X2.2283Y-2.9528
X2.25Y-1.8091
X2.25Y-1.8366
X2.25Y-1.8642
X2.2559Y-3.063
X2.2559Y-3.0906
X2.2559Y-3.1181
X2.2598Y-1.4094
X2.2776Y-1.8091
X2.2776Y-1.8366
X2.2776Y-1.8642
X2.2835Y-3.063
X2.2835Y-3.0906
X2.2835Y-3.1181
X2.2913Y-1.5512
X2.3051Y-1.8091
X2.3051Y-1.8366
X2.3051Y-1.8642
X2.311Y-3.063
X2.311Y-3.0906
X2.311Y-3.1181
X2.3622Y-2.4724
X2.3701Y-0.8898
X2.376Y-2.2343
X2.376Y-2.2618
X2.3762Y-2.0372
X2.3825Y-1.4085
X2.4035Y-2.2343
X2.4035Y-2.2618
X2.4164Y-2.4292
X2.4232Y-2.0059
X2.4311Y-2.2343
X2.4311Y-2.2618
X2.4508Y-2.0059
X2.4528Y-2.1614
X2.4528Y-2.4724
X2.4587Y-1.415
X2.4783Y-2.0059
X2.4803Y-2.4724
X2.4882Y-2.4301
X2.4961Y-1.9843
X2.5061Y-2.6299
X2.5062Y-0.77
X2.5079Y-2.4724
X2.5109Y-2.2174
X2.5135Y-0.9392
X2.5157Y-1.9646
X2.5197Y-1.415
X2.562Y-1.4124
X2.5679Y-2.7225
X2.5768Y-0.8312
X2.5866Y-2.6299
X2.5896Y-1.0188
X2.6043Y-1.7638
X2.6181Y-1.5512
X2.6351Y-2.2414
X2.6378Y-1.9173
X2.6526Y-2.7225
X2.6535Y-2.5669
X2.6791Y-1.7638
X2.7031Y-0.77
X2.7104Y-0.9392
X2.719Y-1.4085
X2.7205Y-2.4409
X2.7205Y-2.4685
X2.7205Y-2.4961
X2.7283Y-2.4094
X2.7402Y-0.8661
X2.748Y-2.4409
X2.748Y-2.4685
X2.748Y-2.4961
X2.7612Y-1.0807
X2.7756Y-2.4409
X2.7756Y-2.4685
X2.7756Y-2.4961
X2.7878Y-1.815
X2.7878Y-1.9173
X2.7972Y-1.4207
X2.7992Y-1.9961
X2.7992Y-2.0236
X2.7992Y-2.0512
X2.7992Y-2.0787
X2.7992Y-2.1063
X2.7992Y-2.1339
X2.7992Y-2.1614
X2.7992Y-2.189
X2.8031Y-2.4409
X2.8031Y-2.4685
X2.8031Y-2.4961
X2.8253Y-2.6485
X2.8268Y-1.9961
X2.8268Y-2.0236
X2.8268Y-2.0512
X2.8268Y-2.0787
X2.8268Y-2.1063
X2.8268Y-2.1339
X2.8268Y-2.1614
X2.8268Y-2.189
X2.8268Y-2.2165
X2.8307Y-2.4409
X2.8307Y-2.4685
X2.8307Y-2.4961
X2.8346Y-0.9665
X2.8543Y-1.9961
X2.8543Y-2.0236
X2.8543Y-2.0512
X2.8543Y-2.0787
X2.8543Y-2.1063
X2.8543Y-2.1339
X2.8543Y-2.1614
X2.8543Y-2.189
X2.8543Y-2.2165
X2.8583Y-2.4409
X2.8583Y-2.4685
X2.8583Y-2.4961
X2.8642Y-1.4272
X2.8858Y-2.4409
X2.8858Y-2.4685
X2.8858Y-2.4961
X2.8996Y-1.4114
X2.9019Y-0.768
X2.9072Y-0.9392
X2.9073Y-1.9033
X2.9134Y-2.4409
X2.9134Y-2.4685
X2.9134Y-2.4961
X2.9409Y-2.4409
X2.9409Y-2.4685
X2.9409Y-2.4961
X2.9551Y-1.5531
X3.0276Y-2.0472
X3.0374Y-1.0335
X3.0469Y-0.8861
X3.0616Y-1.4085
X3.0968Y-0.77
X3.1053Y-0.938
X3.1398Y-1.4182
X3.2087Y-1.4272
X3.2953Y-1.5512
X3.378Y-2.0945
X3.4134Y-2.0236
T2
X2.4669Y-3.2378
X2.4669Y-3.3378
X2.4669Y-3.4378
X2.4669Y-3.5378
X2.4669Y-3.6378
X2.5669Y-3.2378
X2.5669Y-3.3378
X2.5669Y-3.4378
X2.5669Y-3.5378
X2.5669Y-3.6378
T3
X1.0879Y-1.0948
X1.1086Y-1.2881
X1.1086Y-1.3865
X1.1086Y-1.4849
X1.1086Y-1.5833
X1.1864Y-1.0948
X1.207Y-1.2881
X1.207Y-1.3865
X1.207Y-1.4849
X1.207Y-1.5833
X1.2848Y-1.0948
X1.3832Y-1.0948
X1.4816Y-1.0948
X1.6549Y-1.0948
X1.7533Y-1.0948
X1.8517Y-1.0948
X1.9501Y-1.0948
X2.0486Y-1.0948
X3.519Y-1.6854
X3.6175Y-1.6854
X3.6811Y-1.795
X3.7159Y-1.6854
X3.7795Y-1.795
X3.8143Y-1.6854
X3.878Y-1.795
X3.9127Y-1.6854
X3.9764Y-1.795
X4.0112Y-1.6854
X4.0748Y-1.795
X4.1732Y-1.795
X4.1824Y-1.685
X4.2717Y-1.795
X4.2808Y-1.685
X4.3793Y-1.685
T4
X0.8305Y-0.815
X0.8317Y-1.9008
X0.8321Y-3.7303
X2.0423Y-1.9008
X2.0423Y-3.7303
X3.2953Y-2.6142
X3.3071Y-0.815
M30
