%TF.GenerationSoftware,KiCad,Pcbnew,9.0.0*%
%TF.CreationDate,2026-01-11T18:51:07-06:00*%
%TF.ProjectId,BPS-Voltage_Temp_Board,4250532d-566f-46c7-9461-67655f54656d,rev?*%
%TF.SameCoordinates,Original*%
%TF.FileFunction,Soldermask,Bot*%
%TF.FilePolarity,Negative*%
%FSLAX46Y46*%
G04 Gerber Fmt 4.6, Leading zero omitted, Abs format (unit mm)*
G04 Created by KiCad (PCBNEW 9.0.0) date 2026-01-11 18:51:07*
%MOMM*%
%LPD*%
G01*
G04 APERTURE LIST*
%ADD10C,1.524000*%
%ADD11C,3.600000*%
%ADD12C,6.400000*%
%ADD13C,1.752600*%
G04 APERTURE END LIST*
D10*
%TO.C,J5*%
X62660000Y-92400000D03*
X65200000Y-92400000D03*
X62660000Y-89860000D03*
X65200000Y-89860000D03*
X62660000Y-87320000D03*
X65200000Y-87320000D03*
X62660000Y-84780000D03*
X65200000Y-84780000D03*
X62660000Y-82240000D03*
X65200000Y-82240000D03*
%TD*%
D11*
%TO.C,MH4*%
X21095000Y-20700000D03*
D12*
X21095000Y-20700000D03*
%TD*%
D13*
%TO.C,J11*%
X108500000Y-45591895D03*
X106000000Y-45591895D03*
X103500000Y-45591895D03*
X101000000Y-45591895D03*
X98500000Y-45591895D03*
X96000000Y-45591895D03*
X93500000Y-45591895D03*
%TD*%
D11*
%TO.C,J10*%
X21125000Y-48280000D03*
D12*
X21125000Y-48280000D03*
D11*
X51875000Y-48280000D03*
D12*
X51875000Y-48280000D03*
D11*
X51875000Y-94750000D03*
D12*
X51875000Y-94750000D03*
D11*
X21135000Y-94750000D03*
D12*
X21135000Y-94750000D03*
%TD*%
D13*
%TO.C,J8*%
X89383400Y-42808106D03*
X91883400Y-42808106D03*
X94383400Y-42808106D03*
X96883400Y-42808106D03*
X99383400Y-42808106D03*
X101883400Y-42808106D03*
%TD*%
%TO.C,J3*%
X27633400Y-27808106D03*
X30133400Y-27808106D03*
X32633400Y-27808106D03*
X35133400Y-27808106D03*
X37633400Y-27808106D03*
%TD*%
%TO.C,J1*%
X30658098Y-40216600D03*
X30658098Y-37716600D03*
X30658098Y-35216600D03*
X30658098Y-32716600D03*
X28158098Y-40216600D03*
X28158098Y-37716600D03*
X28158098Y-35216600D03*
X28158098Y-32716600D03*
%TD*%
%TO.C,J9*%
X106233400Y-42800000D03*
X108733400Y-42800000D03*
X111233400Y-42800000D03*
%TD*%
%TO.C,J4*%
X42033400Y-27808106D03*
X44533400Y-27808106D03*
X47033400Y-27808106D03*
X49533400Y-27808106D03*
X52033400Y-27808106D03*
%TD*%
D11*
%TO.C,MH1*%
X84000000Y-20700000D03*
D12*
X84000000Y-20700000D03*
%TD*%
D11*
%TO.C,MH3*%
X83700000Y-66400000D03*
D12*
X83700000Y-66400000D03*
%TD*%
M02*
