%TF.GenerationSoftware,KiCad,Pcbnew,9.0.1*%
%TF.CreationDate,2025-10-18T17:41:51-05:00*%
%TF.ProjectId,BPS-Voltage_Temp_Board,4250532d-566f-46c7-9461-67655f54656d,rev?*%
%TF.SameCoordinates,Original*%
%TF.FileFunction,Paste,Top*%
%TF.FilePolarity,Positive*%
%FSLAX46Y46*%
G04 Gerber Fmt 4.6, Leading zero omitted, Abs format (unit mm)*
G04 Created by KiCad (PCBNEW 9.0.1) date 2025-10-18 17:41:51*
%MOMM*%
%LPD*%
G01*
G04 APERTURE LIST*
G04 Aperture macros list*
%AMRoundRect*
0 Rectangle with rounded corners*
0 $1 Rounding radius*
0 $2 $3 $4 $5 $6 $7 $8 $9 X,Y pos of 4 corners*
0 Add a 4 corners polygon primitive as box body*
4,1,4,$2,$3,$4,$5,$6,$7,$8,$9,$2,$3,0*
0 Add four circle primitives for the rounded corners*
1,1,$1+$1,$2,$3*
1,1,$1+$1,$4,$5*
1,1,$1+$1,$6,$7*
1,1,$1+$1,$8,$9*
0 Add four rect primitives between the rounded corners*
20,1,$1+$1,$2,$3,$4,$5,0*
20,1,$1+$1,$4,$5,$6,$7,0*
20,1,$1+$1,$6,$7,$8,$9,0*
20,1,$1+$1,$8,$9,$2,$3,0*%
G04 Aperture macros list end*
%ADD10RoundRect,0.237500X0.300000X0.237500X-0.300000X0.237500X-0.300000X-0.237500X0.300000X-0.237500X0*%
%ADD11RoundRect,0.237500X-0.237500X0.250000X-0.237500X-0.250000X0.237500X-0.250000X0.237500X0.250000X0*%
%ADD12RoundRect,0.237500X0.237500X-0.300000X0.237500X0.300000X-0.237500X0.300000X-0.237500X-0.300000X0*%
%ADD13R,0.700000X0.700000*%
%ADD14R,0.940000X1.010000*%
%ADD15RoundRect,0.237500X0.250000X0.237500X-0.250000X0.237500X-0.250000X-0.237500X0.250000X-0.237500X0*%
%ADD16RoundRect,0.237500X0.008839X0.344715X-0.344715X-0.008839X-0.008839X-0.344715X0.344715X0.008839X0*%
%ADD17RoundRect,0.237500X0.237500X-0.250000X0.237500X0.250000X-0.237500X0.250000X-0.237500X-0.250000X0*%
%ADD18RoundRect,0.250000X-0.475000X0.337500X-0.475000X-0.337500X0.475000X-0.337500X0.475000X0.337500X0*%
%ADD19R,1.528000X0.650000*%
%ADD20RoundRect,0.237500X-0.250000X-0.237500X0.250000X-0.237500X0.250000X0.237500X-0.250000X0.237500X0*%
%ADD21R,0.550000X1.800000*%
%ADD22RoundRect,0.150000X-0.150000X0.825000X-0.150000X-0.825000X0.150000X-0.825000X0.150000X0.825000X0*%
%ADD23RoundRect,0.237500X-0.237500X0.300000X-0.237500X-0.300000X0.237500X-0.300000X0.237500X0.300000X0*%
%ADD24RoundRect,0.250000X0.475000X-0.250000X0.475000X0.250000X-0.475000X0.250000X-0.475000X-0.250000X0*%
%ADD25RoundRect,0.237500X0.287500X0.237500X-0.287500X0.237500X-0.287500X-0.237500X0.287500X-0.237500X0*%
%ADD26RoundRect,0.250000X-0.262500X-0.450000X0.262500X-0.450000X0.262500X0.450000X-0.262500X0.450000X0*%
%ADD27RoundRect,0.243750X-0.456250X0.243750X-0.456250X-0.243750X0.456250X-0.243750X0.456250X0.243750X0*%
%ADD28RoundRect,0.150000X0.662500X0.150000X-0.662500X0.150000X-0.662500X-0.150000X0.662500X-0.150000X0*%
%ADD29RoundRect,0.237500X-0.300000X-0.237500X0.300000X-0.237500X0.300000X0.237500X-0.300000X0.237500X0*%
%ADD30RoundRect,0.237500X-0.287500X-0.237500X0.287500X-0.237500X0.287500X0.237500X-0.287500X0.237500X0*%
%ADD31R,0.750000X1.000000*%
%ADD32RoundRect,0.150000X-0.662500X-0.150000X0.662500X-0.150000X0.662500X0.150000X-0.662500X0.150000X0*%
%ADD33R,1.475000X0.450000*%
G04 APERTURE END LIST*
D10*
%TO.C,C6*%
X75060000Y-40175000D03*
X73335000Y-40175000D03*
%TD*%
D11*
%TO.C,R51*%
X77765000Y-36575000D03*
X77765000Y-38400000D03*
%TD*%
D12*
%TO.C,C10*%
X64600000Y-24612500D03*
X64600000Y-22887500D03*
%TD*%
D13*
%TO.C,D3*%
X66185000Y-23750000D03*
X66185000Y-24850000D03*
X68015000Y-24850000D03*
X68015000Y-23750000D03*
%TD*%
D14*
%TO.C,F11*%
X89980000Y-48400000D03*
X88400000Y-48400000D03*
%TD*%
D15*
%TO.C,R42*%
X58495900Y-30925000D03*
X56670900Y-30925000D03*
%TD*%
D16*
%TO.C,3.3-VDDA*%
X43745235Y-50254765D03*
X42454765Y-51545235D03*
%TD*%
D13*
%TO.C,D8*%
X66185000Y-20100000D03*
X66185000Y-21200000D03*
X68015000Y-21200000D03*
X68015000Y-20100000D03*
%TD*%
D17*
%TO.C,R26*%
X80512500Y-51912500D03*
X80512500Y-50087500D03*
%TD*%
D18*
%TO.C,C32*%
X77765000Y-32612500D03*
X77765000Y-34687500D03*
%TD*%
D14*
%TO.C,F10*%
X89980000Y-50100000D03*
X88400000Y-50100000D03*
%TD*%
D15*
%TO.C,R43*%
X63312500Y-30900000D03*
X61487500Y-30900000D03*
%TD*%
D11*
%TO.C,R12*%
X74187500Y-57800000D03*
X74187500Y-59625000D03*
%TD*%
D14*
%TO.C,F7*%
X89990000Y-55200000D03*
X88410000Y-55200000D03*
%TD*%
D10*
%TO.C,C38*%
X83875000Y-57100000D03*
X82150000Y-57100000D03*
%TD*%
D11*
%TO.C,R23*%
X32700000Y-37387500D03*
X32700000Y-39212500D03*
%TD*%
D19*
%TO.C,IC1*%
X52689000Y-52895000D03*
X52689000Y-54165000D03*
X52689000Y-55435000D03*
X52689000Y-56705000D03*
X58111000Y-56705000D03*
X58111000Y-55435000D03*
X58111000Y-54165000D03*
X58111000Y-52895000D03*
%TD*%
D18*
%TO.C,C18*%
X65900000Y-57962500D03*
X65900000Y-60037500D03*
%TD*%
D13*
%TO.C,D4*%
X71185000Y-23750000D03*
X71185000Y-24850000D03*
X73015000Y-24850000D03*
X73015000Y-23750000D03*
%TD*%
D10*
%TO.C,C42*%
X58162500Y-51400000D03*
X56437500Y-51400000D03*
%TD*%
D13*
%TO.C,D5*%
X76185000Y-23750000D03*
X76185000Y-24850000D03*
X78015000Y-24850000D03*
X78015000Y-23750000D03*
%TD*%
D10*
%TO.C,C5*%
X49800000Y-40200000D03*
X48075000Y-40200000D03*
%TD*%
D20*
%TO.C,R54*%
X82100000Y-49100000D03*
X83925000Y-49100000D03*
%TD*%
D12*
%TO.C,C12*%
X74600000Y-24612500D03*
X74600000Y-22887500D03*
%TD*%
D17*
%TO.C,R60*%
X72700000Y-59612500D03*
X72700000Y-57787500D03*
%TD*%
D21*
%TO.C,J10*%
X41295000Y-46130000D03*
X41295000Y-50430000D03*
X40495000Y-46130000D03*
X40495000Y-50430000D03*
X39695000Y-46130000D03*
X39695000Y-50430000D03*
X38895000Y-46130000D03*
X38895000Y-50430000D03*
X38095000Y-46130000D03*
X38095000Y-50430000D03*
X37295003Y-46130000D03*
X37295003Y-50430000D03*
X36495000Y-46130000D03*
X36495000Y-50430000D03*
X35695000Y-46130000D03*
X35695000Y-50430000D03*
X34895000Y-46130000D03*
X34895000Y-50430000D03*
X34095000Y-46130000D03*
X34095000Y-50430000D03*
X33295000Y-46130000D03*
X33295000Y-50430000D03*
X32495000Y-46130000D03*
X32495000Y-50430000D03*
%TD*%
D18*
%TO.C,C3*%
X43802500Y-32662500D03*
X43802500Y-34737500D03*
%TD*%
%TO.C,C27*%
X71312500Y-40137500D03*
X71312500Y-42212500D03*
%TD*%
D22*
%TO.C,U13*%
X57988400Y-32950000D03*
X56718400Y-32950000D03*
X55448400Y-32950000D03*
X54178400Y-32950000D03*
X54178400Y-37900000D03*
X55448400Y-37900000D03*
X56718400Y-37900000D03*
X57988400Y-37900000D03*
%TD*%
D15*
%TO.C,R44*%
X54995900Y-30925000D03*
X53170900Y-30925000D03*
%TD*%
D18*
%TO.C,C26*%
X69062500Y-32637500D03*
X69062500Y-34712500D03*
%TD*%
D11*
%TO.C,R8*%
X71200000Y-57787500D03*
X71200000Y-59612500D03*
%TD*%
D20*
%TO.C,R59*%
X60087500Y-58600000D03*
X61912500Y-58600000D03*
%TD*%
%TO.C,R56*%
X82100000Y-55500000D03*
X83925000Y-55500000D03*
%TD*%
D23*
%TO.C,C16*%
X69600000Y-19387500D03*
X69600000Y-21112500D03*
%TD*%
D20*
%TO.C,R18*%
X64775000Y-28374000D03*
X66600000Y-28374000D03*
%TD*%
%TO.C,R31*%
X70887500Y-67900000D03*
X72712500Y-67900000D03*
%TD*%
D10*
%TO.C,C39*%
X83875000Y-60300000D03*
X82150000Y-60300000D03*
%TD*%
D24*
%TO.C,C2*%
X67900000Y-59750000D03*
X67900000Y-57850000D03*
%TD*%
D20*
%TO.C,R55*%
X82100000Y-52300000D03*
X83925000Y-52300000D03*
%TD*%
D25*
%TO.C,D14*%
X70134250Y-28374000D03*
X68384250Y-28374000D03*
%TD*%
D15*
%TO.C,R49*%
X84062500Y-30900000D03*
X82237500Y-30900000D03*
%TD*%
D11*
%TO.C,R48*%
X52198400Y-40350000D03*
X52198400Y-42175000D03*
%TD*%
D13*
%TO.C,D2*%
X61185000Y-23750000D03*
X61185000Y-24850000D03*
X63015000Y-24850000D03*
X63015000Y-23750000D03*
%TD*%
D10*
%TO.C,C8*%
X58195900Y-40175000D03*
X56470900Y-40175000D03*
%TD*%
D11*
%TO.C,R15*%
X39300000Y-53987500D03*
X39300000Y-55812500D03*
%TD*%
D20*
%TO.C,R13*%
X47975000Y-58300000D03*
X49800000Y-58300000D03*
%TD*%
D22*
%TO.C,U14*%
X83555000Y-32925000D03*
X82285000Y-32925000D03*
X81015000Y-32925000D03*
X79745000Y-32925000D03*
X79745000Y-37875000D03*
X81015000Y-37875000D03*
X82285000Y-37875000D03*
X83555000Y-37875000D03*
%TD*%
D10*
%TO.C,C34*%
X90062500Y-45000000D03*
X88337500Y-45000000D03*
%TD*%
D11*
%TO.C,R40*%
X69062500Y-40350000D03*
X69062500Y-42175000D03*
%TD*%
D12*
%TO.C,C11*%
X69600000Y-24612500D03*
X69600000Y-22887500D03*
%TD*%
D15*
%TO.C,R41*%
X66812500Y-30900000D03*
X64987500Y-30900000D03*
%TD*%
D20*
%TO.C,R9*%
X60887500Y-54100000D03*
X62712500Y-54100000D03*
%TD*%
D15*
%TO.C,R1*%
X50100000Y-30950000D03*
X48275000Y-30950000D03*
%TD*%
D11*
%TO.C,R52*%
X77765000Y-40325000D03*
X77765000Y-42150000D03*
%TD*%
D18*
%TO.C,C28*%
X60515000Y-32612500D03*
X60515000Y-34687500D03*
%TD*%
D26*
%TO.C,R5*%
X47990000Y-61700000D03*
X49815000Y-61700000D03*
%TD*%
D12*
%TO.C,C14*%
X79600000Y-24550000D03*
X79600000Y-22825000D03*
%TD*%
D14*
%TO.C,F12*%
X89980000Y-46700000D03*
X88400000Y-46700000D03*
%TD*%
D10*
%TO.C,C24*%
X49750000Y-59935000D03*
X48025000Y-59935000D03*
%TD*%
D15*
%TO.C,R50*%
X80562500Y-30900000D03*
X78737500Y-30900000D03*
%TD*%
D11*
%TO.C,R35*%
X43802500Y-36625000D03*
X43802500Y-38450000D03*
%TD*%
D27*
%TO.C,D1*%
X76000000Y-57862500D03*
X76000000Y-59737500D03*
%TD*%
D11*
%TO.C,R46*%
X52198400Y-36600000D03*
X52198400Y-38425000D03*
%TD*%
D17*
%TO.C,R28*%
X80512500Y-62112500D03*
X80512500Y-60287500D03*
%TD*%
D11*
%TO.C,R14*%
X40800000Y-53987500D03*
X40800000Y-55812500D03*
%TD*%
D28*
%TO.C,U1*%
X58087500Y-59735000D03*
X58087500Y-58465000D03*
X51712500Y-58465000D03*
X51712500Y-59735000D03*
%TD*%
D20*
%TO.C,R53*%
X80600000Y-45000000D03*
X82425000Y-45000000D03*
%TD*%
D18*
%TO.C,C29*%
X52198400Y-32637500D03*
X52198400Y-34712500D03*
%TD*%
D15*
%TO.C,R2*%
X74812500Y-49100000D03*
X72987500Y-49100000D03*
%TD*%
D18*
%TO.C,C25*%
X46052500Y-40162500D03*
X46052500Y-42237500D03*
%TD*%
D11*
%TO.C,R36*%
X43802500Y-40375000D03*
X43802500Y-42200000D03*
%TD*%
D20*
%TO.C,R19*%
X64790750Y-26560000D03*
X66615750Y-26560000D03*
%TD*%
%TO.C,R24*%
X32987500Y-34000000D03*
X34812500Y-34000000D03*
%TD*%
D17*
%TO.C,R25*%
X80512500Y-48412500D03*
X80512500Y-46587500D03*
%TD*%
D23*
%TO.C,C40*%
X69700000Y-57837500D03*
X69700000Y-59562500D03*
%TD*%
D10*
%TO.C,C36*%
X83875000Y-50700000D03*
X82150000Y-50700000D03*
%TD*%
D20*
%TO.C,R58*%
X82100000Y-61900000D03*
X83925000Y-61900000D03*
%TD*%
D17*
%TO.C,R3*%
X66100000Y-63912500D03*
X66100000Y-62087500D03*
%TD*%
D23*
%TO.C,C17*%
X64600000Y-19387500D03*
X64600000Y-21112500D03*
%TD*%
D13*
%TO.C,D6*%
X76185000Y-20100000D03*
X76185000Y-21200000D03*
X78015000Y-21200000D03*
X78015000Y-20100000D03*
%TD*%
D10*
%TO.C,C41*%
X66362500Y-55600000D03*
X64637500Y-55600000D03*
%TD*%
D29*
%TO.C,C4*%
X60137500Y-60100000D03*
X61862500Y-60100000D03*
%TD*%
D11*
%TO.C,R45*%
X60515000Y-36575000D03*
X60515000Y-38400000D03*
%TD*%
D20*
%TO.C,R10*%
X60087500Y-55600000D03*
X61912500Y-55600000D03*
%TD*%
D17*
%TO.C,R30*%
X80512500Y-55312500D03*
X80512500Y-53487500D03*
%TD*%
D11*
%TO.C,R39*%
X69062500Y-36600000D03*
X69062500Y-38425000D03*
%TD*%
D20*
%TO.C,R57*%
X82100000Y-58700000D03*
X83925000Y-58700000D03*
%TD*%
D11*
%TO.C,R4*%
X67700000Y-62100000D03*
X67700000Y-63925000D03*
%TD*%
D20*
%TO.C,R11*%
X64587500Y-54100000D03*
X66412500Y-54100000D03*
%TD*%
D22*
%TO.C,U4*%
X49592500Y-32975000D03*
X48322500Y-32975000D03*
X47052500Y-32975000D03*
X45782500Y-32975000D03*
X45782500Y-37925000D03*
X47052500Y-37925000D03*
X48322500Y-37925000D03*
X49592500Y-37925000D03*
%TD*%
D15*
%TO.C,R37*%
X75360000Y-30925000D03*
X73535000Y-30925000D03*
%TD*%
D30*
%TO.C,D10*%
X70925000Y-66400000D03*
X72675000Y-66400000D03*
%TD*%
D18*
%TO.C,C30*%
X62765000Y-40112500D03*
X62765000Y-42187500D03*
%TD*%
D15*
%TO.C,R38*%
X71860000Y-30925000D03*
X70035000Y-30925000D03*
%TD*%
D14*
%TO.C,F8*%
X89990000Y-53500000D03*
X88410000Y-53500000D03*
%TD*%
D13*
%TO.C,D9*%
X61185000Y-20100000D03*
X61185000Y-21200000D03*
X63015000Y-21200000D03*
X63015000Y-20100000D03*
%TD*%
D18*
%TO.C,C33*%
X80015000Y-40112500D03*
X80015000Y-42187500D03*
%TD*%
D17*
%TO.C,R27*%
X80512500Y-58712500D03*
X80512500Y-56887500D03*
%TD*%
D25*
%TO.C,D15*%
X70134250Y-26560000D03*
X68384250Y-26560000D03*
%TD*%
D10*
%TO.C,C7*%
X66512500Y-40150000D03*
X64787500Y-40150000D03*
%TD*%
D11*
%TO.C,R47*%
X60515000Y-40325000D03*
X60515000Y-42150000D03*
%TD*%
D23*
%TO.C,C13*%
X79600000Y-19325000D03*
X79600000Y-21050000D03*
%TD*%
D15*
%TO.C,R34*%
X46600000Y-30950000D03*
X44775000Y-30950000D03*
%TD*%
D31*
%TO.C,Boot*%
X65225000Y-69152500D03*
X65225000Y-73652500D03*
X67375000Y-69152500D03*
X67375000Y-73652500D03*
%TD*%
D10*
%TO.C,C9*%
X83762500Y-40200000D03*
X82037500Y-40200000D03*
%TD*%
D22*
%TO.C,U6*%
X74852500Y-32950000D03*
X73582500Y-32950000D03*
X72312500Y-32950000D03*
X71042500Y-32950000D03*
X71042500Y-37900000D03*
X72312500Y-37900000D03*
X73582500Y-37900000D03*
X74852500Y-37900000D03*
%TD*%
D29*
%TO.C,C35*%
X82150000Y-47100000D03*
X83875000Y-47100000D03*
%TD*%
D23*
%TO.C,C15*%
X74600000Y-19387500D03*
X74600000Y-21112500D03*
%TD*%
D14*
%TO.C,F9*%
X89990000Y-51800000D03*
X88410000Y-51800000D03*
%TD*%
D32*
%TO.C,U3*%
X51727500Y-61630000D03*
X51727500Y-62900000D03*
X58102500Y-62900000D03*
X58102500Y-61630000D03*
%TD*%
D22*
%TO.C,U12*%
X66305000Y-32925000D03*
X65035000Y-32925000D03*
X63765000Y-32925000D03*
X62495000Y-32925000D03*
X62495000Y-37875000D03*
X63765000Y-37875000D03*
X65035000Y-37875000D03*
X66305000Y-37875000D03*
%TD*%
D10*
%TO.C,C37*%
X83875000Y-53900000D03*
X82150000Y-53900000D03*
%TD*%
D18*
%TO.C,C31*%
X54448400Y-40137500D03*
X54448400Y-42212500D03*
%TD*%
D13*
%TO.C,D7*%
X71185000Y-20100000D03*
X71185000Y-21200000D03*
X73015000Y-21200000D03*
X73015000Y-20100000D03*
%TD*%
D33*
%TO.C,U2*%
X68862000Y-50575000D03*
X68862000Y-51225000D03*
X68862000Y-51875000D03*
X68862000Y-52525000D03*
X68862000Y-53175000D03*
X68862000Y-53825000D03*
X68862000Y-54475000D03*
X68862000Y-55125000D03*
X68862000Y-55775000D03*
X68862000Y-56425000D03*
X74738000Y-56425000D03*
X74738000Y-55775000D03*
X74738000Y-55125000D03*
X74738000Y-54475000D03*
X74738000Y-53825000D03*
X74738000Y-53175000D03*
X74738000Y-52525000D03*
X74738000Y-51875000D03*
X74738000Y-51225000D03*
X74738000Y-50575000D03*
%TD*%
M02*
