M48
; DRILL file {KiCad 9.0.1} date 2025-10-18T17:41:54-0500
; FORMAT={-:-/ absolute / metric / decimal}
; #@! TF.CreationDate,2025-10-18T17:41:54-05:00
; #@! TF.GenerationSoftware,Kicad,Pcbnew,9.0.1
; #@! TF.FileFunction,MixedPlating,1,4
FMAT,2
METRIC
; #@! TA.AperFunction,Plated,PTH,ViaDrill
T1C0.300
; #@! TA.AperFunction,Plated,PTH,ComponentDrill
T2C1.016
; #@! TA.AperFunction,Plated,PTH,ComponentDrill
T3C1.245
; #@! TA.AperFunction,Plated,PTH,ComponentDrill
T4C3.200
; #@! TA.AperFunction,NonPlated,NPTH,ComponentDrill
T5C1.854
%
G90
G05
T1
X31.45Y-47.0
X33.25Y-51.9
X35.4Y-48.0
X36.265Y-34.654
X36.3Y-33.7
X36.35Y-35.65
X36.6Y-41.6
X37.3Y-42.3
X38.033Y-32.976
X38.7Y-39.5
X39.4Y-40.2
X39.462Y-48.662
X39.6Y-52.3
X39.85Y-58.65
X40.495Y-52.3
X40.495Y-58.124
X40.8Y-37.5
X40.8Y-38.2
X41.5Y-36.8
X41.5Y-37.5
X41.5Y-38.2
X42.4Y-45.5
X42.4Y-46.2
X42.4Y-46.9
X42.6Y-61.0
X42.6Y-61.7
X42.6Y-62.4
X43.2Y-45.5
X43.2Y-46.2
X43.2Y-46.9
X43.3Y-61.0
X43.3Y-61.7
X43.3Y-62.4
X43.802Y-35.75
X43.9Y-48.011
X44.0Y-45.5
X44.0Y-46.2
X44.0Y-46.9
X44.0Y-61.0
X44.0Y-61.7
X44.0Y-62.4
X44.7Y-65.2
X44.7Y-65.9
X44.7Y-66.6
X45.3Y-51.3
X45.3Y-52.0
X45.4Y-65.2
X45.4Y-65.9
X45.4Y-66.6
X45.75Y-36.078
X46.0Y-50.6
X46.0Y-51.3
X46.0Y-52.0
X46.1Y-65.2
X46.1Y-65.9
X46.1Y-66.6
X46.3Y-59.1
X46.7Y-50.6
X46.7Y-51.3
X46.7Y-52.0
X46.8Y-65.2
X46.8Y-65.9
X46.8Y-66.6
X47.5Y-34.476
X47.5Y-65.2
X47.5Y-65.9
X47.5Y-66.6
X47.75Y-36.078
X47.975Y-59.1
X48.075Y-40.2
X48.2Y-65.2
X48.2Y-65.9
X48.2Y-66.6
X48.9Y-69.4
X48.9Y-70.1
X48.9Y-70.8
X49.1Y-57.6
X49.593Y-39.4
X49.6Y-69.4
X49.6Y-70.1
X49.6Y-70.8
X50.3Y-69.4
X50.3Y-70.1
X50.3Y-70.8
X50.6Y-55.45
X50.6Y-59.735
X51.0Y-69.4
X51.0Y-70.1
X51.0Y-70.8
X51.3Y-52.895
X51.7Y-69.4
X51.7Y-70.1
X51.7Y-70.8
X52.198Y-35.776
X52.4Y-69.4
X52.4Y-70.1
X52.4Y-70.8
X52.425Y-64.075
X53.1Y-73.6
X53.1Y-74.3
X53.1Y-75.0
X53.45Y-62.9
X53.8Y-73.6
X53.8Y-74.3
X53.8Y-75.0
X54.15Y-35.875
X54.307Y-55.707
X54.5Y-73.6
X54.5Y-74.3
X54.5Y-75.0
X55.2Y-73.6
X55.2Y-74.3
X55.2Y-75.0
X55.425Y-35.875
X55.9Y-73.6
X55.9Y-74.3
X55.9Y-75.0
X56.438Y-52.5
X56.6Y-73.6
X56.6Y-74.3
X56.6Y-75.0
X57.15Y-45.95
X57.15Y-46.65
X57.15Y-47.35
X57.3Y-77.8
X57.3Y-78.5
X57.3Y-79.2
X57.4Y-35.8
X57.85Y-45.95
X57.85Y-46.65
X57.85Y-47.35
X58.0Y-77.8
X58.0Y-78.5
X58.0Y-79.2
X58.2Y-39.4
X58.55Y-45.95
X58.55Y-46.65
X58.55Y-47.35
X58.7Y-77.8
X58.7Y-78.5
X58.7Y-79.2
X60.0Y-62.8
X60.2Y-22.6
X60.35Y-56.75
X60.35Y-57.45
X60.356Y-51.744
X60.515Y-35.776
X61.05Y-56.75
X61.05Y-57.45
X61.376Y-61.701
X61.55Y-50.95
X61.75Y-56.75
X61.75Y-57.45
X62.25Y-50.95
X62.3Y-54.9
X62.3Y-62.8
X62.45Y-35.941
X62.95Y-50.95
X63.0Y-62.8
X63.2Y-61.725
X63.4Y-50.4
X63.654Y-66.8
X63.657Y-19.557
X63.7Y-62.8
X63.776Y-56.321
X63.844Y-23.856
X63.9Y-49.9
X64.0Y-35.941
X65.075Y-35.875
X65.225Y-69.153
X65.45Y-21.113
X65.7Y-66.8
X65.776Y-25.878
X66.15Y-44.8
X66.5Y-39.4
X66.931Y-56.931
X67.0Y-48.7
X67.375Y-69.153
X67.4Y-65.2
X68.05Y-44.8
X68.657Y-19.557
X68.844Y-23.856
X69.062Y-35.776
X69.1Y-62.0
X69.1Y-62.7
X69.1Y-63.4
X69.3Y-61.2
X69.6Y-22.0
X69.8Y-62.0
X69.8Y-62.7
X69.8Y-63.4
X70.134Y-27.45
X70.5Y-62.0
X70.5Y-62.7
X70.5Y-63.4
X70.81Y-46.1
X70.81Y-48.7
X71.05Y-36.085
X71.1Y-50.7
X71.1Y-51.4
X71.1Y-52.1
X71.1Y-52.8
X71.1Y-53.5
X71.1Y-54.2
X71.1Y-54.9
X71.1Y-55.6
X71.2Y-62.0
X71.2Y-62.7
X71.2Y-63.4
X71.763Y-67.271
X71.8Y-50.7
X71.8Y-51.4
X71.8Y-52.1
X71.8Y-52.8
X71.8Y-53.5
X71.8Y-54.2
X71.8Y-54.9
X71.8Y-55.6
X71.8Y-56.3
X71.9Y-62.0
X71.9Y-62.7
X71.9Y-63.4
X72.0Y-24.55
X72.5Y-50.7
X72.5Y-51.4
X72.5Y-52.1
X72.5Y-52.8
X72.5Y-53.5
X72.5Y-54.2
X72.5Y-54.9
X72.5Y-55.6
X72.5Y-56.3
X72.6Y-62.0
X72.6Y-62.7
X72.6Y-63.4
X72.75Y-36.25
X73.3Y-62.0
X73.3Y-62.7
X73.3Y-63.4
X73.65Y-35.85
X73.707Y-19.508
X73.844Y-23.856
X73.845Y-48.345
X74.0Y-62.0
X74.0Y-62.7
X74.0Y-63.4
X74.7Y-62.0
X74.7Y-62.7
X74.7Y-63.4
X75.06Y-39.45
X76.901Y-52.0
X77.15Y-26.25
X77.392Y-22.508
X77.765Y-35.776
X78.657Y-19.557
X78.875Y-23.825
X79.75Y-36.022
X81.5Y-36.25
X83.7Y-39.4
X85.8Y-53.2
X86.7Y-51.4
T2
X62.66Y-82.24
X62.66Y-84.78
X62.66Y-87.32
X62.66Y-89.86
X62.66Y-92.4
X65.2Y-82.24
X65.2Y-84.78
X65.2Y-87.32
X65.2Y-89.86
X65.2Y-92.4
T3
X27.633Y-27.808
X28.158Y-32.717
X28.158Y-35.217
X28.158Y-37.717
X28.158Y-40.217
X30.133Y-27.808
X30.658Y-32.717
X30.658Y-35.217
X30.658Y-37.717
X30.658Y-40.217
X32.633Y-27.808
X35.133Y-27.808
X37.633Y-27.808
X42.033Y-27.808
X44.533Y-27.808
X47.033Y-27.808
X49.533Y-27.808
X52.033Y-27.808
X89.383Y-42.808
X91.883Y-42.808
X93.5Y-45.592
X94.383Y-42.808
X96.0Y-45.592
X96.883Y-42.808
X98.5Y-45.592
X99.383Y-42.808
X101.0Y-45.592
X101.883Y-42.808
X103.5Y-45.592
X106.0Y-45.592
X106.233Y-42.8
X108.5Y-45.592
X108.733Y-42.8
X111.233Y-42.8
T4
X21.095Y-20.7
X21.125Y-48.28
X21.135Y-94.75
X51.875Y-48.28
X51.875Y-94.75
X83.7Y-66.4
X84.0Y-20.7
T5
X20.978Y-32.717
X20.978Y-40.217
X27.633Y-20.628
X37.633Y-20.628
X42.033Y-20.628
X52.033Y-20.628
X89.383Y-35.628
X93.5Y-52.772
X101.883Y-35.628
X106.233Y-35.62
X108.5Y-52.772
X111.233Y-35.62
M30
