%TF.GenerationSoftware,KiCad,Pcbnew,9.0.1*%
%TF.CreationDate,2026-01-13T20:44:29-06:00*%
%TF.ProjectId,Scrutineering,53637275-7469-46e6-9565-72696e672e6b,rev?*%
%TF.SameCoordinates,Original*%
%TF.FileFunction,Legend,Top*%
%TF.FilePolarity,Positive*%
%FSLAX46Y46*%
G04 Gerber Fmt 4.6, Leading zero omitted, Abs format (unit mm)*
G04 Created by KiCad (PCBNEW 9.0.1) date 2026-01-13 20:44:29*
%MOMM*%
%LPD*%
G01*
G04 APERTURE LIST*
%ADD10C,0.100000*%
%ADD11C,0.150000*%
%ADD12C,0.254000*%
%ADD13C,0.120000*%
%ADD14C,0.152400*%
%ADD15C,0.508000*%
G04 APERTURE END LIST*
D10*
X114000000Y-91200000D02*
X118000000Y-91200000D01*
X118000000Y-93200000D01*
X114000000Y-93200000D01*
X114000000Y-91200000D01*
X113951428Y-63400000D02*
X117951428Y-63400000D01*
X117951428Y-65400000D01*
X113951428Y-65400000D01*
X113951428Y-63400000D01*
X113100000Y-76350000D02*
X115100000Y-76350000D01*
X115100000Y-80350000D01*
X113100000Y-80350000D01*
X113100000Y-76350000D01*
X132027693Y-65320038D02*
X131932455Y-65272419D01*
X131932455Y-65272419D02*
X131789598Y-65272419D01*
X131789598Y-65272419D02*
X131646741Y-65320038D01*
X131646741Y-65320038D02*
X131551503Y-65415276D01*
X131551503Y-65415276D02*
X131503884Y-65510514D01*
X131503884Y-65510514D02*
X131456265Y-65700990D01*
X131456265Y-65700990D02*
X131456265Y-65843847D01*
X131456265Y-65843847D02*
X131503884Y-66034323D01*
X131503884Y-66034323D02*
X131551503Y-66129561D01*
X131551503Y-66129561D02*
X131646741Y-66224800D01*
X131646741Y-66224800D02*
X131789598Y-66272419D01*
X131789598Y-66272419D02*
X131884836Y-66272419D01*
X131884836Y-66272419D02*
X132027693Y-66224800D01*
X132027693Y-66224800D02*
X132075312Y-66177180D01*
X132075312Y-66177180D02*
X132075312Y-65843847D01*
X132075312Y-65843847D02*
X131884836Y-65843847D01*
X132503884Y-66272419D02*
X132503884Y-65272419D01*
X132503884Y-65272419D02*
X133075312Y-66272419D01*
X133075312Y-66272419D02*
X133075312Y-65272419D01*
X133551503Y-66272419D02*
X133551503Y-65272419D01*
X133551503Y-65272419D02*
X133789598Y-65272419D01*
X133789598Y-65272419D02*
X133932455Y-65320038D01*
X133932455Y-65320038D02*
X134027693Y-65415276D01*
X134027693Y-65415276D02*
X134075312Y-65510514D01*
X134075312Y-65510514D02*
X134122931Y-65700990D01*
X134122931Y-65700990D02*
X134122931Y-65843847D01*
X134122931Y-65843847D02*
X134075312Y-66034323D01*
X134075312Y-66034323D02*
X134027693Y-66129561D01*
X134027693Y-66129561D02*
X133932455Y-66224800D01*
X133932455Y-66224800D02*
X133789598Y-66272419D01*
X133789598Y-66272419D02*
X133551503Y-66272419D01*
X135075312Y-66272419D02*
X134503884Y-66272419D01*
X134789598Y-66272419D02*
X134789598Y-65272419D01*
X134789598Y-65272419D02*
X134694360Y-65415276D01*
X134694360Y-65415276D02*
X134599122Y-65510514D01*
X134599122Y-65510514D02*
X134503884Y-65558133D01*
X114415789Y-79008133D02*
X114415789Y-78960514D01*
X114368169Y-79103371D02*
X114368169Y-78960514D01*
X114320550Y-79198609D02*
X114320550Y-78960514D01*
X114272931Y-79293847D02*
X114272931Y-78960514D01*
X114225312Y-79341466D02*
X114225312Y-78960514D01*
X114177693Y-79436704D02*
X114177693Y-78960514D01*
X114130074Y-79531942D02*
X114130074Y-78960514D01*
X114082455Y-79627180D02*
X114082455Y-78960514D01*
X114034836Y-79722419D02*
X114034836Y-78960514D01*
X113987217Y-79627180D02*
X113987217Y-78960514D01*
X113939598Y-79531942D02*
X113939598Y-78960514D01*
X113891979Y-79436704D02*
X113891979Y-78960514D01*
X113844360Y-79341466D02*
X113844360Y-78960514D01*
X113796741Y-79293847D02*
X113796741Y-78960514D01*
X113749122Y-79198609D02*
X113749122Y-78960514D01*
X113701503Y-79103371D02*
X113701503Y-78960514D01*
X113653884Y-78960514D02*
X114034836Y-79674800D01*
X114034836Y-79674800D02*
X114415789Y-78960514D01*
X113653884Y-79008133D02*
X113653884Y-78960514D01*
X114034836Y-79722419D02*
X113606265Y-78960514D01*
X113606265Y-78960514D02*
X114463408Y-78960514D01*
X114463408Y-78960514D02*
X114034836Y-79722419D01*
X115606265Y-79674800D02*
X115749122Y-79722419D01*
X115749122Y-79722419D02*
X115987217Y-79722419D01*
X115987217Y-79722419D02*
X116082455Y-79674800D01*
X116082455Y-79674800D02*
X116130074Y-79627180D01*
X116130074Y-79627180D02*
X116177693Y-79531942D01*
X116177693Y-79531942D02*
X116177693Y-79436704D01*
X116177693Y-79436704D02*
X116130074Y-79341466D01*
X116130074Y-79341466D02*
X116082455Y-79293847D01*
X116082455Y-79293847D02*
X115987217Y-79246228D01*
X115987217Y-79246228D02*
X115796741Y-79198609D01*
X115796741Y-79198609D02*
X115701503Y-79150990D01*
X115701503Y-79150990D02*
X115653884Y-79103371D01*
X115653884Y-79103371D02*
X115606265Y-79008133D01*
X115606265Y-79008133D02*
X115606265Y-78912895D01*
X115606265Y-78912895D02*
X115653884Y-78817657D01*
X115653884Y-78817657D02*
X115701503Y-78770038D01*
X115701503Y-78770038D02*
X115796741Y-78722419D01*
X115796741Y-78722419D02*
X116034836Y-78722419D01*
X116034836Y-78722419D02*
X116177693Y-78770038D01*
X117177693Y-79627180D02*
X117130074Y-79674800D01*
X117130074Y-79674800D02*
X116987217Y-79722419D01*
X116987217Y-79722419D02*
X116891979Y-79722419D01*
X116891979Y-79722419D02*
X116749122Y-79674800D01*
X116749122Y-79674800D02*
X116653884Y-79579561D01*
X116653884Y-79579561D02*
X116606265Y-79484323D01*
X116606265Y-79484323D02*
X116558646Y-79293847D01*
X116558646Y-79293847D02*
X116558646Y-79150990D01*
X116558646Y-79150990D02*
X116606265Y-78960514D01*
X116606265Y-78960514D02*
X116653884Y-78865276D01*
X116653884Y-78865276D02*
X116749122Y-78770038D01*
X116749122Y-78770038D02*
X116891979Y-78722419D01*
X116891979Y-78722419D02*
X116987217Y-78722419D01*
X116987217Y-78722419D02*
X117130074Y-78770038D01*
X117130074Y-78770038D02*
X117177693Y-78817657D01*
X118177693Y-79722419D02*
X117844360Y-79246228D01*
X117606265Y-79722419D02*
X117606265Y-78722419D01*
X117606265Y-78722419D02*
X117987217Y-78722419D01*
X117987217Y-78722419D02*
X118082455Y-78770038D01*
X118082455Y-78770038D02*
X118130074Y-78817657D01*
X118130074Y-78817657D02*
X118177693Y-78912895D01*
X118177693Y-78912895D02*
X118177693Y-79055752D01*
X118177693Y-79055752D02*
X118130074Y-79150990D01*
X118130074Y-79150990D02*
X118082455Y-79198609D01*
X118082455Y-79198609D02*
X117987217Y-79246228D01*
X117987217Y-79246228D02*
X117606265Y-79246228D01*
X118606265Y-78722419D02*
X118606265Y-79531942D01*
X118606265Y-79531942D02*
X118653884Y-79627180D01*
X118653884Y-79627180D02*
X118701503Y-79674800D01*
X118701503Y-79674800D02*
X118796741Y-79722419D01*
X118796741Y-79722419D02*
X118987217Y-79722419D01*
X118987217Y-79722419D02*
X119082455Y-79674800D01*
X119082455Y-79674800D02*
X119130074Y-79627180D01*
X119130074Y-79627180D02*
X119177693Y-79531942D01*
X119177693Y-79531942D02*
X119177693Y-78722419D01*
X119511027Y-78722419D02*
X120082455Y-78722419D01*
X119796741Y-79722419D02*
X119796741Y-78722419D01*
X121034837Y-78722419D02*
X121368170Y-79722419D01*
X121368170Y-79722419D02*
X121701503Y-78722419D01*
X122225313Y-78722419D02*
X122415789Y-78722419D01*
X122415789Y-78722419D02*
X122511027Y-78770038D01*
X122511027Y-78770038D02*
X122606265Y-78865276D01*
X122606265Y-78865276D02*
X122653884Y-79055752D01*
X122653884Y-79055752D02*
X122653884Y-79389085D01*
X122653884Y-79389085D02*
X122606265Y-79579561D01*
X122606265Y-79579561D02*
X122511027Y-79674800D01*
X122511027Y-79674800D02*
X122415789Y-79722419D01*
X122415789Y-79722419D02*
X122225313Y-79722419D01*
X122225313Y-79722419D02*
X122130075Y-79674800D01*
X122130075Y-79674800D02*
X122034837Y-79579561D01*
X122034837Y-79579561D02*
X121987218Y-79389085D01*
X121987218Y-79389085D02*
X121987218Y-79055752D01*
X121987218Y-79055752D02*
X122034837Y-78865276D01*
X122034837Y-78865276D02*
X122130075Y-78770038D01*
X122130075Y-78770038D02*
X122225313Y-78722419D01*
X123558646Y-79722419D02*
X123082456Y-79722419D01*
X123082456Y-79722419D02*
X123082456Y-78722419D01*
X123749123Y-78722419D02*
X124320551Y-78722419D01*
X124034837Y-79722419D02*
X124034837Y-78722419D01*
X132027693Y-90320038D02*
X131932455Y-90272419D01*
X131932455Y-90272419D02*
X131789598Y-90272419D01*
X131789598Y-90272419D02*
X131646741Y-90320038D01*
X131646741Y-90320038D02*
X131551503Y-90415276D01*
X131551503Y-90415276D02*
X131503884Y-90510514D01*
X131503884Y-90510514D02*
X131456265Y-90700990D01*
X131456265Y-90700990D02*
X131456265Y-90843847D01*
X131456265Y-90843847D02*
X131503884Y-91034323D01*
X131503884Y-91034323D02*
X131551503Y-91129561D01*
X131551503Y-91129561D02*
X131646741Y-91224800D01*
X131646741Y-91224800D02*
X131789598Y-91272419D01*
X131789598Y-91272419D02*
X131884836Y-91272419D01*
X131884836Y-91272419D02*
X132027693Y-91224800D01*
X132027693Y-91224800D02*
X132075312Y-91177180D01*
X132075312Y-91177180D02*
X132075312Y-90843847D01*
X132075312Y-90843847D02*
X131884836Y-90843847D01*
X132503884Y-91272419D02*
X132503884Y-90272419D01*
X132503884Y-90272419D02*
X133075312Y-91272419D01*
X133075312Y-91272419D02*
X133075312Y-90272419D01*
X133551503Y-91272419D02*
X133551503Y-90272419D01*
X133551503Y-90272419D02*
X133789598Y-90272419D01*
X133789598Y-90272419D02*
X133932455Y-90320038D01*
X133932455Y-90320038D02*
X134027693Y-90415276D01*
X134027693Y-90415276D02*
X134075312Y-90510514D01*
X134075312Y-90510514D02*
X134122931Y-90700990D01*
X134122931Y-90700990D02*
X134122931Y-90843847D01*
X134122931Y-90843847D02*
X134075312Y-91034323D01*
X134075312Y-91034323D02*
X134027693Y-91129561D01*
X134027693Y-91129561D02*
X133932455Y-91224800D01*
X133932455Y-91224800D02*
X133789598Y-91272419D01*
X133789598Y-91272419D02*
X133551503Y-91272419D01*
X134503884Y-90367657D02*
X134551503Y-90320038D01*
X134551503Y-90320038D02*
X134646741Y-90272419D01*
X134646741Y-90272419D02*
X134884836Y-90272419D01*
X134884836Y-90272419D02*
X134980074Y-90320038D01*
X134980074Y-90320038D02*
X135027693Y-90367657D01*
X135027693Y-90367657D02*
X135075312Y-90462895D01*
X135075312Y-90462895D02*
X135075312Y-90558133D01*
X135075312Y-90558133D02*
X135027693Y-90700990D01*
X135027693Y-90700990D02*
X134456265Y-91272419D01*
X134456265Y-91272419D02*
X135075312Y-91272419D01*
X93004360Y-70852419D02*
X93194836Y-70852419D01*
X93194836Y-70852419D02*
X93290074Y-70900038D01*
X93290074Y-70900038D02*
X93385312Y-70995276D01*
X93385312Y-70995276D02*
X93432931Y-71185752D01*
X93432931Y-71185752D02*
X93432931Y-71519085D01*
X93432931Y-71519085D02*
X93385312Y-71709561D01*
X93385312Y-71709561D02*
X93290074Y-71804800D01*
X93290074Y-71804800D02*
X93194836Y-71852419D01*
X93194836Y-71852419D02*
X93004360Y-71852419D01*
X93004360Y-71852419D02*
X92909122Y-71804800D01*
X92909122Y-71804800D02*
X92813884Y-71709561D01*
X92813884Y-71709561D02*
X92766265Y-71519085D01*
X92766265Y-71519085D02*
X92766265Y-71185752D01*
X92766265Y-71185752D02*
X92813884Y-70995276D01*
X92813884Y-70995276D02*
X92909122Y-70900038D01*
X92909122Y-70900038D02*
X93004360Y-70852419D01*
X94290074Y-71185752D02*
X94290074Y-71852419D01*
X93861503Y-71185752D02*
X93861503Y-71709561D01*
X93861503Y-71709561D02*
X93909122Y-71804800D01*
X93909122Y-71804800D02*
X94004360Y-71852419D01*
X94004360Y-71852419D02*
X94147217Y-71852419D01*
X94147217Y-71852419D02*
X94242455Y-71804800D01*
X94242455Y-71804800D02*
X94290074Y-71757180D01*
X94623408Y-71185752D02*
X95004360Y-71185752D01*
X94766265Y-70852419D02*
X94766265Y-71709561D01*
X94766265Y-71709561D02*
X94813884Y-71804800D01*
X94813884Y-71804800D02*
X94909122Y-71852419D01*
X94909122Y-71852419D02*
X95004360Y-71852419D01*
X96051979Y-70804800D02*
X95194837Y-72090514D01*
X96290075Y-70852419D02*
X96956741Y-71852419D01*
X96956741Y-70852419D02*
X96290075Y-71852419D01*
X120361027Y-65272419D02*
X120694360Y-66272419D01*
X120694360Y-66272419D02*
X121027693Y-65272419D01*
X121503884Y-66272419D02*
X121408646Y-66224800D01*
X121408646Y-66224800D02*
X121361027Y-66177180D01*
X121361027Y-66177180D02*
X121313408Y-66081942D01*
X121313408Y-66081942D02*
X121313408Y-65796228D01*
X121313408Y-65796228D02*
X121361027Y-65700990D01*
X121361027Y-65700990D02*
X121408646Y-65653371D01*
X121408646Y-65653371D02*
X121503884Y-65605752D01*
X121503884Y-65605752D02*
X121646741Y-65605752D01*
X121646741Y-65605752D02*
X121741979Y-65653371D01*
X121741979Y-65653371D02*
X121789598Y-65700990D01*
X121789598Y-65700990D02*
X121837217Y-65796228D01*
X121837217Y-65796228D02*
X121837217Y-66081942D01*
X121837217Y-66081942D02*
X121789598Y-66177180D01*
X121789598Y-66177180D02*
X121741979Y-66224800D01*
X121741979Y-66224800D02*
X121646741Y-66272419D01*
X121646741Y-66272419D02*
X121503884Y-66272419D01*
X122408646Y-66272419D02*
X122313408Y-66224800D01*
X122313408Y-66224800D02*
X122265789Y-66129561D01*
X122265789Y-66129561D02*
X122265789Y-65272419D01*
X122646742Y-65605752D02*
X123027694Y-65605752D01*
X122789599Y-65272419D02*
X122789599Y-66129561D01*
X122789599Y-66129561D02*
X122837218Y-66224800D01*
X122837218Y-66224800D02*
X122932456Y-66272419D01*
X122932456Y-66272419D02*
X123027694Y-66272419D01*
X123884837Y-66272419D02*
X123313409Y-66272419D01*
X123599123Y-66272419D02*
X123599123Y-65272419D01*
X123599123Y-65272419D02*
X123503885Y-65415276D01*
X123503885Y-65415276D02*
X123408647Y-65510514D01*
X123408647Y-65510514D02*
X123313409Y-65558133D01*
X119586704Y-60943734D02*
X119586704Y-60467544D01*
X119872419Y-61038972D02*
X118872419Y-60705639D01*
X118872419Y-60705639D02*
X119872419Y-60372306D01*
X119872419Y-60038972D02*
X118872419Y-60038972D01*
X118872419Y-60038972D02*
X119586704Y-59705639D01*
X119586704Y-59705639D02*
X118872419Y-59372306D01*
X118872419Y-59372306D02*
X119872419Y-59372306D01*
X119872419Y-58896115D02*
X118872419Y-58896115D01*
X118872419Y-58896115D02*
X118872419Y-58515163D01*
X118872419Y-58515163D02*
X118920038Y-58419925D01*
X118920038Y-58419925D02*
X118967657Y-58372306D01*
X118967657Y-58372306D02*
X119062895Y-58324687D01*
X119062895Y-58324687D02*
X119205752Y-58324687D01*
X119205752Y-58324687D02*
X119300990Y-58372306D01*
X119300990Y-58372306D02*
X119348609Y-58419925D01*
X119348609Y-58419925D02*
X119396228Y-58515163D01*
X119396228Y-58515163D02*
X119396228Y-58896115D01*
X119348609Y-57896115D02*
X119348609Y-57562782D01*
X119872419Y-57419925D02*
X119872419Y-57896115D01*
X119872419Y-57896115D02*
X118872419Y-57896115D01*
X118872419Y-57896115D02*
X118872419Y-57419925D01*
X119872419Y-56419925D02*
X119396228Y-56753258D01*
X119872419Y-56991353D02*
X118872419Y-56991353D01*
X118872419Y-56991353D02*
X118872419Y-56610401D01*
X118872419Y-56610401D02*
X118920038Y-56515163D01*
X118920038Y-56515163D02*
X118967657Y-56467544D01*
X118967657Y-56467544D02*
X119062895Y-56419925D01*
X119062895Y-56419925D02*
X119205752Y-56419925D01*
X119205752Y-56419925D02*
X119300990Y-56467544D01*
X119300990Y-56467544D02*
X119348609Y-56515163D01*
X119348609Y-56515163D02*
X119396228Y-56610401D01*
X119396228Y-56610401D02*
X119396228Y-56991353D01*
X119348609Y-55991353D02*
X119348609Y-55658020D01*
X119872419Y-55515163D02*
X119872419Y-55991353D01*
X119872419Y-55991353D02*
X118872419Y-55991353D01*
X118872419Y-55991353D02*
X118872419Y-55515163D01*
X119824800Y-55134210D02*
X119872419Y-54991353D01*
X119872419Y-54991353D02*
X119872419Y-54753258D01*
X119872419Y-54753258D02*
X119824800Y-54658020D01*
X119824800Y-54658020D02*
X119777180Y-54610401D01*
X119777180Y-54610401D02*
X119681942Y-54562782D01*
X119681942Y-54562782D02*
X119586704Y-54562782D01*
X119586704Y-54562782D02*
X119491466Y-54610401D01*
X119491466Y-54610401D02*
X119443847Y-54658020D01*
X119443847Y-54658020D02*
X119396228Y-54753258D01*
X119396228Y-54753258D02*
X119348609Y-54943734D01*
X119348609Y-54943734D02*
X119300990Y-55038972D01*
X119300990Y-55038972D02*
X119253371Y-55086591D01*
X119253371Y-55086591D02*
X119158133Y-55134210D01*
X119158133Y-55134210D02*
X119062895Y-55134210D01*
X119062895Y-55134210D02*
X118967657Y-55086591D01*
X118967657Y-55086591D02*
X118920038Y-55038972D01*
X118920038Y-55038972D02*
X118872419Y-54943734D01*
X118872419Y-54943734D02*
X118872419Y-54705639D01*
X118872419Y-54705639D02*
X118920038Y-54562782D01*
X92423883Y-80611466D02*
X93185788Y-80611466D01*
X92804835Y-80992419D02*
X92804835Y-80230514D01*
X94376263Y-79944800D02*
X93519121Y-81230514D01*
X94900073Y-79992419D02*
X95090549Y-79992419D01*
X95090549Y-79992419D02*
X95185787Y-80040038D01*
X95185787Y-80040038D02*
X95281025Y-80135276D01*
X95281025Y-80135276D02*
X95328644Y-80325752D01*
X95328644Y-80325752D02*
X95328644Y-80659085D01*
X95328644Y-80659085D02*
X95281025Y-80849561D01*
X95281025Y-80849561D02*
X95185787Y-80944800D01*
X95185787Y-80944800D02*
X95090549Y-80992419D01*
X95090549Y-80992419D02*
X94900073Y-80992419D01*
X94900073Y-80992419D02*
X94804835Y-80944800D01*
X94804835Y-80944800D02*
X94709597Y-80849561D01*
X94709597Y-80849561D02*
X94661978Y-80659085D01*
X94661978Y-80659085D02*
X94661978Y-80325752D01*
X94661978Y-80325752D02*
X94709597Y-80135276D01*
X94709597Y-80135276D02*
X94804835Y-80040038D01*
X94804835Y-80040038D02*
X94900073Y-79992419D01*
X96185787Y-80325752D02*
X96185787Y-80992419D01*
X95757216Y-80325752D02*
X95757216Y-80849561D01*
X95757216Y-80849561D02*
X95804835Y-80944800D01*
X95804835Y-80944800D02*
X95900073Y-80992419D01*
X95900073Y-80992419D02*
X96042930Y-80992419D01*
X96042930Y-80992419D02*
X96138168Y-80944800D01*
X96138168Y-80944800D02*
X96185787Y-80897180D01*
X96519121Y-80325752D02*
X96900073Y-80325752D01*
X96661978Y-79992419D02*
X96661978Y-80849561D01*
X96661978Y-80849561D02*
X96709597Y-80944800D01*
X96709597Y-80944800D02*
X96804835Y-80992419D01*
X96804835Y-80992419D02*
X96900073Y-80992419D01*
X92004361Y-76471466D02*
X92766266Y-76471466D01*
X93956741Y-75804800D02*
X93099599Y-77090514D01*
X94813884Y-75900038D02*
X94718646Y-75852419D01*
X94718646Y-75852419D02*
X94575789Y-75852419D01*
X94575789Y-75852419D02*
X94432932Y-75900038D01*
X94432932Y-75900038D02*
X94337694Y-75995276D01*
X94337694Y-75995276D02*
X94290075Y-76090514D01*
X94290075Y-76090514D02*
X94242456Y-76280990D01*
X94242456Y-76280990D02*
X94242456Y-76423847D01*
X94242456Y-76423847D02*
X94290075Y-76614323D01*
X94290075Y-76614323D02*
X94337694Y-76709561D01*
X94337694Y-76709561D02*
X94432932Y-76804800D01*
X94432932Y-76804800D02*
X94575789Y-76852419D01*
X94575789Y-76852419D02*
X94671027Y-76852419D01*
X94671027Y-76852419D02*
X94813884Y-76804800D01*
X94813884Y-76804800D02*
X94861503Y-76757180D01*
X94861503Y-76757180D02*
X94861503Y-76423847D01*
X94861503Y-76423847D02*
X94671027Y-76423847D01*
X95290075Y-76852419D02*
X95290075Y-75852419D01*
X95290075Y-75852419D02*
X95861503Y-76852419D01*
X95861503Y-76852419D02*
X95861503Y-75852419D01*
X96337694Y-76852419D02*
X96337694Y-75852419D01*
X96337694Y-75852419D02*
X96575789Y-75852419D01*
X96575789Y-75852419D02*
X96718646Y-75900038D01*
X96718646Y-75900038D02*
X96813884Y-75995276D01*
X96813884Y-75995276D02*
X96861503Y-76090514D01*
X96861503Y-76090514D02*
X96909122Y-76280990D01*
X96909122Y-76280990D02*
X96909122Y-76423847D01*
X96909122Y-76423847D02*
X96861503Y-76614323D01*
X96861503Y-76614323D02*
X96813884Y-76709561D01*
X96813884Y-76709561D02*
X96718646Y-76804800D01*
X96718646Y-76804800D02*
X96575789Y-76852419D01*
X96575789Y-76852419D02*
X96337694Y-76852419D01*
X103121466Y-96656115D02*
X103121466Y-95894211D01*
X103502419Y-96275163D02*
X102740514Y-96275163D01*
X107811466Y-60796115D02*
X107811466Y-60034211D01*
X108192419Y-60415163D02*
X107430514Y-60415163D01*
X115324800Y-92646115D02*
X115372419Y-92646115D01*
X115229561Y-92598496D02*
X115372419Y-92598496D01*
X115134323Y-92550877D02*
X115372419Y-92550877D01*
X115039085Y-92503258D02*
X115372419Y-92503258D01*
X114991466Y-92455639D02*
X115372419Y-92455639D01*
X114896228Y-92408020D02*
X115372419Y-92408020D01*
X114800990Y-92360401D02*
X115372419Y-92360401D01*
X114705752Y-92312782D02*
X115372419Y-92312782D01*
X114610514Y-92265163D02*
X115372419Y-92265163D01*
X114705752Y-92217544D02*
X115372419Y-92217544D01*
X114800990Y-92169925D02*
X115372419Y-92169925D01*
X114896228Y-92122306D02*
X115372419Y-92122306D01*
X114991466Y-92074687D02*
X115372419Y-92074687D01*
X115039085Y-92027068D02*
X115372419Y-92027068D01*
X115134323Y-91979449D02*
X115372419Y-91979449D01*
X115229561Y-91931830D02*
X115372419Y-91931830D01*
X115372419Y-91884211D02*
X114658133Y-92265163D01*
X114658133Y-92265163D02*
X115372419Y-92646115D01*
X115324800Y-91884211D02*
X115372419Y-91884211D01*
X114610514Y-92265163D02*
X115372419Y-91836591D01*
X115372419Y-91836591D02*
X115372419Y-92693734D01*
X115372419Y-92693734D02*
X114610514Y-92265163D01*
X114848609Y-90312782D02*
X114896228Y-90169925D01*
X114896228Y-90169925D02*
X114943847Y-90122306D01*
X114943847Y-90122306D02*
X115039085Y-90074687D01*
X115039085Y-90074687D02*
X115181942Y-90074687D01*
X115181942Y-90074687D02*
X115277180Y-90122306D01*
X115277180Y-90122306D02*
X115324800Y-90169925D01*
X115324800Y-90169925D02*
X115372419Y-90265163D01*
X115372419Y-90265163D02*
X115372419Y-90646115D01*
X115372419Y-90646115D02*
X114372419Y-90646115D01*
X114372419Y-90646115D02*
X114372419Y-90312782D01*
X114372419Y-90312782D02*
X114420038Y-90217544D01*
X114420038Y-90217544D02*
X114467657Y-90169925D01*
X114467657Y-90169925D02*
X114562895Y-90122306D01*
X114562895Y-90122306D02*
X114658133Y-90122306D01*
X114658133Y-90122306D02*
X114753371Y-90169925D01*
X114753371Y-90169925D02*
X114800990Y-90217544D01*
X114800990Y-90217544D02*
X114848609Y-90312782D01*
X114848609Y-90312782D02*
X114848609Y-90646115D01*
X115086704Y-89693734D02*
X115086704Y-89217544D01*
X115372419Y-89788972D02*
X114372419Y-89455639D01*
X114372419Y-89455639D02*
X115372419Y-89122306D01*
X114372419Y-88931829D02*
X114372419Y-88360401D01*
X115372419Y-88646115D02*
X114372419Y-88646115D01*
X114372419Y-88169924D02*
X114372419Y-87598496D01*
X115372419Y-87884210D02*
X114372419Y-87884210D01*
X114372419Y-86646114D02*
X114372419Y-86074686D01*
X115372419Y-86360400D02*
X114372419Y-86360400D01*
X114848609Y-85741352D02*
X114848609Y-85408019D01*
X115372419Y-85265162D02*
X115372419Y-85741352D01*
X115372419Y-85741352D02*
X114372419Y-85741352D01*
X114372419Y-85741352D02*
X114372419Y-85265162D01*
X115372419Y-84836590D02*
X114372419Y-84836590D01*
X114372419Y-84836590D02*
X115086704Y-84503257D01*
X115086704Y-84503257D02*
X114372419Y-84169924D01*
X114372419Y-84169924D02*
X115372419Y-84169924D01*
X115372419Y-83693733D02*
X114372419Y-83693733D01*
X114372419Y-83693733D02*
X114372419Y-83312781D01*
X114372419Y-83312781D02*
X114420038Y-83217543D01*
X114420038Y-83217543D02*
X114467657Y-83169924D01*
X114467657Y-83169924D02*
X114562895Y-83122305D01*
X114562895Y-83122305D02*
X114705752Y-83122305D01*
X114705752Y-83122305D02*
X114800990Y-83169924D01*
X114800990Y-83169924D02*
X114848609Y-83217543D01*
X114848609Y-83217543D02*
X114896228Y-83312781D01*
X114896228Y-83312781D02*
X114896228Y-83693733D01*
X92900073Y-82492419D02*
X93090549Y-82492419D01*
X93090549Y-82492419D02*
X93185787Y-82540038D01*
X93185787Y-82540038D02*
X93281025Y-82635276D01*
X93281025Y-82635276D02*
X93328644Y-82825752D01*
X93328644Y-82825752D02*
X93328644Y-83159085D01*
X93328644Y-83159085D02*
X93281025Y-83349561D01*
X93281025Y-83349561D02*
X93185787Y-83444800D01*
X93185787Y-83444800D02*
X93090549Y-83492419D01*
X93090549Y-83492419D02*
X92900073Y-83492419D01*
X92900073Y-83492419D02*
X92804835Y-83444800D01*
X92804835Y-83444800D02*
X92709597Y-83349561D01*
X92709597Y-83349561D02*
X92661978Y-83159085D01*
X92661978Y-83159085D02*
X92661978Y-82825752D01*
X92661978Y-82825752D02*
X92709597Y-82635276D01*
X92709597Y-82635276D02*
X92804835Y-82540038D01*
X92804835Y-82540038D02*
X92900073Y-82492419D01*
X94185787Y-82825752D02*
X94185787Y-83492419D01*
X93757216Y-82825752D02*
X93757216Y-83349561D01*
X93757216Y-83349561D02*
X93804835Y-83444800D01*
X93804835Y-83444800D02*
X93900073Y-83492419D01*
X93900073Y-83492419D02*
X94042930Y-83492419D01*
X94042930Y-83492419D02*
X94138168Y-83444800D01*
X94138168Y-83444800D02*
X94185787Y-83397180D01*
X94519121Y-82825752D02*
X94900073Y-82825752D01*
X94661978Y-82492419D02*
X94661978Y-83349561D01*
X94661978Y-83349561D02*
X94709597Y-83444800D01*
X94709597Y-83444800D02*
X94804835Y-83492419D01*
X94804835Y-83492419D02*
X94900073Y-83492419D01*
X95947692Y-82444800D02*
X95090550Y-83730514D01*
X96185788Y-82492419D02*
X96852454Y-83492419D01*
X96852454Y-82492419D02*
X96185788Y-83492419D01*
X93423884Y-85992419D02*
X93423884Y-84992419D01*
X93900074Y-85325752D02*
X93900074Y-85992419D01*
X93900074Y-85420990D02*
X93947693Y-85373371D01*
X93947693Y-85373371D02*
X94042931Y-85325752D01*
X94042931Y-85325752D02*
X94185788Y-85325752D01*
X94185788Y-85325752D02*
X94281026Y-85373371D01*
X94281026Y-85373371D02*
X94328645Y-85468609D01*
X94328645Y-85468609D02*
X94328645Y-85992419D01*
X95519121Y-84944800D02*
X94661979Y-86230514D01*
X95852455Y-85992419D02*
X95852455Y-84992419D01*
X96328645Y-85325752D02*
X96328645Y-85992419D01*
X96328645Y-85420990D02*
X96376264Y-85373371D01*
X96376264Y-85373371D02*
X96471502Y-85325752D01*
X96471502Y-85325752D02*
X96614359Y-85325752D01*
X96614359Y-85325752D02*
X96709597Y-85373371D01*
X96709597Y-85373371D02*
X96757216Y-85468609D01*
X96757216Y-85468609D02*
X96757216Y-85992419D01*
X116088533Y-103013884D02*
X116088533Y-103775789D01*
X115707580Y-103394836D02*
X116469485Y-103394836D01*
X117276228Y-74943734D02*
X117323847Y-74800877D01*
X117323847Y-74800877D02*
X117323847Y-74562782D01*
X117323847Y-74562782D02*
X117276228Y-74467544D01*
X117276228Y-74467544D02*
X117228608Y-74419925D01*
X117228608Y-74419925D02*
X117133370Y-74372306D01*
X117133370Y-74372306D02*
X117038132Y-74372306D01*
X117038132Y-74372306D02*
X116942894Y-74419925D01*
X116942894Y-74419925D02*
X116895275Y-74467544D01*
X116895275Y-74467544D02*
X116847656Y-74562782D01*
X116847656Y-74562782D02*
X116800037Y-74753258D01*
X116800037Y-74753258D02*
X116752418Y-74848496D01*
X116752418Y-74848496D02*
X116704799Y-74896115D01*
X116704799Y-74896115D02*
X116609561Y-74943734D01*
X116609561Y-74943734D02*
X116514323Y-74943734D01*
X116514323Y-74943734D02*
X116419085Y-74896115D01*
X116419085Y-74896115D02*
X116371466Y-74848496D01*
X116371466Y-74848496D02*
X116323847Y-74753258D01*
X116323847Y-74753258D02*
X116323847Y-74515163D01*
X116323847Y-74515163D02*
X116371466Y-74372306D01*
X117228608Y-73372306D02*
X117276228Y-73419925D01*
X117276228Y-73419925D02*
X117323847Y-73562782D01*
X117323847Y-73562782D02*
X117323847Y-73658020D01*
X117323847Y-73658020D02*
X117276228Y-73800877D01*
X117276228Y-73800877D02*
X117180989Y-73896115D01*
X117180989Y-73896115D02*
X117085751Y-73943734D01*
X117085751Y-73943734D02*
X116895275Y-73991353D01*
X116895275Y-73991353D02*
X116752418Y-73991353D01*
X116752418Y-73991353D02*
X116561942Y-73943734D01*
X116561942Y-73943734D02*
X116466704Y-73896115D01*
X116466704Y-73896115D02*
X116371466Y-73800877D01*
X116371466Y-73800877D02*
X116323847Y-73658020D01*
X116323847Y-73658020D02*
X116323847Y-73562782D01*
X116323847Y-73562782D02*
X116371466Y-73419925D01*
X116371466Y-73419925D02*
X116419085Y-73372306D01*
X117323847Y-72372306D02*
X116847656Y-72705639D01*
X117323847Y-72943734D02*
X116323847Y-72943734D01*
X116323847Y-72943734D02*
X116323847Y-72562782D01*
X116323847Y-72562782D02*
X116371466Y-72467544D01*
X116371466Y-72467544D02*
X116419085Y-72419925D01*
X116419085Y-72419925D02*
X116514323Y-72372306D01*
X116514323Y-72372306D02*
X116657180Y-72372306D01*
X116657180Y-72372306D02*
X116752418Y-72419925D01*
X116752418Y-72419925D02*
X116800037Y-72467544D01*
X116800037Y-72467544D02*
X116847656Y-72562782D01*
X116847656Y-72562782D02*
X116847656Y-72943734D01*
X116323847Y-71943734D02*
X117133370Y-71943734D01*
X117133370Y-71943734D02*
X117228608Y-71896115D01*
X117228608Y-71896115D02*
X117276228Y-71848496D01*
X117276228Y-71848496D02*
X117323847Y-71753258D01*
X117323847Y-71753258D02*
X117323847Y-71562782D01*
X117323847Y-71562782D02*
X117276228Y-71467544D01*
X117276228Y-71467544D02*
X117228608Y-71419925D01*
X117228608Y-71419925D02*
X117133370Y-71372306D01*
X117133370Y-71372306D02*
X116323847Y-71372306D01*
X116323847Y-71038972D02*
X116323847Y-70467544D01*
X117323847Y-70753258D02*
X116323847Y-70753258D01*
X116323847Y-69515162D02*
X116323847Y-68943734D01*
X117323847Y-69229448D02*
X116323847Y-69229448D01*
X116800037Y-68610400D02*
X116800037Y-68277067D01*
X117323847Y-68134210D02*
X117323847Y-68610400D01*
X117323847Y-68610400D02*
X116323847Y-68610400D01*
X116323847Y-68610400D02*
X116323847Y-68134210D01*
X117323847Y-67705638D02*
X116323847Y-67705638D01*
X116323847Y-67705638D02*
X117038132Y-67372305D01*
X117038132Y-67372305D02*
X116323847Y-67038972D01*
X116323847Y-67038972D02*
X117323847Y-67038972D01*
X117323847Y-66562781D02*
X116323847Y-66562781D01*
X116323847Y-66562781D02*
X116323847Y-66181829D01*
X116323847Y-66181829D02*
X116371466Y-66086591D01*
X116371466Y-66086591D02*
X116419085Y-66038972D01*
X116419085Y-66038972D02*
X116514323Y-65991353D01*
X116514323Y-65991353D02*
X116657180Y-65991353D01*
X116657180Y-65991353D02*
X116752418Y-66038972D01*
X116752418Y-66038972D02*
X116800037Y-66086591D01*
X116800037Y-66086591D02*
X116847656Y-66181829D01*
X116847656Y-66181829D02*
X116847656Y-66562781D01*
X116609561Y-64038972D02*
X116561942Y-64038972D01*
X116704799Y-64086591D02*
X116561942Y-64086591D01*
X116800037Y-64134210D02*
X116561942Y-64134210D01*
X116895275Y-64181829D02*
X116561942Y-64181829D01*
X116942894Y-64229448D02*
X116561942Y-64229448D01*
X117038132Y-64277067D02*
X116561942Y-64277067D01*
X117133370Y-64324686D02*
X116561942Y-64324686D01*
X117228608Y-64372305D02*
X116561942Y-64372305D01*
X117323847Y-64419924D02*
X116561942Y-64419924D01*
X117228608Y-64467543D02*
X116561942Y-64467543D01*
X117133370Y-64515162D02*
X116561942Y-64515162D01*
X117038132Y-64562781D02*
X116561942Y-64562781D01*
X116942894Y-64610400D02*
X116561942Y-64610400D01*
X116895275Y-64658019D02*
X116561942Y-64658019D01*
X116800037Y-64705638D02*
X116561942Y-64705638D01*
X116704799Y-64753257D02*
X116561942Y-64753257D01*
X116561942Y-64800876D02*
X117276228Y-64419924D01*
X117276228Y-64419924D02*
X116561942Y-64038972D01*
X116609561Y-64800876D02*
X116561942Y-64800876D01*
X117323847Y-64419924D02*
X116561942Y-64848495D01*
X116561942Y-64848495D02*
X116561942Y-63991352D01*
X116561942Y-63991352D02*
X117323847Y-64419924D01*
X99072419Y-58838972D02*
X99072419Y-58267544D01*
X100072419Y-58553258D02*
X99072419Y-58553258D01*
X100072419Y-57934210D02*
X99072419Y-57934210D01*
X99548609Y-57934210D02*
X99548609Y-57362782D01*
X100072419Y-57362782D02*
X99072419Y-57362782D01*
X99548609Y-56886591D02*
X99548609Y-56553258D01*
X100072419Y-56410401D02*
X100072419Y-56886591D01*
X100072419Y-56886591D02*
X99072419Y-56886591D01*
X99072419Y-56886591D02*
X99072419Y-56410401D01*
X100072419Y-55410401D02*
X99596228Y-55743734D01*
X100072419Y-55981829D02*
X99072419Y-55981829D01*
X99072419Y-55981829D02*
X99072419Y-55600877D01*
X99072419Y-55600877D02*
X99120038Y-55505639D01*
X99120038Y-55505639D02*
X99167657Y-55458020D01*
X99167657Y-55458020D02*
X99262895Y-55410401D01*
X99262895Y-55410401D02*
X99405752Y-55410401D01*
X99405752Y-55410401D02*
X99500990Y-55458020D01*
X99500990Y-55458020D02*
X99548609Y-55505639D01*
X99548609Y-55505639D02*
X99596228Y-55600877D01*
X99596228Y-55600877D02*
X99596228Y-55981829D01*
X100072419Y-54981829D02*
X99072419Y-54981829D01*
X99072419Y-54981829D02*
X99786704Y-54648496D01*
X99786704Y-54648496D02*
X99072419Y-54315163D01*
X99072419Y-54315163D02*
X100072419Y-54315163D01*
X100072419Y-53315163D02*
X100072419Y-53886591D01*
X100072419Y-53600877D02*
X99072419Y-53600877D01*
X99072419Y-53600877D02*
X99215276Y-53696115D01*
X99215276Y-53696115D02*
X99310514Y-53791353D01*
X99310514Y-53791353D02*
X99358133Y-53886591D01*
X124456265Y-92186704D02*
X124932455Y-92186704D01*
X124361027Y-92472419D02*
X124694360Y-91472419D01*
X124694360Y-91472419D02*
X125027693Y-92472419D01*
X125361027Y-92472419D02*
X125361027Y-91805752D01*
X125361027Y-91900990D02*
X125408646Y-91853371D01*
X125408646Y-91853371D02*
X125503884Y-91805752D01*
X125503884Y-91805752D02*
X125646741Y-91805752D01*
X125646741Y-91805752D02*
X125741979Y-91853371D01*
X125741979Y-91853371D02*
X125789598Y-91948609D01*
X125789598Y-91948609D02*
X125789598Y-92472419D01*
X125789598Y-91948609D02*
X125837217Y-91853371D01*
X125837217Y-91853371D02*
X125932455Y-91805752D01*
X125932455Y-91805752D02*
X126075312Y-91805752D01*
X126075312Y-91805752D02*
X126170551Y-91853371D01*
X126170551Y-91853371D02*
X126218170Y-91948609D01*
X126218170Y-91948609D02*
X126218170Y-92472419D01*
X126694360Y-91805752D02*
X126694360Y-92805752D01*
X126694360Y-91853371D02*
X126789598Y-91805752D01*
X126789598Y-91805752D02*
X126980074Y-91805752D01*
X126980074Y-91805752D02*
X127075312Y-91853371D01*
X127075312Y-91853371D02*
X127122931Y-91900990D01*
X127122931Y-91900990D02*
X127170550Y-91996228D01*
X127170550Y-91996228D02*
X127170550Y-92281942D01*
X127170550Y-92281942D02*
X127122931Y-92377180D01*
X127122931Y-92377180D02*
X127075312Y-92424800D01*
X127075312Y-92424800D02*
X126980074Y-92472419D01*
X126980074Y-92472419D02*
X126789598Y-92472419D01*
X126789598Y-92472419D02*
X126694360Y-92424800D01*
X127980074Y-92424800D02*
X127884836Y-92472419D01*
X127884836Y-92472419D02*
X127694360Y-92472419D01*
X127694360Y-92472419D02*
X127599122Y-92424800D01*
X127599122Y-92424800D02*
X127551503Y-92329561D01*
X127551503Y-92329561D02*
X127551503Y-91948609D01*
X127551503Y-91948609D02*
X127599122Y-91853371D01*
X127599122Y-91853371D02*
X127694360Y-91805752D01*
X127694360Y-91805752D02*
X127884836Y-91805752D01*
X127884836Y-91805752D02*
X127980074Y-91853371D01*
X127980074Y-91853371D02*
X128027693Y-91948609D01*
X128027693Y-91948609D02*
X128027693Y-92043847D01*
X128027693Y-92043847D02*
X127551503Y-92139085D01*
X128456265Y-92472419D02*
X128456265Y-91805752D01*
X128456265Y-91996228D02*
X128503884Y-91900990D01*
X128503884Y-91900990D02*
X128551503Y-91853371D01*
X128551503Y-91853371D02*
X128646741Y-91805752D01*
X128646741Y-91805752D02*
X128741979Y-91805752D01*
X129456265Y-92424800D02*
X129361027Y-92472419D01*
X129361027Y-92472419D02*
X129170551Y-92472419D01*
X129170551Y-92472419D02*
X129075313Y-92424800D01*
X129075313Y-92424800D02*
X129027694Y-92329561D01*
X129027694Y-92329561D02*
X129027694Y-91948609D01*
X129027694Y-91948609D02*
X129075313Y-91853371D01*
X129075313Y-91853371D02*
X129170551Y-91805752D01*
X129170551Y-91805752D02*
X129361027Y-91805752D01*
X129361027Y-91805752D02*
X129456265Y-91853371D01*
X129456265Y-91853371D02*
X129503884Y-91948609D01*
X129503884Y-91948609D02*
X129503884Y-92043847D01*
X129503884Y-92043847D02*
X129027694Y-92139085D01*
X129884837Y-92424800D02*
X129980075Y-92472419D01*
X129980075Y-92472419D02*
X130170551Y-92472419D01*
X130170551Y-92472419D02*
X130265789Y-92424800D01*
X130265789Y-92424800D02*
X130313408Y-92329561D01*
X130313408Y-92329561D02*
X130313408Y-92281942D01*
X130313408Y-92281942D02*
X130265789Y-92186704D01*
X130265789Y-92186704D02*
X130170551Y-92139085D01*
X130170551Y-92139085D02*
X130027694Y-92139085D01*
X130027694Y-92139085D02*
X129932456Y-92091466D01*
X129932456Y-92091466D02*
X129884837Y-91996228D01*
X129884837Y-91996228D02*
X129884837Y-91948609D01*
X129884837Y-91948609D02*
X129932456Y-91853371D01*
X129932456Y-91853371D02*
X130027694Y-91805752D01*
X130027694Y-91805752D02*
X130170551Y-91805752D01*
X130170551Y-91805752D02*
X130265789Y-91853371D01*
X130741980Y-92091466D02*
X131503885Y-92091466D01*
X124456265Y-64586704D02*
X124932455Y-64586704D01*
X124361027Y-64872419D02*
X124694360Y-63872419D01*
X124694360Y-63872419D02*
X125027693Y-64872419D01*
X125361027Y-64872419D02*
X125361027Y-64205752D01*
X125361027Y-64300990D02*
X125408646Y-64253371D01*
X125408646Y-64253371D02*
X125503884Y-64205752D01*
X125503884Y-64205752D02*
X125646741Y-64205752D01*
X125646741Y-64205752D02*
X125741979Y-64253371D01*
X125741979Y-64253371D02*
X125789598Y-64348609D01*
X125789598Y-64348609D02*
X125789598Y-64872419D01*
X125789598Y-64348609D02*
X125837217Y-64253371D01*
X125837217Y-64253371D02*
X125932455Y-64205752D01*
X125932455Y-64205752D02*
X126075312Y-64205752D01*
X126075312Y-64205752D02*
X126170551Y-64253371D01*
X126170551Y-64253371D02*
X126218170Y-64348609D01*
X126218170Y-64348609D02*
X126218170Y-64872419D01*
X126694360Y-64205752D02*
X126694360Y-65205752D01*
X126694360Y-64253371D02*
X126789598Y-64205752D01*
X126789598Y-64205752D02*
X126980074Y-64205752D01*
X126980074Y-64205752D02*
X127075312Y-64253371D01*
X127075312Y-64253371D02*
X127122931Y-64300990D01*
X127122931Y-64300990D02*
X127170550Y-64396228D01*
X127170550Y-64396228D02*
X127170550Y-64681942D01*
X127170550Y-64681942D02*
X127122931Y-64777180D01*
X127122931Y-64777180D02*
X127075312Y-64824800D01*
X127075312Y-64824800D02*
X126980074Y-64872419D01*
X126980074Y-64872419D02*
X126789598Y-64872419D01*
X126789598Y-64872419D02*
X126694360Y-64824800D01*
X127980074Y-64824800D02*
X127884836Y-64872419D01*
X127884836Y-64872419D02*
X127694360Y-64872419D01*
X127694360Y-64872419D02*
X127599122Y-64824800D01*
X127599122Y-64824800D02*
X127551503Y-64729561D01*
X127551503Y-64729561D02*
X127551503Y-64348609D01*
X127551503Y-64348609D02*
X127599122Y-64253371D01*
X127599122Y-64253371D02*
X127694360Y-64205752D01*
X127694360Y-64205752D02*
X127884836Y-64205752D01*
X127884836Y-64205752D02*
X127980074Y-64253371D01*
X127980074Y-64253371D02*
X128027693Y-64348609D01*
X128027693Y-64348609D02*
X128027693Y-64443847D01*
X128027693Y-64443847D02*
X127551503Y-64539085D01*
X128456265Y-64872419D02*
X128456265Y-64205752D01*
X128456265Y-64396228D02*
X128503884Y-64300990D01*
X128503884Y-64300990D02*
X128551503Y-64253371D01*
X128551503Y-64253371D02*
X128646741Y-64205752D01*
X128646741Y-64205752D02*
X128741979Y-64205752D01*
X129456265Y-64824800D02*
X129361027Y-64872419D01*
X129361027Y-64872419D02*
X129170551Y-64872419D01*
X129170551Y-64872419D02*
X129075313Y-64824800D01*
X129075313Y-64824800D02*
X129027694Y-64729561D01*
X129027694Y-64729561D02*
X129027694Y-64348609D01*
X129027694Y-64348609D02*
X129075313Y-64253371D01*
X129075313Y-64253371D02*
X129170551Y-64205752D01*
X129170551Y-64205752D02*
X129361027Y-64205752D01*
X129361027Y-64205752D02*
X129456265Y-64253371D01*
X129456265Y-64253371D02*
X129503884Y-64348609D01*
X129503884Y-64348609D02*
X129503884Y-64443847D01*
X129503884Y-64443847D02*
X129027694Y-64539085D01*
X129884837Y-64824800D02*
X129980075Y-64872419D01*
X129980075Y-64872419D02*
X130170551Y-64872419D01*
X130170551Y-64872419D02*
X130265789Y-64824800D01*
X130265789Y-64824800D02*
X130313408Y-64729561D01*
X130313408Y-64729561D02*
X130313408Y-64681942D01*
X130313408Y-64681942D02*
X130265789Y-64586704D01*
X130265789Y-64586704D02*
X130170551Y-64539085D01*
X130170551Y-64539085D02*
X130027694Y-64539085D01*
X130027694Y-64539085D02*
X129932456Y-64491466D01*
X129932456Y-64491466D02*
X129884837Y-64396228D01*
X129884837Y-64396228D02*
X129884837Y-64348609D01*
X129884837Y-64348609D02*
X129932456Y-64253371D01*
X129932456Y-64253371D02*
X130027694Y-64205752D01*
X130027694Y-64205752D02*
X130170551Y-64205752D01*
X130170551Y-64205752D02*
X130265789Y-64253371D01*
X130741980Y-64491466D02*
X131503885Y-64491466D01*
X131122932Y-64872419D02*
X131122932Y-64110514D01*
X102811466Y-60796115D02*
X102811466Y-60034211D01*
X114748609Y-73162782D02*
X114796228Y-73019925D01*
X114796228Y-73019925D02*
X114843847Y-72972306D01*
X114843847Y-72972306D02*
X114939085Y-72924687D01*
X114939085Y-72924687D02*
X115081942Y-72924687D01*
X115081942Y-72924687D02*
X115177180Y-72972306D01*
X115177180Y-72972306D02*
X115224800Y-73019925D01*
X115224800Y-73019925D02*
X115272419Y-73115163D01*
X115272419Y-73115163D02*
X115272419Y-73496115D01*
X115272419Y-73496115D02*
X114272419Y-73496115D01*
X114272419Y-73496115D02*
X114272419Y-73162782D01*
X114272419Y-73162782D02*
X114320038Y-73067544D01*
X114320038Y-73067544D02*
X114367657Y-73019925D01*
X114367657Y-73019925D02*
X114462895Y-72972306D01*
X114462895Y-72972306D02*
X114558133Y-72972306D01*
X114558133Y-72972306D02*
X114653371Y-73019925D01*
X114653371Y-73019925D02*
X114700990Y-73067544D01*
X114700990Y-73067544D02*
X114748609Y-73162782D01*
X114748609Y-73162782D02*
X114748609Y-73496115D01*
X114986704Y-72543734D02*
X114986704Y-72067544D01*
X115272419Y-72638972D02*
X114272419Y-72305639D01*
X114272419Y-72305639D02*
X115272419Y-71972306D01*
X114272419Y-71781829D02*
X114272419Y-71210401D01*
X115272419Y-71496115D02*
X114272419Y-71496115D01*
X114272419Y-71019924D02*
X114272419Y-70448496D01*
X115272419Y-70734210D02*
X114272419Y-70734210D01*
X114272419Y-69496114D02*
X114272419Y-68924686D01*
X115272419Y-69210400D02*
X114272419Y-69210400D01*
X114748609Y-68591352D02*
X114748609Y-68258019D01*
X115272419Y-68115162D02*
X115272419Y-68591352D01*
X115272419Y-68591352D02*
X114272419Y-68591352D01*
X114272419Y-68591352D02*
X114272419Y-68115162D01*
X115272419Y-67686590D02*
X114272419Y-67686590D01*
X114272419Y-67686590D02*
X114986704Y-67353257D01*
X114986704Y-67353257D02*
X114272419Y-67019924D01*
X114272419Y-67019924D02*
X115272419Y-67019924D01*
X115272419Y-66543733D02*
X114272419Y-66543733D01*
X114272419Y-66543733D02*
X114272419Y-66162781D01*
X114272419Y-66162781D02*
X114320038Y-66067543D01*
X114320038Y-66067543D02*
X114367657Y-66019924D01*
X114367657Y-66019924D02*
X114462895Y-65972305D01*
X114462895Y-65972305D02*
X114605752Y-65972305D01*
X114605752Y-65972305D02*
X114700990Y-66019924D01*
X114700990Y-66019924D02*
X114748609Y-66067543D01*
X114748609Y-66067543D02*
X114796228Y-66162781D01*
X114796228Y-66162781D02*
X114796228Y-66543733D01*
X115224800Y-64781828D02*
X115272419Y-64781828D01*
X115129561Y-64734209D02*
X115272419Y-64734209D01*
X115034323Y-64686590D02*
X115272419Y-64686590D01*
X114939085Y-64638971D02*
X115272419Y-64638971D01*
X114891466Y-64591352D02*
X115272419Y-64591352D01*
X114796228Y-64543733D02*
X115272419Y-64543733D01*
X114700990Y-64496114D02*
X115272419Y-64496114D01*
X114605752Y-64448495D02*
X115272419Y-64448495D01*
X114510514Y-64400876D02*
X115272419Y-64400876D01*
X114605752Y-64353257D02*
X115272419Y-64353257D01*
X114700990Y-64305638D02*
X115272419Y-64305638D01*
X114796228Y-64258019D02*
X115272419Y-64258019D01*
X114891466Y-64210400D02*
X115272419Y-64210400D01*
X114939085Y-64162781D02*
X115272419Y-64162781D01*
X115034323Y-64115162D02*
X115272419Y-64115162D01*
X115129561Y-64067543D02*
X115272419Y-64067543D01*
X115272419Y-64019924D02*
X114558133Y-64400876D01*
X114558133Y-64400876D02*
X115272419Y-64781828D01*
X115224800Y-64019924D02*
X115272419Y-64019924D01*
X114510514Y-64400876D02*
X115272419Y-63972304D01*
X115272419Y-63972304D02*
X115272419Y-64829447D01*
X115272419Y-64829447D02*
X114510514Y-64400876D01*
X113638533Y-53043884D02*
X113638533Y-53805789D01*
X113588533Y-103013884D02*
X113588533Y-103775789D01*
X106002419Y-96656115D02*
X105002419Y-96656115D01*
X105335752Y-96179925D02*
X106002419Y-96179925D01*
X105430990Y-96179925D02*
X105383371Y-96132306D01*
X105383371Y-96132306D02*
X105335752Y-96037068D01*
X105335752Y-96037068D02*
X105335752Y-95894211D01*
X105335752Y-95894211D02*
X105383371Y-95798973D01*
X105383371Y-95798973D02*
X105478609Y-95751354D01*
X105478609Y-95751354D02*
X106002419Y-95751354D01*
X126637217Y-77538665D02*
X126780074Y-77586284D01*
X126780074Y-77586284D02*
X126827693Y-77633903D01*
X126827693Y-77633903D02*
X126875312Y-77729141D01*
X126875312Y-77729141D02*
X126875312Y-77871998D01*
X126875312Y-77871998D02*
X126827693Y-77967236D01*
X126827693Y-77967236D02*
X126780074Y-78014856D01*
X126780074Y-78014856D02*
X126684836Y-78062475D01*
X126684836Y-78062475D02*
X126303884Y-78062475D01*
X126303884Y-78062475D02*
X126303884Y-77062475D01*
X126303884Y-77062475D02*
X126637217Y-77062475D01*
X126637217Y-77062475D02*
X126732455Y-77110094D01*
X126732455Y-77110094D02*
X126780074Y-77157713D01*
X126780074Y-77157713D02*
X126827693Y-77252951D01*
X126827693Y-77252951D02*
X126827693Y-77348189D01*
X126827693Y-77348189D02*
X126780074Y-77443427D01*
X126780074Y-77443427D02*
X126732455Y-77491046D01*
X126732455Y-77491046D02*
X126637217Y-77538665D01*
X126637217Y-77538665D02*
X126303884Y-77538665D01*
X127303884Y-78062475D02*
X127303884Y-77062475D01*
X127303884Y-77062475D02*
X127684836Y-77062475D01*
X127684836Y-77062475D02*
X127780074Y-77110094D01*
X127780074Y-77110094D02*
X127827693Y-77157713D01*
X127827693Y-77157713D02*
X127875312Y-77252951D01*
X127875312Y-77252951D02*
X127875312Y-77395808D01*
X127875312Y-77395808D02*
X127827693Y-77491046D01*
X127827693Y-77491046D02*
X127780074Y-77538665D01*
X127780074Y-77538665D02*
X127684836Y-77586284D01*
X127684836Y-77586284D02*
X127303884Y-77586284D01*
X128256265Y-78014856D02*
X128399122Y-78062475D01*
X128399122Y-78062475D02*
X128637217Y-78062475D01*
X128637217Y-78062475D02*
X128732455Y-78014856D01*
X128732455Y-78014856D02*
X128780074Y-77967236D01*
X128780074Y-77967236D02*
X128827693Y-77871998D01*
X128827693Y-77871998D02*
X128827693Y-77776760D01*
X128827693Y-77776760D02*
X128780074Y-77681522D01*
X128780074Y-77681522D02*
X128732455Y-77633903D01*
X128732455Y-77633903D02*
X128637217Y-77586284D01*
X128637217Y-77586284D02*
X128446741Y-77538665D01*
X128446741Y-77538665D02*
X128351503Y-77491046D01*
X128351503Y-77491046D02*
X128303884Y-77443427D01*
X128303884Y-77443427D02*
X128256265Y-77348189D01*
X128256265Y-77348189D02*
X128256265Y-77252951D01*
X128256265Y-77252951D02*
X128303884Y-77157713D01*
X128303884Y-77157713D02*
X128351503Y-77110094D01*
X128351503Y-77110094D02*
X128446741Y-77062475D01*
X128446741Y-77062475D02*
X128684836Y-77062475D01*
X128684836Y-77062475D02*
X128827693Y-77110094D01*
X129970551Y-78014856D02*
X130113408Y-78062475D01*
X130113408Y-78062475D02*
X130351503Y-78062475D01*
X130351503Y-78062475D02*
X130446741Y-78014856D01*
X130446741Y-78014856D02*
X130494360Y-77967236D01*
X130494360Y-77967236D02*
X130541979Y-77871998D01*
X130541979Y-77871998D02*
X130541979Y-77776760D01*
X130541979Y-77776760D02*
X130494360Y-77681522D01*
X130494360Y-77681522D02*
X130446741Y-77633903D01*
X130446741Y-77633903D02*
X130351503Y-77586284D01*
X130351503Y-77586284D02*
X130161027Y-77538665D01*
X130161027Y-77538665D02*
X130065789Y-77491046D01*
X130065789Y-77491046D02*
X130018170Y-77443427D01*
X130018170Y-77443427D02*
X129970551Y-77348189D01*
X129970551Y-77348189D02*
X129970551Y-77252951D01*
X129970551Y-77252951D02*
X130018170Y-77157713D01*
X130018170Y-77157713D02*
X130065789Y-77110094D01*
X130065789Y-77110094D02*
X130161027Y-77062475D01*
X130161027Y-77062475D02*
X130399122Y-77062475D01*
X130399122Y-77062475D02*
X130541979Y-77110094D01*
X131399122Y-78014856D02*
X131303884Y-78062475D01*
X131303884Y-78062475D02*
X131113408Y-78062475D01*
X131113408Y-78062475D02*
X131018170Y-78014856D01*
X131018170Y-78014856D02*
X130970551Y-77967236D01*
X130970551Y-77967236D02*
X130922932Y-77871998D01*
X130922932Y-77871998D02*
X130922932Y-77586284D01*
X130922932Y-77586284D02*
X130970551Y-77491046D01*
X130970551Y-77491046D02*
X131018170Y-77443427D01*
X131018170Y-77443427D02*
X131113408Y-77395808D01*
X131113408Y-77395808D02*
X131303884Y-77395808D01*
X131303884Y-77395808D02*
X131399122Y-77443427D01*
X131827694Y-78062475D02*
X131827694Y-77395808D01*
X131827694Y-77586284D02*
X131875313Y-77491046D01*
X131875313Y-77491046D02*
X131922932Y-77443427D01*
X131922932Y-77443427D02*
X132018170Y-77395808D01*
X132018170Y-77395808D02*
X132113408Y-77395808D01*
X132875313Y-77395808D02*
X132875313Y-78062475D01*
X132446742Y-77395808D02*
X132446742Y-77919617D01*
X132446742Y-77919617D02*
X132494361Y-78014856D01*
X132494361Y-78014856D02*
X132589599Y-78062475D01*
X132589599Y-78062475D02*
X132732456Y-78062475D01*
X132732456Y-78062475D02*
X132827694Y-78014856D01*
X132827694Y-78014856D02*
X132875313Y-77967236D01*
X133208647Y-77395808D02*
X133589599Y-77395808D01*
X133351504Y-77062475D02*
X133351504Y-77919617D01*
X133351504Y-77919617D02*
X133399123Y-78014856D01*
X133399123Y-78014856D02*
X133494361Y-78062475D01*
X133494361Y-78062475D02*
X133589599Y-78062475D01*
X133922933Y-78062475D02*
X133922933Y-77395808D01*
X133922933Y-77062475D02*
X133875314Y-77110094D01*
X133875314Y-77110094D02*
X133922933Y-77157713D01*
X133922933Y-77157713D02*
X133970552Y-77110094D01*
X133970552Y-77110094D02*
X133922933Y-77062475D01*
X133922933Y-77062475D02*
X133922933Y-77157713D01*
X134399123Y-77395808D02*
X134399123Y-78062475D01*
X134399123Y-77491046D02*
X134446742Y-77443427D01*
X134446742Y-77443427D02*
X134541980Y-77395808D01*
X134541980Y-77395808D02*
X134684837Y-77395808D01*
X134684837Y-77395808D02*
X134780075Y-77443427D01*
X134780075Y-77443427D02*
X134827694Y-77538665D01*
X134827694Y-77538665D02*
X134827694Y-78062475D01*
X135684837Y-78014856D02*
X135589599Y-78062475D01*
X135589599Y-78062475D02*
X135399123Y-78062475D01*
X135399123Y-78062475D02*
X135303885Y-78014856D01*
X135303885Y-78014856D02*
X135256266Y-77919617D01*
X135256266Y-77919617D02*
X135256266Y-77538665D01*
X135256266Y-77538665D02*
X135303885Y-77443427D01*
X135303885Y-77443427D02*
X135399123Y-77395808D01*
X135399123Y-77395808D02*
X135589599Y-77395808D01*
X135589599Y-77395808D02*
X135684837Y-77443427D01*
X135684837Y-77443427D02*
X135732456Y-77538665D01*
X135732456Y-77538665D02*
X135732456Y-77633903D01*
X135732456Y-77633903D02*
X135256266Y-77729141D01*
X136541980Y-78014856D02*
X136446742Y-78062475D01*
X136446742Y-78062475D02*
X136256266Y-78062475D01*
X136256266Y-78062475D02*
X136161028Y-78014856D01*
X136161028Y-78014856D02*
X136113409Y-77919617D01*
X136113409Y-77919617D02*
X136113409Y-77538665D01*
X136113409Y-77538665D02*
X136161028Y-77443427D01*
X136161028Y-77443427D02*
X136256266Y-77395808D01*
X136256266Y-77395808D02*
X136446742Y-77395808D01*
X136446742Y-77395808D02*
X136541980Y-77443427D01*
X136541980Y-77443427D02*
X136589599Y-77538665D01*
X136589599Y-77538665D02*
X136589599Y-77633903D01*
X136589599Y-77633903D02*
X136113409Y-77729141D01*
X137018171Y-78062475D02*
X137018171Y-77395808D01*
X137018171Y-77586284D02*
X137065790Y-77491046D01*
X137065790Y-77491046D02*
X137113409Y-77443427D01*
X137113409Y-77443427D02*
X137208647Y-77395808D01*
X137208647Y-77395808D02*
X137303885Y-77395808D01*
X137637219Y-78062475D02*
X137637219Y-77395808D01*
X137637219Y-77062475D02*
X137589600Y-77110094D01*
X137589600Y-77110094D02*
X137637219Y-77157713D01*
X137637219Y-77157713D02*
X137684838Y-77110094D01*
X137684838Y-77110094D02*
X137637219Y-77062475D01*
X137637219Y-77062475D02*
X137637219Y-77157713D01*
X138113409Y-77395808D02*
X138113409Y-78062475D01*
X138113409Y-77491046D02*
X138161028Y-77443427D01*
X138161028Y-77443427D02*
X138256266Y-77395808D01*
X138256266Y-77395808D02*
X138399123Y-77395808D01*
X138399123Y-77395808D02*
X138494361Y-77443427D01*
X138494361Y-77443427D02*
X138541980Y-77538665D01*
X138541980Y-77538665D02*
X138541980Y-78062475D01*
X139446742Y-77395808D02*
X139446742Y-78205332D01*
X139446742Y-78205332D02*
X139399123Y-78300570D01*
X139399123Y-78300570D02*
X139351504Y-78348189D01*
X139351504Y-78348189D02*
X139256266Y-78395808D01*
X139256266Y-78395808D02*
X139113409Y-78395808D01*
X139113409Y-78395808D02*
X139018171Y-78348189D01*
X139446742Y-78014856D02*
X139351504Y-78062475D01*
X139351504Y-78062475D02*
X139161028Y-78062475D01*
X139161028Y-78062475D02*
X139065790Y-78014856D01*
X139065790Y-78014856D02*
X139018171Y-77967236D01*
X139018171Y-77967236D02*
X138970552Y-77871998D01*
X138970552Y-77871998D02*
X138970552Y-77586284D01*
X138970552Y-77586284D02*
X139018171Y-77491046D01*
X139018171Y-77491046D02*
X139065790Y-77443427D01*
X139065790Y-77443427D02*
X139161028Y-77395808D01*
X139161028Y-77395808D02*
X139351504Y-77395808D01*
X139351504Y-77395808D02*
X139446742Y-77443427D01*
X126303884Y-79672419D02*
X126303884Y-78672419D01*
X126303884Y-78672419D02*
X126541979Y-78672419D01*
X126541979Y-78672419D02*
X126684836Y-78720038D01*
X126684836Y-78720038D02*
X126780074Y-78815276D01*
X126780074Y-78815276D02*
X126827693Y-78910514D01*
X126827693Y-78910514D02*
X126875312Y-79100990D01*
X126875312Y-79100990D02*
X126875312Y-79243847D01*
X126875312Y-79243847D02*
X126827693Y-79434323D01*
X126827693Y-79434323D02*
X126780074Y-79529561D01*
X126780074Y-79529561D02*
X126684836Y-79624800D01*
X126684836Y-79624800D02*
X126541979Y-79672419D01*
X126541979Y-79672419D02*
X126303884Y-79672419D01*
X127684836Y-79624800D02*
X127589598Y-79672419D01*
X127589598Y-79672419D02*
X127399122Y-79672419D01*
X127399122Y-79672419D02*
X127303884Y-79624800D01*
X127303884Y-79624800D02*
X127256265Y-79529561D01*
X127256265Y-79529561D02*
X127256265Y-79148609D01*
X127256265Y-79148609D02*
X127303884Y-79053371D01*
X127303884Y-79053371D02*
X127399122Y-79005752D01*
X127399122Y-79005752D02*
X127589598Y-79005752D01*
X127589598Y-79005752D02*
X127684836Y-79053371D01*
X127684836Y-79053371D02*
X127732455Y-79148609D01*
X127732455Y-79148609D02*
X127732455Y-79243847D01*
X127732455Y-79243847D02*
X127256265Y-79339085D01*
X128589598Y-79624800D02*
X128494360Y-79672419D01*
X128494360Y-79672419D02*
X128303884Y-79672419D01*
X128303884Y-79672419D02*
X128208646Y-79624800D01*
X128208646Y-79624800D02*
X128161027Y-79577180D01*
X128161027Y-79577180D02*
X128113408Y-79481942D01*
X128113408Y-79481942D02*
X128113408Y-79196228D01*
X128113408Y-79196228D02*
X128161027Y-79100990D01*
X128161027Y-79100990D02*
X128208646Y-79053371D01*
X128208646Y-79053371D02*
X128303884Y-79005752D01*
X128303884Y-79005752D02*
X128494360Y-79005752D01*
X128494360Y-79005752D02*
X128589598Y-79053371D01*
X129399122Y-79624800D02*
X129303884Y-79672419D01*
X129303884Y-79672419D02*
X129113408Y-79672419D01*
X129113408Y-79672419D02*
X129018170Y-79624800D01*
X129018170Y-79624800D02*
X128970551Y-79529561D01*
X128970551Y-79529561D02*
X128970551Y-79148609D01*
X128970551Y-79148609D02*
X129018170Y-79053371D01*
X129018170Y-79053371D02*
X129113408Y-79005752D01*
X129113408Y-79005752D02*
X129303884Y-79005752D01*
X129303884Y-79005752D02*
X129399122Y-79053371D01*
X129399122Y-79053371D02*
X129446741Y-79148609D01*
X129446741Y-79148609D02*
X129446741Y-79243847D01*
X129446741Y-79243847D02*
X128970551Y-79339085D01*
X129875313Y-79672419D02*
X129875313Y-79005752D01*
X129875313Y-79100990D02*
X129922932Y-79053371D01*
X129922932Y-79053371D02*
X130018170Y-79005752D01*
X130018170Y-79005752D02*
X130161027Y-79005752D01*
X130161027Y-79005752D02*
X130256265Y-79053371D01*
X130256265Y-79053371D02*
X130303884Y-79148609D01*
X130303884Y-79148609D02*
X130303884Y-79672419D01*
X130303884Y-79148609D02*
X130351503Y-79053371D01*
X130351503Y-79053371D02*
X130446741Y-79005752D01*
X130446741Y-79005752D02*
X130589598Y-79005752D01*
X130589598Y-79005752D02*
X130684837Y-79053371D01*
X130684837Y-79053371D02*
X130732456Y-79148609D01*
X130732456Y-79148609D02*
X130732456Y-79672419D01*
X131208646Y-79672419D02*
X131208646Y-78672419D01*
X131208646Y-79053371D02*
X131303884Y-79005752D01*
X131303884Y-79005752D02*
X131494360Y-79005752D01*
X131494360Y-79005752D02*
X131589598Y-79053371D01*
X131589598Y-79053371D02*
X131637217Y-79100990D01*
X131637217Y-79100990D02*
X131684836Y-79196228D01*
X131684836Y-79196228D02*
X131684836Y-79481942D01*
X131684836Y-79481942D02*
X131637217Y-79577180D01*
X131637217Y-79577180D02*
X131589598Y-79624800D01*
X131589598Y-79624800D02*
X131494360Y-79672419D01*
X131494360Y-79672419D02*
X131303884Y-79672419D01*
X131303884Y-79672419D02*
X131208646Y-79624800D01*
X132494360Y-79624800D02*
X132399122Y-79672419D01*
X132399122Y-79672419D02*
X132208646Y-79672419D01*
X132208646Y-79672419D02*
X132113408Y-79624800D01*
X132113408Y-79624800D02*
X132065789Y-79529561D01*
X132065789Y-79529561D02*
X132065789Y-79148609D01*
X132065789Y-79148609D02*
X132113408Y-79053371D01*
X132113408Y-79053371D02*
X132208646Y-79005752D01*
X132208646Y-79005752D02*
X132399122Y-79005752D01*
X132399122Y-79005752D02*
X132494360Y-79053371D01*
X132494360Y-79053371D02*
X132541979Y-79148609D01*
X132541979Y-79148609D02*
X132541979Y-79243847D01*
X132541979Y-79243847D02*
X132065789Y-79339085D01*
X132970551Y-79672419D02*
X132970551Y-79005752D01*
X132970551Y-79196228D02*
X133018170Y-79100990D01*
X133018170Y-79100990D02*
X133065789Y-79053371D01*
X133065789Y-79053371D02*
X133161027Y-79005752D01*
X133161027Y-79005752D02*
X133256265Y-79005752D01*
X134303885Y-78767657D02*
X134351504Y-78720038D01*
X134351504Y-78720038D02*
X134446742Y-78672419D01*
X134446742Y-78672419D02*
X134684837Y-78672419D01*
X134684837Y-78672419D02*
X134780075Y-78720038D01*
X134780075Y-78720038D02*
X134827694Y-78767657D01*
X134827694Y-78767657D02*
X134875313Y-78862895D01*
X134875313Y-78862895D02*
X134875313Y-78958133D01*
X134875313Y-78958133D02*
X134827694Y-79100990D01*
X134827694Y-79100990D02*
X134256266Y-79672419D01*
X134256266Y-79672419D02*
X134875313Y-79672419D01*
X135494361Y-78672419D02*
X135589599Y-78672419D01*
X135589599Y-78672419D02*
X135684837Y-78720038D01*
X135684837Y-78720038D02*
X135732456Y-78767657D01*
X135732456Y-78767657D02*
X135780075Y-78862895D01*
X135780075Y-78862895D02*
X135827694Y-79053371D01*
X135827694Y-79053371D02*
X135827694Y-79291466D01*
X135827694Y-79291466D02*
X135780075Y-79481942D01*
X135780075Y-79481942D02*
X135732456Y-79577180D01*
X135732456Y-79577180D02*
X135684837Y-79624800D01*
X135684837Y-79624800D02*
X135589599Y-79672419D01*
X135589599Y-79672419D02*
X135494361Y-79672419D01*
X135494361Y-79672419D02*
X135399123Y-79624800D01*
X135399123Y-79624800D02*
X135351504Y-79577180D01*
X135351504Y-79577180D02*
X135303885Y-79481942D01*
X135303885Y-79481942D02*
X135256266Y-79291466D01*
X135256266Y-79291466D02*
X135256266Y-79053371D01*
X135256266Y-79053371D02*
X135303885Y-78862895D01*
X135303885Y-78862895D02*
X135351504Y-78767657D01*
X135351504Y-78767657D02*
X135399123Y-78720038D01*
X135399123Y-78720038D02*
X135494361Y-78672419D01*
X136208647Y-78767657D02*
X136256266Y-78720038D01*
X136256266Y-78720038D02*
X136351504Y-78672419D01*
X136351504Y-78672419D02*
X136589599Y-78672419D01*
X136589599Y-78672419D02*
X136684837Y-78720038D01*
X136684837Y-78720038D02*
X136732456Y-78767657D01*
X136732456Y-78767657D02*
X136780075Y-78862895D01*
X136780075Y-78862895D02*
X136780075Y-78958133D01*
X136780075Y-78958133D02*
X136732456Y-79100990D01*
X136732456Y-79100990D02*
X136161028Y-79672419D01*
X136161028Y-79672419D02*
X136780075Y-79672419D01*
X137684837Y-78672419D02*
X137208647Y-78672419D01*
X137208647Y-78672419D02*
X137161028Y-79148609D01*
X137161028Y-79148609D02*
X137208647Y-79100990D01*
X137208647Y-79100990D02*
X137303885Y-79053371D01*
X137303885Y-79053371D02*
X137541980Y-79053371D01*
X137541980Y-79053371D02*
X137637218Y-79100990D01*
X137637218Y-79100990D02*
X137684837Y-79148609D01*
X137684837Y-79148609D02*
X137732456Y-79243847D01*
X137732456Y-79243847D02*
X137732456Y-79481942D01*
X137732456Y-79481942D02*
X137684837Y-79577180D01*
X137684837Y-79577180D02*
X137637218Y-79624800D01*
X137637218Y-79624800D02*
X137541980Y-79672419D01*
X137541980Y-79672419D02*
X137303885Y-79672419D01*
X137303885Y-79672419D02*
X137208647Y-79624800D01*
X137208647Y-79624800D02*
X137161028Y-79577180D01*
X91900074Y-88111466D02*
X92661979Y-88111466D01*
X93852454Y-87444800D02*
X92995312Y-88730514D01*
X94709597Y-87540038D02*
X94614359Y-87492419D01*
X94614359Y-87492419D02*
X94471502Y-87492419D01*
X94471502Y-87492419D02*
X94328645Y-87540038D01*
X94328645Y-87540038D02*
X94233407Y-87635276D01*
X94233407Y-87635276D02*
X94185788Y-87730514D01*
X94185788Y-87730514D02*
X94138169Y-87920990D01*
X94138169Y-87920990D02*
X94138169Y-88063847D01*
X94138169Y-88063847D02*
X94185788Y-88254323D01*
X94185788Y-88254323D02*
X94233407Y-88349561D01*
X94233407Y-88349561D02*
X94328645Y-88444800D01*
X94328645Y-88444800D02*
X94471502Y-88492419D01*
X94471502Y-88492419D02*
X94566740Y-88492419D01*
X94566740Y-88492419D02*
X94709597Y-88444800D01*
X94709597Y-88444800D02*
X94757216Y-88397180D01*
X94757216Y-88397180D02*
X94757216Y-88063847D01*
X94757216Y-88063847D02*
X94566740Y-88063847D01*
X95185788Y-88492419D02*
X95185788Y-87492419D01*
X95185788Y-87492419D02*
X95757216Y-88492419D01*
X95757216Y-88492419D02*
X95757216Y-87492419D01*
X96233407Y-88492419D02*
X96233407Y-87492419D01*
X96233407Y-87492419D02*
X96471502Y-87492419D01*
X96471502Y-87492419D02*
X96614359Y-87540038D01*
X96614359Y-87540038D02*
X96709597Y-87635276D01*
X96709597Y-87635276D02*
X96757216Y-87730514D01*
X96757216Y-87730514D02*
X96804835Y-87920990D01*
X96804835Y-87920990D02*
X96804835Y-88063847D01*
X96804835Y-88063847D02*
X96757216Y-88254323D01*
X96757216Y-88254323D02*
X96709597Y-88349561D01*
X96709597Y-88349561D02*
X96614359Y-88444800D01*
X96614359Y-88444800D02*
X96471502Y-88492419D01*
X96471502Y-88492419D02*
X96233407Y-88492419D01*
X116138533Y-53043884D02*
X116138533Y-53805789D01*
X115757580Y-53424836D02*
X116519485Y-53424836D01*
X92198571Y-90442419D02*
X92769999Y-90442419D01*
X92484285Y-91442419D02*
X92484285Y-90442419D01*
X93103333Y-90918609D02*
X93436666Y-90918609D01*
X93579523Y-91442419D02*
X93103333Y-91442419D01*
X93103333Y-91442419D02*
X93103333Y-90442419D01*
X93103333Y-90442419D02*
X93579523Y-90442419D01*
X94008095Y-91442419D02*
X94008095Y-90442419D01*
X94008095Y-90442419D02*
X94341428Y-91156704D01*
X94341428Y-91156704D02*
X94674761Y-90442419D01*
X94674761Y-90442419D02*
X94674761Y-91442419D01*
X95150952Y-91442419D02*
X95150952Y-90442419D01*
X95150952Y-90442419D02*
X95531904Y-90442419D01*
X95531904Y-90442419D02*
X95627142Y-90490038D01*
X95627142Y-90490038D02*
X95674761Y-90537657D01*
X95674761Y-90537657D02*
X95722380Y-90632895D01*
X95722380Y-90632895D02*
X95722380Y-90775752D01*
X95722380Y-90775752D02*
X95674761Y-90870990D01*
X95674761Y-90870990D02*
X95627142Y-90918609D01*
X95627142Y-90918609D02*
X95531904Y-90966228D01*
X95531904Y-90966228D02*
X95150952Y-90966228D01*
X96865237Y-90394800D02*
X96008095Y-91680514D01*
X97055714Y-90442419D02*
X97389047Y-91442419D01*
X97389047Y-91442419D02*
X97722380Y-90442419D01*
X98246190Y-90442419D02*
X98436666Y-90442419D01*
X98436666Y-90442419D02*
X98531904Y-90490038D01*
X98531904Y-90490038D02*
X98627142Y-90585276D01*
X98627142Y-90585276D02*
X98674761Y-90775752D01*
X98674761Y-90775752D02*
X98674761Y-91109085D01*
X98674761Y-91109085D02*
X98627142Y-91299561D01*
X98627142Y-91299561D02*
X98531904Y-91394800D01*
X98531904Y-91394800D02*
X98436666Y-91442419D01*
X98436666Y-91442419D02*
X98246190Y-91442419D01*
X98246190Y-91442419D02*
X98150952Y-91394800D01*
X98150952Y-91394800D02*
X98055714Y-91299561D01*
X98055714Y-91299561D02*
X98008095Y-91109085D01*
X98008095Y-91109085D02*
X98008095Y-90775752D01*
X98008095Y-90775752D02*
X98055714Y-90585276D01*
X98055714Y-90585276D02*
X98150952Y-90490038D01*
X98150952Y-90490038D02*
X98246190Y-90442419D01*
X99579523Y-91442419D02*
X99103333Y-91442419D01*
X99103333Y-91442419D02*
X99103333Y-90442419D01*
X99770000Y-90442419D02*
X100341428Y-90442419D01*
X100055714Y-91442419D02*
X100055714Y-90442419D01*
X113653884Y-77674800D02*
X113653884Y-77722419D01*
X113701503Y-77579561D02*
X113701503Y-77722419D01*
X113749122Y-77484323D02*
X113749122Y-77722419D01*
X113796741Y-77389085D02*
X113796741Y-77722419D01*
X113844360Y-77341466D02*
X113844360Y-77722419D01*
X113891979Y-77246228D02*
X113891979Y-77722419D01*
X113939598Y-77150990D02*
X113939598Y-77722419D01*
X113987217Y-77055752D02*
X113987217Y-77722419D01*
X114034836Y-76960514D02*
X114034836Y-77722419D01*
X114082455Y-77055752D02*
X114082455Y-77722419D01*
X114130074Y-77150990D02*
X114130074Y-77722419D01*
X114177693Y-77246228D02*
X114177693Y-77722419D01*
X114225312Y-77341466D02*
X114225312Y-77722419D01*
X114272931Y-77389085D02*
X114272931Y-77722419D01*
X114320550Y-77484323D02*
X114320550Y-77722419D01*
X114368169Y-77579561D02*
X114368169Y-77722419D01*
X114415789Y-77722419D02*
X114034836Y-77008133D01*
X114034836Y-77008133D02*
X113653884Y-77722419D01*
X114415789Y-77674800D02*
X114415789Y-77722419D01*
X114034836Y-76960514D02*
X114463408Y-77722419D01*
X114463408Y-77722419D02*
X113606265Y-77722419D01*
X113606265Y-77722419D02*
X114034836Y-76960514D01*
X115987217Y-77198609D02*
X116130074Y-77246228D01*
X116130074Y-77246228D02*
X116177693Y-77293847D01*
X116177693Y-77293847D02*
X116225312Y-77389085D01*
X116225312Y-77389085D02*
X116225312Y-77531942D01*
X116225312Y-77531942D02*
X116177693Y-77627180D01*
X116177693Y-77627180D02*
X116130074Y-77674800D01*
X116130074Y-77674800D02*
X116034836Y-77722419D01*
X116034836Y-77722419D02*
X115653884Y-77722419D01*
X115653884Y-77722419D02*
X115653884Y-76722419D01*
X115653884Y-76722419D02*
X115987217Y-76722419D01*
X115987217Y-76722419D02*
X116082455Y-76770038D01*
X116082455Y-76770038D02*
X116130074Y-76817657D01*
X116130074Y-76817657D02*
X116177693Y-76912895D01*
X116177693Y-76912895D02*
X116177693Y-77008133D01*
X116177693Y-77008133D02*
X116130074Y-77103371D01*
X116130074Y-77103371D02*
X116082455Y-77150990D01*
X116082455Y-77150990D02*
X115987217Y-77198609D01*
X115987217Y-77198609D02*
X115653884Y-77198609D01*
X116606265Y-77436704D02*
X117082455Y-77436704D01*
X116511027Y-77722419D02*
X116844360Y-76722419D01*
X116844360Y-76722419D02*
X117177693Y-77722419D01*
X117368170Y-76722419D02*
X117939598Y-76722419D01*
X117653884Y-77722419D02*
X117653884Y-76722419D01*
X118130075Y-76722419D02*
X118701503Y-76722419D01*
X118415789Y-77722419D02*
X118415789Y-76722419D01*
X119653885Y-76722419D02*
X119987218Y-77722419D01*
X119987218Y-77722419D02*
X120320551Y-76722419D01*
X120844361Y-76722419D02*
X121034837Y-76722419D01*
X121034837Y-76722419D02*
X121130075Y-76770038D01*
X121130075Y-76770038D02*
X121225313Y-76865276D01*
X121225313Y-76865276D02*
X121272932Y-77055752D01*
X121272932Y-77055752D02*
X121272932Y-77389085D01*
X121272932Y-77389085D02*
X121225313Y-77579561D01*
X121225313Y-77579561D02*
X121130075Y-77674800D01*
X121130075Y-77674800D02*
X121034837Y-77722419D01*
X121034837Y-77722419D02*
X120844361Y-77722419D01*
X120844361Y-77722419D02*
X120749123Y-77674800D01*
X120749123Y-77674800D02*
X120653885Y-77579561D01*
X120653885Y-77579561D02*
X120606266Y-77389085D01*
X120606266Y-77389085D02*
X120606266Y-77055752D01*
X120606266Y-77055752D02*
X120653885Y-76865276D01*
X120653885Y-76865276D02*
X120749123Y-76770038D01*
X120749123Y-76770038D02*
X120844361Y-76722419D01*
X122177694Y-77722419D02*
X121701504Y-77722419D01*
X121701504Y-77722419D02*
X121701504Y-76722419D01*
X122368171Y-76722419D02*
X122939599Y-76722419D01*
X122653885Y-77722419D02*
X122653885Y-76722419D01*
X116658133Y-91884211D02*
X116610514Y-91884211D01*
X116753371Y-91931830D02*
X116610514Y-91931830D01*
X116848609Y-91979449D02*
X116610514Y-91979449D01*
X116943847Y-92027068D02*
X116610514Y-92027068D01*
X116991466Y-92074687D02*
X116610514Y-92074687D01*
X117086704Y-92122306D02*
X116610514Y-92122306D01*
X117181942Y-92169925D02*
X116610514Y-92169925D01*
X117277180Y-92217544D02*
X116610514Y-92217544D01*
X117372419Y-92265163D02*
X116610514Y-92265163D01*
X117277180Y-92312782D02*
X116610514Y-92312782D01*
X117181942Y-92360401D02*
X116610514Y-92360401D01*
X117086704Y-92408020D02*
X116610514Y-92408020D01*
X116991466Y-92455639D02*
X116610514Y-92455639D01*
X116943847Y-92503258D02*
X116610514Y-92503258D01*
X116848609Y-92550877D02*
X116610514Y-92550877D01*
X116753371Y-92598496D02*
X116610514Y-92598496D01*
X116610514Y-92646115D02*
X117324800Y-92265163D01*
X117324800Y-92265163D02*
X116610514Y-91884211D01*
X116658133Y-92646115D02*
X116610514Y-92646115D01*
X117372419Y-92265163D02*
X116610514Y-92693734D01*
X116610514Y-92693734D02*
X116610514Y-91836591D01*
X116610514Y-91836591D02*
X117372419Y-92265163D01*
X117324800Y-90693734D02*
X117372419Y-90550877D01*
X117372419Y-90550877D02*
X117372419Y-90312782D01*
X117372419Y-90312782D02*
X117324800Y-90217544D01*
X117324800Y-90217544D02*
X117277180Y-90169925D01*
X117277180Y-90169925D02*
X117181942Y-90122306D01*
X117181942Y-90122306D02*
X117086704Y-90122306D01*
X117086704Y-90122306D02*
X116991466Y-90169925D01*
X116991466Y-90169925D02*
X116943847Y-90217544D01*
X116943847Y-90217544D02*
X116896228Y-90312782D01*
X116896228Y-90312782D02*
X116848609Y-90503258D01*
X116848609Y-90503258D02*
X116800990Y-90598496D01*
X116800990Y-90598496D02*
X116753371Y-90646115D01*
X116753371Y-90646115D02*
X116658133Y-90693734D01*
X116658133Y-90693734D02*
X116562895Y-90693734D01*
X116562895Y-90693734D02*
X116467657Y-90646115D01*
X116467657Y-90646115D02*
X116420038Y-90598496D01*
X116420038Y-90598496D02*
X116372419Y-90503258D01*
X116372419Y-90503258D02*
X116372419Y-90265163D01*
X116372419Y-90265163D02*
X116420038Y-90122306D01*
X117277180Y-89122306D02*
X117324800Y-89169925D01*
X117324800Y-89169925D02*
X117372419Y-89312782D01*
X117372419Y-89312782D02*
X117372419Y-89408020D01*
X117372419Y-89408020D02*
X117324800Y-89550877D01*
X117324800Y-89550877D02*
X117229561Y-89646115D01*
X117229561Y-89646115D02*
X117134323Y-89693734D01*
X117134323Y-89693734D02*
X116943847Y-89741353D01*
X116943847Y-89741353D02*
X116800990Y-89741353D01*
X116800990Y-89741353D02*
X116610514Y-89693734D01*
X116610514Y-89693734D02*
X116515276Y-89646115D01*
X116515276Y-89646115D02*
X116420038Y-89550877D01*
X116420038Y-89550877D02*
X116372419Y-89408020D01*
X116372419Y-89408020D02*
X116372419Y-89312782D01*
X116372419Y-89312782D02*
X116420038Y-89169925D01*
X116420038Y-89169925D02*
X116467657Y-89122306D01*
X117372419Y-88122306D02*
X116896228Y-88455639D01*
X117372419Y-88693734D02*
X116372419Y-88693734D01*
X116372419Y-88693734D02*
X116372419Y-88312782D01*
X116372419Y-88312782D02*
X116420038Y-88217544D01*
X116420038Y-88217544D02*
X116467657Y-88169925D01*
X116467657Y-88169925D02*
X116562895Y-88122306D01*
X116562895Y-88122306D02*
X116705752Y-88122306D01*
X116705752Y-88122306D02*
X116800990Y-88169925D01*
X116800990Y-88169925D02*
X116848609Y-88217544D01*
X116848609Y-88217544D02*
X116896228Y-88312782D01*
X116896228Y-88312782D02*
X116896228Y-88693734D01*
X116372419Y-87693734D02*
X117181942Y-87693734D01*
X117181942Y-87693734D02*
X117277180Y-87646115D01*
X117277180Y-87646115D02*
X117324800Y-87598496D01*
X117324800Y-87598496D02*
X117372419Y-87503258D01*
X117372419Y-87503258D02*
X117372419Y-87312782D01*
X117372419Y-87312782D02*
X117324800Y-87217544D01*
X117324800Y-87217544D02*
X117277180Y-87169925D01*
X117277180Y-87169925D02*
X117181942Y-87122306D01*
X117181942Y-87122306D02*
X116372419Y-87122306D01*
X116372419Y-86788972D02*
X116372419Y-86217544D01*
X117372419Y-86503258D02*
X116372419Y-86503258D01*
X116372419Y-85265162D02*
X116372419Y-84693734D01*
X117372419Y-84979448D02*
X116372419Y-84979448D01*
X116848609Y-84360400D02*
X116848609Y-84027067D01*
X117372419Y-83884210D02*
X117372419Y-84360400D01*
X117372419Y-84360400D02*
X116372419Y-84360400D01*
X116372419Y-84360400D02*
X116372419Y-83884210D01*
X117372419Y-83455638D02*
X116372419Y-83455638D01*
X116372419Y-83455638D02*
X117086704Y-83122305D01*
X117086704Y-83122305D02*
X116372419Y-82788972D01*
X116372419Y-82788972D02*
X117372419Y-82788972D01*
X117372419Y-82312781D02*
X116372419Y-82312781D01*
X116372419Y-82312781D02*
X116372419Y-81931829D01*
X116372419Y-81931829D02*
X116420038Y-81836591D01*
X116420038Y-81836591D02*
X116467657Y-81788972D01*
X116467657Y-81788972D02*
X116562895Y-81741353D01*
X116562895Y-81741353D02*
X116705752Y-81741353D01*
X116705752Y-81741353D02*
X116800990Y-81788972D01*
X116800990Y-81788972D02*
X116848609Y-81836591D01*
X116848609Y-81836591D02*
X116896228Y-81931829D01*
X116896228Y-81931829D02*
X116896228Y-82312781D01*
X99947419Y-103588972D02*
X99947419Y-103017544D01*
X100947419Y-103303258D02*
X99947419Y-103303258D01*
X100947419Y-102684210D02*
X99947419Y-102684210D01*
X100423609Y-102684210D02*
X100423609Y-102112782D01*
X100947419Y-102112782D02*
X99947419Y-102112782D01*
X100423609Y-101636591D02*
X100423609Y-101303258D01*
X100947419Y-101160401D02*
X100947419Y-101636591D01*
X100947419Y-101636591D02*
X99947419Y-101636591D01*
X99947419Y-101636591D02*
X99947419Y-101160401D01*
X100947419Y-100160401D02*
X100471228Y-100493734D01*
X100947419Y-100731829D02*
X99947419Y-100731829D01*
X99947419Y-100731829D02*
X99947419Y-100350877D01*
X99947419Y-100350877D02*
X99995038Y-100255639D01*
X99995038Y-100255639D02*
X100042657Y-100208020D01*
X100042657Y-100208020D02*
X100137895Y-100160401D01*
X100137895Y-100160401D02*
X100280752Y-100160401D01*
X100280752Y-100160401D02*
X100375990Y-100208020D01*
X100375990Y-100208020D02*
X100423609Y-100255639D01*
X100423609Y-100255639D02*
X100471228Y-100350877D01*
X100471228Y-100350877D02*
X100471228Y-100731829D01*
X100947419Y-99731829D02*
X99947419Y-99731829D01*
X99947419Y-99731829D02*
X100661704Y-99398496D01*
X100661704Y-99398496D02*
X99947419Y-99065163D01*
X99947419Y-99065163D02*
X100947419Y-99065163D01*
X100042657Y-98636591D02*
X99995038Y-98588972D01*
X99995038Y-98588972D02*
X99947419Y-98493734D01*
X99947419Y-98493734D02*
X99947419Y-98255639D01*
X99947419Y-98255639D02*
X99995038Y-98160401D01*
X99995038Y-98160401D02*
X100042657Y-98112782D01*
X100042657Y-98112782D02*
X100137895Y-98065163D01*
X100137895Y-98065163D02*
X100233133Y-98065163D01*
X100233133Y-98065163D02*
X100375990Y-98112782D01*
X100375990Y-98112782D02*
X100947419Y-98684210D01*
X100947419Y-98684210D02*
X100947419Y-98065163D01*
X92528170Y-68971466D02*
X93290075Y-68971466D01*
X92909122Y-69352419D02*
X92909122Y-68590514D01*
X94480550Y-68304800D02*
X93623408Y-69590514D01*
X95004360Y-68352419D02*
X95194836Y-68352419D01*
X95194836Y-68352419D02*
X95290074Y-68400038D01*
X95290074Y-68400038D02*
X95385312Y-68495276D01*
X95385312Y-68495276D02*
X95432931Y-68685752D01*
X95432931Y-68685752D02*
X95432931Y-69019085D01*
X95432931Y-69019085D02*
X95385312Y-69209561D01*
X95385312Y-69209561D02*
X95290074Y-69304800D01*
X95290074Y-69304800D02*
X95194836Y-69352419D01*
X95194836Y-69352419D02*
X95004360Y-69352419D01*
X95004360Y-69352419D02*
X94909122Y-69304800D01*
X94909122Y-69304800D02*
X94813884Y-69209561D01*
X94813884Y-69209561D02*
X94766265Y-69019085D01*
X94766265Y-69019085D02*
X94766265Y-68685752D01*
X94766265Y-68685752D02*
X94813884Y-68495276D01*
X94813884Y-68495276D02*
X94909122Y-68400038D01*
X94909122Y-68400038D02*
X95004360Y-68352419D01*
X96290074Y-68685752D02*
X96290074Y-69352419D01*
X95861503Y-68685752D02*
X95861503Y-69209561D01*
X95861503Y-69209561D02*
X95909122Y-69304800D01*
X95909122Y-69304800D02*
X96004360Y-69352419D01*
X96004360Y-69352419D02*
X96147217Y-69352419D01*
X96147217Y-69352419D02*
X96242455Y-69304800D01*
X96242455Y-69304800D02*
X96290074Y-69257180D01*
X96623408Y-68685752D02*
X97004360Y-68685752D01*
X96766265Y-68352419D02*
X96766265Y-69209561D01*
X96766265Y-69209561D02*
X96813884Y-69304800D01*
X96813884Y-69304800D02*
X96909122Y-69352419D01*
X96909122Y-69352419D02*
X97004360Y-69352419D01*
X93528171Y-74352419D02*
X93528171Y-73352419D01*
X94004361Y-73685752D02*
X94004361Y-74352419D01*
X94004361Y-73780990D02*
X94051980Y-73733371D01*
X94051980Y-73733371D02*
X94147218Y-73685752D01*
X94147218Y-73685752D02*
X94290075Y-73685752D01*
X94290075Y-73685752D02*
X94385313Y-73733371D01*
X94385313Y-73733371D02*
X94432932Y-73828609D01*
X94432932Y-73828609D02*
X94432932Y-74352419D01*
X95623408Y-73304800D02*
X94766266Y-74590514D01*
X95956742Y-74352419D02*
X95956742Y-73352419D01*
X96432932Y-73685752D02*
X96432932Y-74352419D01*
X96432932Y-73780990D02*
X96480551Y-73733371D01*
X96480551Y-73733371D02*
X96575789Y-73685752D01*
X96575789Y-73685752D02*
X96718646Y-73685752D01*
X96718646Y-73685752D02*
X96813884Y-73733371D01*
X96813884Y-73733371D02*
X96861503Y-73828609D01*
X96861503Y-73828609D02*
X96861503Y-74352419D01*
X105692419Y-60796115D02*
X104692419Y-60796115D01*
X105025752Y-60319925D02*
X105692419Y-60319925D01*
X105120990Y-60319925D02*
X105073371Y-60272306D01*
X105073371Y-60272306D02*
X105025752Y-60177068D01*
X105025752Y-60177068D02*
X105025752Y-60034211D01*
X105025752Y-60034211D02*
X105073371Y-59938973D01*
X105073371Y-59938973D02*
X105168609Y-59891354D01*
X105168609Y-59891354D02*
X105692419Y-59891354D01*
X108121466Y-96656115D02*
X108121466Y-95894211D01*
X139372419Y-71771115D02*
X138372419Y-71771115D01*
X138372419Y-71771115D02*
X138372419Y-71390163D01*
X138372419Y-71390163D02*
X138420038Y-71294925D01*
X138420038Y-71294925D02*
X138467657Y-71247306D01*
X138467657Y-71247306D02*
X138562895Y-71199687D01*
X138562895Y-71199687D02*
X138705752Y-71199687D01*
X138705752Y-71199687D02*
X138800990Y-71247306D01*
X138800990Y-71247306D02*
X138848609Y-71294925D01*
X138848609Y-71294925D02*
X138896228Y-71390163D01*
X138896228Y-71390163D02*
X138896228Y-71771115D01*
X139372419Y-70771115D02*
X138372419Y-70771115D01*
X139372419Y-70342544D02*
X138848609Y-70342544D01*
X138848609Y-70342544D02*
X138753371Y-70390163D01*
X138753371Y-70390163D02*
X138705752Y-70485401D01*
X138705752Y-70485401D02*
X138705752Y-70628258D01*
X138705752Y-70628258D02*
X138753371Y-70723496D01*
X138753371Y-70723496D02*
X138800990Y-70771115D01*
X139372419Y-69723496D02*
X139324800Y-69818734D01*
X139324800Y-69818734D02*
X139277180Y-69866353D01*
X139277180Y-69866353D02*
X139181942Y-69913972D01*
X139181942Y-69913972D02*
X138896228Y-69913972D01*
X138896228Y-69913972D02*
X138800990Y-69866353D01*
X138800990Y-69866353D02*
X138753371Y-69818734D01*
X138753371Y-69818734D02*
X138705752Y-69723496D01*
X138705752Y-69723496D02*
X138705752Y-69580639D01*
X138705752Y-69580639D02*
X138753371Y-69485401D01*
X138753371Y-69485401D02*
X138800990Y-69437782D01*
X138800990Y-69437782D02*
X138896228Y-69390163D01*
X138896228Y-69390163D02*
X139181942Y-69390163D01*
X139181942Y-69390163D02*
X139277180Y-69437782D01*
X139277180Y-69437782D02*
X139324800Y-69485401D01*
X139324800Y-69485401D02*
X139372419Y-69580639D01*
X139372419Y-69580639D02*
X139372419Y-69723496D01*
X139324800Y-68580639D02*
X139372419Y-68675877D01*
X139372419Y-68675877D02*
X139372419Y-68866353D01*
X139372419Y-68866353D02*
X139324800Y-68961591D01*
X139324800Y-68961591D02*
X139229561Y-69009210D01*
X139229561Y-69009210D02*
X138848609Y-69009210D01*
X138848609Y-69009210D02*
X138753371Y-68961591D01*
X138753371Y-68961591D02*
X138705752Y-68866353D01*
X138705752Y-68866353D02*
X138705752Y-68675877D01*
X138705752Y-68675877D02*
X138753371Y-68580639D01*
X138753371Y-68580639D02*
X138848609Y-68533020D01*
X138848609Y-68533020D02*
X138943847Y-68533020D01*
X138943847Y-68533020D02*
X139039085Y-69009210D01*
X138705752Y-68104448D02*
X139372419Y-68104448D01*
X138800990Y-68104448D02*
X138753371Y-68056829D01*
X138753371Y-68056829D02*
X138705752Y-67961591D01*
X138705752Y-67961591D02*
X138705752Y-67818734D01*
X138705752Y-67818734D02*
X138753371Y-67723496D01*
X138753371Y-67723496D02*
X138848609Y-67675877D01*
X138848609Y-67675877D02*
X139372419Y-67675877D01*
X139372419Y-67199686D02*
X138705752Y-67199686D01*
X138372419Y-67199686D02*
X138420038Y-67247305D01*
X138420038Y-67247305D02*
X138467657Y-67199686D01*
X138467657Y-67199686D02*
X138420038Y-67152067D01*
X138420038Y-67152067D02*
X138372419Y-67199686D01*
X138372419Y-67199686D02*
X138467657Y-67199686D01*
X139372419Y-66818734D02*
X138705752Y-66294925D01*
X138705752Y-66818734D02*
X139372419Y-66294925D01*
X139372419Y-65152067D02*
X138372419Y-65152067D01*
X138372419Y-65152067D02*
X139372419Y-64580639D01*
X139372419Y-64580639D02*
X138372419Y-64580639D01*
X138705752Y-63675877D02*
X139515276Y-63675877D01*
X139515276Y-63675877D02*
X139610514Y-63723496D01*
X139610514Y-63723496D02*
X139658133Y-63771115D01*
X139658133Y-63771115D02*
X139705752Y-63866353D01*
X139705752Y-63866353D02*
X139705752Y-64009210D01*
X139705752Y-64009210D02*
X139658133Y-64104448D01*
X139324800Y-63675877D02*
X139372419Y-63771115D01*
X139372419Y-63771115D02*
X139372419Y-63961591D01*
X139372419Y-63961591D02*
X139324800Y-64056829D01*
X139324800Y-64056829D02*
X139277180Y-64104448D01*
X139277180Y-64104448D02*
X139181942Y-64152067D01*
X139181942Y-64152067D02*
X138896228Y-64152067D01*
X138896228Y-64152067D02*
X138800990Y-64104448D01*
X138800990Y-64104448D02*
X138753371Y-64056829D01*
X138753371Y-64056829D02*
X138705752Y-63961591D01*
X138705752Y-63961591D02*
X138705752Y-63771115D01*
X138705752Y-63771115D02*
X138753371Y-63675877D01*
X138705752Y-62771115D02*
X139372419Y-62771115D01*
X138705752Y-63199686D02*
X139229561Y-63199686D01*
X139229561Y-63199686D02*
X139324800Y-63152067D01*
X139324800Y-63152067D02*
X139372419Y-63056829D01*
X139372419Y-63056829D02*
X139372419Y-62913972D01*
X139372419Y-62913972D02*
X139324800Y-62818734D01*
X139324800Y-62818734D02*
X139277180Y-62771115D01*
X138705752Y-62390162D02*
X139372419Y-62152067D01*
X138705752Y-61913972D02*
X139372419Y-62152067D01*
X139372419Y-62152067D02*
X139610514Y-62247305D01*
X139610514Y-62247305D02*
X139658133Y-62294924D01*
X139658133Y-62294924D02*
X139705752Y-62390162D01*
X139324800Y-61152067D02*
X139372419Y-61247305D01*
X139372419Y-61247305D02*
X139372419Y-61437781D01*
X139372419Y-61437781D02*
X139324800Y-61533019D01*
X139324800Y-61533019D02*
X139229561Y-61580638D01*
X139229561Y-61580638D02*
X138848609Y-61580638D01*
X138848609Y-61580638D02*
X138753371Y-61533019D01*
X138753371Y-61533019D02*
X138705752Y-61437781D01*
X138705752Y-61437781D02*
X138705752Y-61247305D01*
X138705752Y-61247305D02*
X138753371Y-61152067D01*
X138753371Y-61152067D02*
X138848609Y-61104448D01*
X138848609Y-61104448D02*
X138943847Y-61104448D01*
X138943847Y-61104448D02*
X139039085Y-61580638D01*
X138705752Y-60675876D02*
X139372419Y-60675876D01*
X138800990Y-60675876D02*
X138753371Y-60628257D01*
X138753371Y-60628257D02*
X138705752Y-60533019D01*
X138705752Y-60533019D02*
X138705752Y-60390162D01*
X138705752Y-60390162D02*
X138753371Y-60294924D01*
X138753371Y-60294924D02*
X138848609Y-60247305D01*
X138848609Y-60247305D02*
X139372419Y-60247305D01*
X120161027Y-90272419D02*
X120494360Y-91272419D01*
X120494360Y-91272419D02*
X120827693Y-90272419D01*
X121303884Y-91272419D02*
X121208646Y-91224800D01*
X121208646Y-91224800D02*
X121161027Y-91177180D01*
X121161027Y-91177180D02*
X121113408Y-91081942D01*
X121113408Y-91081942D02*
X121113408Y-90796228D01*
X121113408Y-90796228D02*
X121161027Y-90700990D01*
X121161027Y-90700990D02*
X121208646Y-90653371D01*
X121208646Y-90653371D02*
X121303884Y-90605752D01*
X121303884Y-90605752D02*
X121446741Y-90605752D01*
X121446741Y-90605752D02*
X121541979Y-90653371D01*
X121541979Y-90653371D02*
X121589598Y-90700990D01*
X121589598Y-90700990D02*
X121637217Y-90796228D01*
X121637217Y-90796228D02*
X121637217Y-91081942D01*
X121637217Y-91081942D02*
X121589598Y-91177180D01*
X121589598Y-91177180D02*
X121541979Y-91224800D01*
X121541979Y-91224800D02*
X121446741Y-91272419D01*
X121446741Y-91272419D02*
X121303884Y-91272419D01*
X122208646Y-91272419D02*
X122113408Y-91224800D01*
X122113408Y-91224800D02*
X122065789Y-91129561D01*
X122065789Y-91129561D02*
X122065789Y-90272419D01*
X122446742Y-90605752D02*
X122827694Y-90605752D01*
X122589599Y-90272419D02*
X122589599Y-91129561D01*
X122589599Y-91129561D02*
X122637218Y-91224800D01*
X122637218Y-91224800D02*
X122732456Y-91272419D01*
X122732456Y-91272419D02*
X122827694Y-91272419D01*
X123113409Y-90367657D02*
X123161028Y-90320038D01*
X123161028Y-90320038D02*
X123256266Y-90272419D01*
X123256266Y-90272419D02*
X123494361Y-90272419D01*
X123494361Y-90272419D02*
X123589599Y-90320038D01*
X123589599Y-90320038D02*
X123637218Y-90367657D01*
X123637218Y-90367657D02*
X123684837Y-90462895D01*
X123684837Y-90462895D02*
X123684837Y-90558133D01*
X123684837Y-90558133D02*
X123637218Y-90700990D01*
X123637218Y-90700990D02*
X123065790Y-91272419D01*
X123065790Y-91272419D02*
X123684837Y-91272419D01*
X119386704Y-102343734D02*
X119386704Y-101867544D01*
X119672419Y-102438972D02*
X118672419Y-102105639D01*
X118672419Y-102105639D02*
X119672419Y-101772306D01*
X119672419Y-101438972D02*
X118672419Y-101438972D01*
X118672419Y-101438972D02*
X119386704Y-101105639D01*
X119386704Y-101105639D02*
X118672419Y-100772306D01*
X118672419Y-100772306D02*
X119672419Y-100772306D01*
X119672419Y-100296115D02*
X118672419Y-100296115D01*
X118672419Y-100296115D02*
X118672419Y-99915163D01*
X118672419Y-99915163D02*
X118720038Y-99819925D01*
X118720038Y-99819925D02*
X118767657Y-99772306D01*
X118767657Y-99772306D02*
X118862895Y-99724687D01*
X118862895Y-99724687D02*
X119005752Y-99724687D01*
X119005752Y-99724687D02*
X119100990Y-99772306D01*
X119100990Y-99772306D02*
X119148609Y-99819925D01*
X119148609Y-99819925D02*
X119196228Y-99915163D01*
X119196228Y-99915163D02*
X119196228Y-100296115D01*
X119148609Y-99296115D02*
X119148609Y-98962782D01*
X119672419Y-98819925D02*
X119672419Y-99296115D01*
X119672419Y-99296115D02*
X118672419Y-99296115D01*
X118672419Y-99296115D02*
X118672419Y-98819925D01*
X119672419Y-97819925D02*
X119196228Y-98153258D01*
X119672419Y-98391353D02*
X118672419Y-98391353D01*
X118672419Y-98391353D02*
X118672419Y-98010401D01*
X118672419Y-98010401D02*
X118720038Y-97915163D01*
X118720038Y-97915163D02*
X118767657Y-97867544D01*
X118767657Y-97867544D02*
X118862895Y-97819925D01*
X118862895Y-97819925D02*
X119005752Y-97819925D01*
X119005752Y-97819925D02*
X119100990Y-97867544D01*
X119100990Y-97867544D02*
X119148609Y-97915163D01*
X119148609Y-97915163D02*
X119196228Y-98010401D01*
X119196228Y-98010401D02*
X119196228Y-98391353D01*
X119148609Y-97391353D02*
X119148609Y-97058020D01*
X119672419Y-96915163D02*
X119672419Y-97391353D01*
X119672419Y-97391353D02*
X118672419Y-97391353D01*
X118672419Y-97391353D02*
X118672419Y-96915163D01*
X119624800Y-96534210D02*
X119672419Y-96391353D01*
X119672419Y-96391353D02*
X119672419Y-96153258D01*
X119672419Y-96153258D02*
X119624800Y-96058020D01*
X119624800Y-96058020D02*
X119577180Y-96010401D01*
X119577180Y-96010401D02*
X119481942Y-95962782D01*
X119481942Y-95962782D02*
X119386704Y-95962782D01*
X119386704Y-95962782D02*
X119291466Y-96010401D01*
X119291466Y-96010401D02*
X119243847Y-96058020D01*
X119243847Y-96058020D02*
X119196228Y-96153258D01*
X119196228Y-96153258D02*
X119148609Y-96343734D01*
X119148609Y-96343734D02*
X119100990Y-96438972D01*
X119100990Y-96438972D02*
X119053371Y-96486591D01*
X119053371Y-96486591D02*
X118958133Y-96534210D01*
X118958133Y-96534210D02*
X118862895Y-96534210D01*
X118862895Y-96534210D02*
X118767657Y-96486591D01*
X118767657Y-96486591D02*
X118720038Y-96438972D01*
X118720038Y-96438972D02*
X118672419Y-96343734D01*
X118672419Y-96343734D02*
X118672419Y-96105639D01*
X118672419Y-96105639D02*
X118720038Y-95962782D01*
D11*
X113800476Y-96724819D02*
X113800476Y-97439104D01*
X113800476Y-97439104D02*
X113752857Y-97581961D01*
X113752857Y-97581961D02*
X113657619Y-97677200D01*
X113657619Y-97677200D02*
X113514762Y-97724819D01*
X113514762Y-97724819D02*
X113419524Y-97724819D01*
X114800476Y-97724819D02*
X114229048Y-97724819D01*
X114514762Y-97724819D02*
X114514762Y-96724819D01*
X114514762Y-96724819D02*
X114419524Y-96867676D01*
X114419524Y-96867676D02*
X114324286Y-96962914D01*
X114324286Y-96962914D02*
X114229048Y-97010533D01*
X115752857Y-97724819D02*
X115181429Y-97724819D01*
X115467143Y-97724819D02*
X115467143Y-96724819D01*
X115467143Y-96724819D02*
X115371905Y-96867676D01*
X115371905Y-96867676D02*
X115276667Y-96962914D01*
X115276667Y-96962914D02*
X115181429Y-97010533D01*
D12*
X126499549Y-96529318D02*
X126499549Y-97436461D01*
X126499549Y-97436461D02*
X126439072Y-97617889D01*
X126439072Y-97617889D02*
X126318120Y-97738842D01*
X126318120Y-97738842D02*
X126136691Y-97799318D01*
X126136691Y-97799318D02*
X126015739Y-97799318D01*
X127769549Y-97799318D02*
X127043834Y-97799318D01*
X127406691Y-97799318D02*
X127406691Y-96529318D01*
X127406691Y-96529318D02*
X127285739Y-96710746D01*
X127285739Y-96710746D02*
X127164787Y-96831699D01*
X127164787Y-96831699D02*
X127043834Y-96892175D01*
X128555739Y-96529318D02*
X128676692Y-96529318D01*
X128676692Y-96529318D02*
X128797644Y-96589794D01*
X128797644Y-96589794D02*
X128858120Y-96650270D01*
X128858120Y-96650270D02*
X128918596Y-96771222D01*
X128918596Y-96771222D02*
X128979073Y-97013127D01*
X128979073Y-97013127D02*
X128979073Y-97315508D01*
X128979073Y-97315508D02*
X128918596Y-97557413D01*
X128918596Y-97557413D02*
X128858120Y-97678365D01*
X128858120Y-97678365D02*
X128797644Y-97738842D01*
X128797644Y-97738842D02*
X128676692Y-97799318D01*
X128676692Y-97799318D02*
X128555739Y-97799318D01*
X128555739Y-97799318D02*
X128434787Y-97738842D01*
X128434787Y-97738842D02*
X128374311Y-97678365D01*
X128374311Y-97678365D02*
X128313834Y-97557413D01*
X128313834Y-97557413D02*
X128253358Y-97315508D01*
X128253358Y-97315508D02*
X128253358Y-97013127D01*
X128253358Y-97013127D02*
X128313834Y-96771222D01*
X128313834Y-96771222D02*
X128374311Y-96650270D01*
X128374311Y-96650270D02*
X128434787Y-96589794D01*
X128434787Y-96589794D02*
X128555739Y-96529318D01*
D11*
X112344819Y-88509047D02*
X113344819Y-88175714D01*
X113344819Y-88175714D02*
X112344819Y-87842381D01*
X112344819Y-87318571D02*
X112344819Y-87128095D01*
X112344819Y-87128095D02*
X112392438Y-87032857D01*
X112392438Y-87032857D02*
X112487676Y-86937619D01*
X112487676Y-86937619D02*
X112678152Y-86890000D01*
X112678152Y-86890000D02*
X113011485Y-86890000D01*
X113011485Y-86890000D02*
X113201961Y-86937619D01*
X113201961Y-86937619D02*
X113297200Y-87032857D01*
X113297200Y-87032857D02*
X113344819Y-87128095D01*
X113344819Y-87128095D02*
X113344819Y-87318571D01*
X113344819Y-87318571D02*
X113297200Y-87413809D01*
X113297200Y-87413809D02*
X113201961Y-87509047D01*
X113201961Y-87509047D02*
X113011485Y-87556666D01*
X113011485Y-87556666D02*
X112678152Y-87556666D01*
X112678152Y-87556666D02*
X112487676Y-87509047D01*
X112487676Y-87509047D02*
X112392438Y-87413809D01*
X112392438Y-87413809D02*
X112344819Y-87318571D01*
X113344819Y-85985238D02*
X113344819Y-86461428D01*
X113344819Y-86461428D02*
X112344819Y-86461428D01*
X112344819Y-85794761D02*
X112344819Y-85223333D01*
X113344819Y-85509047D02*
X112344819Y-85509047D01*
X112440057Y-84937618D02*
X112392438Y-84889999D01*
X112392438Y-84889999D02*
X112344819Y-84794761D01*
X112344819Y-84794761D02*
X112344819Y-84556666D01*
X112344819Y-84556666D02*
X112392438Y-84461428D01*
X112392438Y-84461428D02*
X112440057Y-84413809D01*
X112440057Y-84413809D02*
X112535295Y-84366190D01*
X112535295Y-84366190D02*
X112630533Y-84366190D01*
X112630533Y-84366190D02*
X112773390Y-84413809D01*
X112773390Y-84413809D02*
X113344819Y-84985237D01*
X113344819Y-84985237D02*
X113344819Y-84366190D01*
X105291566Y-98444669D02*
X105291566Y-99158954D01*
X105291566Y-99158954D02*
X105243947Y-99301811D01*
X105243947Y-99301811D02*
X105148709Y-99397050D01*
X105148709Y-99397050D02*
X105005852Y-99444669D01*
X105005852Y-99444669D02*
X104910614Y-99444669D01*
X106196328Y-98778002D02*
X106196328Y-99444669D01*
X105958233Y-98397050D02*
X105720138Y-99111335D01*
X105720138Y-99111335D02*
X106339185Y-99111335D01*
D12*
X132751667Y-70729318D02*
X132751667Y-71636461D01*
X132751667Y-71636461D02*
X132691190Y-71817889D01*
X132691190Y-71817889D02*
X132570238Y-71938842D01*
X132570238Y-71938842D02*
X132388809Y-71999318D01*
X132388809Y-71999318D02*
X132267857Y-71999318D01*
X133961190Y-70729318D02*
X133356428Y-70729318D01*
X133356428Y-70729318D02*
X133295952Y-71334080D01*
X133295952Y-71334080D02*
X133356428Y-71273603D01*
X133356428Y-71273603D02*
X133477381Y-71213127D01*
X133477381Y-71213127D02*
X133779762Y-71213127D01*
X133779762Y-71213127D02*
X133900714Y-71273603D01*
X133900714Y-71273603D02*
X133961190Y-71334080D01*
X133961190Y-71334080D02*
X134021667Y-71455032D01*
X134021667Y-71455032D02*
X134021667Y-71757413D01*
X134021667Y-71757413D02*
X133961190Y-71878365D01*
X133961190Y-71878365D02*
X133900714Y-71938842D01*
X133900714Y-71938842D02*
X133779762Y-71999318D01*
X133779762Y-71999318D02*
X133477381Y-71999318D01*
X133477381Y-71999318D02*
X133356428Y-71938842D01*
X133356428Y-71938842D02*
X133295952Y-71878365D01*
X121542638Y-84504318D02*
X121542638Y-85411461D01*
X121542638Y-85411461D02*
X121482161Y-85592889D01*
X121482161Y-85592889D02*
X121361209Y-85713842D01*
X121361209Y-85713842D02*
X121179780Y-85774318D01*
X121179780Y-85774318D02*
X121058828Y-85774318D01*
X122328828Y-85048603D02*
X122207876Y-84988127D01*
X122207876Y-84988127D02*
X122147399Y-84927651D01*
X122147399Y-84927651D02*
X122086923Y-84806699D01*
X122086923Y-84806699D02*
X122086923Y-84746222D01*
X122086923Y-84746222D02*
X122147399Y-84625270D01*
X122147399Y-84625270D02*
X122207876Y-84564794D01*
X122207876Y-84564794D02*
X122328828Y-84504318D01*
X122328828Y-84504318D02*
X122570733Y-84504318D01*
X122570733Y-84504318D02*
X122691685Y-84564794D01*
X122691685Y-84564794D02*
X122752161Y-84625270D01*
X122752161Y-84625270D02*
X122812638Y-84746222D01*
X122812638Y-84746222D02*
X122812638Y-84806699D01*
X122812638Y-84806699D02*
X122752161Y-84927651D01*
X122752161Y-84927651D02*
X122691685Y-84988127D01*
X122691685Y-84988127D02*
X122570733Y-85048603D01*
X122570733Y-85048603D02*
X122328828Y-85048603D01*
X122328828Y-85048603D02*
X122207876Y-85109080D01*
X122207876Y-85109080D02*
X122147399Y-85169556D01*
X122147399Y-85169556D02*
X122086923Y-85290508D01*
X122086923Y-85290508D02*
X122086923Y-85532413D01*
X122086923Y-85532413D02*
X122147399Y-85653365D01*
X122147399Y-85653365D02*
X122207876Y-85713842D01*
X122207876Y-85713842D02*
X122328828Y-85774318D01*
X122328828Y-85774318D02*
X122570733Y-85774318D01*
X122570733Y-85774318D02*
X122691685Y-85713842D01*
X122691685Y-85713842D02*
X122752161Y-85653365D01*
X122752161Y-85653365D02*
X122812638Y-85532413D01*
X122812638Y-85532413D02*
X122812638Y-85290508D01*
X122812638Y-85290508D02*
X122752161Y-85169556D01*
X122752161Y-85169556D02*
X122691685Y-85109080D01*
X122691685Y-85109080D02*
X122570733Y-85048603D01*
D11*
X114100476Y-58664819D02*
X114100476Y-59379104D01*
X114100476Y-59379104D02*
X114052857Y-59521961D01*
X114052857Y-59521961D02*
X113957619Y-59617200D01*
X113957619Y-59617200D02*
X113814762Y-59664819D01*
X113814762Y-59664819D02*
X113719524Y-59664819D01*
X115100476Y-59664819D02*
X114529048Y-59664819D01*
X114814762Y-59664819D02*
X114814762Y-58664819D01*
X114814762Y-58664819D02*
X114719524Y-58807676D01*
X114719524Y-58807676D02*
X114624286Y-58902914D01*
X114624286Y-58902914D02*
X114529048Y-58950533D01*
X115481429Y-58760057D02*
X115529048Y-58712438D01*
X115529048Y-58712438D02*
X115624286Y-58664819D01*
X115624286Y-58664819D02*
X115862381Y-58664819D01*
X115862381Y-58664819D02*
X115957619Y-58712438D01*
X115957619Y-58712438D02*
X116005238Y-58760057D01*
X116005238Y-58760057D02*
X116052857Y-58855295D01*
X116052857Y-58855295D02*
X116052857Y-58950533D01*
X116052857Y-58950533D02*
X116005238Y-59093390D01*
X116005238Y-59093390D02*
X115433810Y-59664819D01*
X115433810Y-59664819D02*
X116052857Y-59664819D01*
X112324819Y-75319047D02*
X113324819Y-74985714D01*
X113324819Y-74985714D02*
X112324819Y-74652381D01*
X112324819Y-74128571D02*
X112324819Y-73938095D01*
X112324819Y-73938095D02*
X112372438Y-73842857D01*
X112372438Y-73842857D02*
X112467676Y-73747619D01*
X112467676Y-73747619D02*
X112658152Y-73700000D01*
X112658152Y-73700000D02*
X112991485Y-73700000D01*
X112991485Y-73700000D02*
X113181961Y-73747619D01*
X113181961Y-73747619D02*
X113277200Y-73842857D01*
X113277200Y-73842857D02*
X113324819Y-73938095D01*
X113324819Y-73938095D02*
X113324819Y-74128571D01*
X113324819Y-74128571D02*
X113277200Y-74223809D01*
X113277200Y-74223809D02*
X113181961Y-74319047D01*
X113181961Y-74319047D02*
X112991485Y-74366666D01*
X112991485Y-74366666D02*
X112658152Y-74366666D01*
X112658152Y-74366666D02*
X112467676Y-74319047D01*
X112467676Y-74319047D02*
X112372438Y-74223809D01*
X112372438Y-74223809D02*
X112324819Y-74128571D01*
X113324819Y-72795238D02*
X113324819Y-73271428D01*
X113324819Y-73271428D02*
X112324819Y-73271428D01*
X112324819Y-72604761D02*
X112324819Y-72033333D01*
X113324819Y-72319047D02*
X112324819Y-72319047D01*
X113324819Y-71176190D02*
X113324819Y-71747618D01*
X113324819Y-71461904D02*
X112324819Y-71461904D01*
X112324819Y-71461904D02*
X112467676Y-71557142D01*
X112467676Y-71557142D02*
X112562914Y-71652380D01*
X112562914Y-71652380D02*
X112610533Y-71747618D01*
X105643333Y-58155180D02*
X105643333Y-57440895D01*
X105643333Y-57440895D02*
X105690952Y-57298038D01*
X105690952Y-57298038D02*
X105786190Y-57202800D01*
X105786190Y-57202800D02*
X105929047Y-57155180D01*
X105929047Y-57155180D02*
X106024285Y-57155180D01*
X105262380Y-58155180D02*
X104643333Y-58155180D01*
X104643333Y-58155180D02*
X104976666Y-57774228D01*
X104976666Y-57774228D02*
X104833809Y-57774228D01*
X104833809Y-57774228D02*
X104738571Y-57726609D01*
X104738571Y-57726609D02*
X104690952Y-57678990D01*
X104690952Y-57678990D02*
X104643333Y-57583752D01*
X104643333Y-57583752D02*
X104643333Y-57345657D01*
X104643333Y-57345657D02*
X104690952Y-57250419D01*
X104690952Y-57250419D02*
X104738571Y-57202800D01*
X104738571Y-57202800D02*
X104833809Y-57155180D01*
X104833809Y-57155180D02*
X105119523Y-57155180D01*
X105119523Y-57155180D02*
X105214761Y-57202800D01*
X105214761Y-57202800D02*
X105262380Y-57250419D01*
X100414819Y-72723333D02*
X101129104Y-72723333D01*
X101129104Y-72723333D02*
X101271961Y-72770952D01*
X101271961Y-72770952D02*
X101367200Y-72866190D01*
X101367200Y-72866190D02*
X101414819Y-73009047D01*
X101414819Y-73009047D02*
X101414819Y-73104285D01*
X101414819Y-71723333D02*
X101414819Y-72294761D01*
X101414819Y-72009047D02*
X100414819Y-72009047D01*
X100414819Y-72009047D02*
X100557676Y-72104285D01*
X100557676Y-72104285D02*
X100652914Y-72199523D01*
X100652914Y-72199523D02*
X100700533Y-72294761D01*
X98134819Y-96575713D02*
X98134819Y-96004285D01*
X99134819Y-96289999D02*
X98134819Y-96289999D01*
X98611009Y-95670951D02*
X98611009Y-95337618D01*
X99134819Y-95194761D02*
X99134819Y-95670951D01*
X99134819Y-95670951D02*
X98134819Y-95670951D01*
X98134819Y-95670951D02*
X98134819Y-95194761D01*
X99134819Y-94766189D02*
X98134819Y-94766189D01*
X98134819Y-94766189D02*
X98849104Y-94432856D01*
X98849104Y-94432856D02*
X98134819Y-94099523D01*
X98134819Y-94099523D02*
X99134819Y-94099523D01*
X99134819Y-93623332D02*
X98134819Y-93623332D01*
X98134819Y-93623332D02*
X98134819Y-93242380D01*
X98134819Y-93242380D02*
X98182438Y-93147142D01*
X98182438Y-93147142D02*
X98230057Y-93099523D01*
X98230057Y-93099523D02*
X98325295Y-93051904D01*
X98325295Y-93051904D02*
X98468152Y-93051904D01*
X98468152Y-93051904D02*
X98563390Y-93099523D01*
X98563390Y-93099523D02*
X98611009Y-93147142D01*
X98611009Y-93147142D02*
X98658628Y-93242380D01*
X98658628Y-93242380D02*
X98658628Y-93623332D01*
X98230057Y-92670951D02*
X98182438Y-92623332D01*
X98182438Y-92623332D02*
X98134819Y-92528094D01*
X98134819Y-92528094D02*
X98134819Y-92289999D01*
X98134819Y-92289999D02*
X98182438Y-92194761D01*
X98182438Y-92194761D02*
X98230057Y-92147142D01*
X98230057Y-92147142D02*
X98325295Y-92099523D01*
X98325295Y-92099523D02*
X98420533Y-92099523D01*
X98420533Y-92099523D02*
X98563390Y-92147142D01*
X98563390Y-92147142D02*
X99134819Y-92718570D01*
X99134819Y-92718570D02*
X99134819Y-92099523D01*
D12*
X127229311Y-58629318D02*
X127229311Y-59536461D01*
X127229311Y-59536461D02*
X127168834Y-59717889D01*
X127168834Y-59717889D02*
X127047882Y-59838842D01*
X127047882Y-59838842D02*
X126866453Y-59899318D01*
X126866453Y-59899318D02*
X126745501Y-59899318D01*
X127894549Y-59899318D02*
X128136453Y-59899318D01*
X128136453Y-59899318D02*
X128257406Y-59838842D01*
X128257406Y-59838842D02*
X128317882Y-59778365D01*
X128317882Y-59778365D02*
X128438834Y-59596937D01*
X128438834Y-59596937D02*
X128499311Y-59355032D01*
X128499311Y-59355032D02*
X128499311Y-58871222D01*
X128499311Y-58871222D02*
X128438834Y-58750270D01*
X128438834Y-58750270D02*
X128378358Y-58689794D01*
X128378358Y-58689794D02*
X128257406Y-58629318D01*
X128257406Y-58629318D02*
X128015501Y-58629318D01*
X128015501Y-58629318D02*
X127894549Y-58689794D01*
X127894549Y-58689794D02*
X127834072Y-58750270D01*
X127834072Y-58750270D02*
X127773596Y-58871222D01*
X127773596Y-58871222D02*
X127773596Y-59173603D01*
X127773596Y-59173603D02*
X127834072Y-59294556D01*
X127834072Y-59294556D02*
X127894549Y-59355032D01*
X127894549Y-59355032D02*
X128015501Y-59415508D01*
X128015501Y-59415508D02*
X128257406Y-59415508D01*
X128257406Y-59415508D02*
X128378358Y-59355032D01*
X128378358Y-59355032D02*
X128438834Y-59294556D01*
X128438834Y-59294556D02*
X128499311Y-59173603D01*
D11*
X98824819Y-66125713D02*
X98824819Y-65554285D01*
X99824819Y-65839999D02*
X98824819Y-65839999D01*
X99301009Y-65220951D02*
X99301009Y-64887618D01*
X99824819Y-64744761D02*
X99824819Y-65220951D01*
X99824819Y-65220951D02*
X98824819Y-65220951D01*
X98824819Y-65220951D02*
X98824819Y-64744761D01*
X99824819Y-64316189D02*
X98824819Y-64316189D01*
X98824819Y-64316189D02*
X99539104Y-63982856D01*
X99539104Y-63982856D02*
X98824819Y-63649523D01*
X98824819Y-63649523D02*
X99824819Y-63649523D01*
X99824819Y-63173332D02*
X98824819Y-63173332D01*
X98824819Y-63173332D02*
X98824819Y-62792380D01*
X98824819Y-62792380D02*
X98872438Y-62697142D01*
X98872438Y-62697142D02*
X98920057Y-62649523D01*
X98920057Y-62649523D02*
X99015295Y-62601904D01*
X99015295Y-62601904D02*
X99158152Y-62601904D01*
X99158152Y-62601904D02*
X99253390Y-62649523D01*
X99253390Y-62649523D02*
X99301009Y-62697142D01*
X99301009Y-62697142D02*
X99348628Y-62792380D01*
X99348628Y-62792380D02*
X99348628Y-63173332D01*
X99824819Y-61649523D02*
X99824819Y-62220951D01*
X99824819Y-61935237D02*
X98824819Y-61935237D01*
X98824819Y-61935237D02*
X98967676Y-62030475D01*
X98967676Y-62030475D02*
X99062914Y-62125713D01*
X99062914Y-62125713D02*
X99110533Y-62220951D01*
X100384819Y-84503333D02*
X101099104Y-84503333D01*
X101099104Y-84503333D02*
X101241961Y-84550952D01*
X101241961Y-84550952D02*
X101337200Y-84646190D01*
X101337200Y-84646190D02*
X101384819Y-84789047D01*
X101384819Y-84789047D02*
X101384819Y-84884285D01*
X100480057Y-84074761D02*
X100432438Y-84027142D01*
X100432438Y-84027142D02*
X100384819Y-83931904D01*
X100384819Y-83931904D02*
X100384819Y-83693809D01*
X100384819Y-83693809D02*
X100432438Y-83598571D01*
X100432438Y-83598571D02*
X100480057Y-83550952D01*
X100480057Y-83550952D02*
X100575295Y-83503333D01*
X100575295Y-83503333D02*
X100670533Y-83503333D01*
X100670533Y-83503333D02*
X100813390Y-83550952D01*
X100813390Y-83550952D02*
X101384819Y-84122380D01*
X101384819Y-84122380D02*
X101384819Y-83503333D01*
D12*
X121642638Y-70629318D02*
X121642638Y-71536461D01*
X121642638Y-71536461D02*
X121582161Y-71717889D01*
X121582161Y-71717889D02*
X121461209Y-71838842D01*
X121461209Y-71838842D02*
X121279780Y-71899318D01*
X121279780Y-71899318D02*
X121158828Y-71899318D01*
X122126447Y-70629318D02*
X122973114Y-70629318D01*
X122973114Y-70629318D02*
X122428828Y-71899318D01*
X132751667Y-84504318D02*
X132751667Y-85411461D01*
X132751667Y-85411461D02*
X132691190Y-85592889D01*
X132691190Y-85592889D02*
X132570238Y-85713842D01*
X132570238Y-85713842D02*
X132388809Y-85774318D01*
X132388809Y-85774318D02*
X132267857Y-85774318D01*
X133900714Y-84504318D02*
X133658809Y-84504318D01*
X133658809Y-84504318D02*
X133537857Y-84564794D01*
X133537857Y-84564794D02*
X133477381Y-84625270D01*
X133477381Y-84625270D02*
X133356428Y-84806699D01*
X133356428Y-84806699D02*
X133295952Y-85048603D01*
X133295952Y-85048603D02*
X133295952Y-85532413D01*
X133295952Y-85532413D02*
X133356428Y-85653365D01*
X133356428Y-85653365D02*
X133416905Y-85713842D01*
X133416905Y-85713842D02*
X133537857Y-85774318D01*
X133537857Y-85774318D02*
X133779762Y-85774318D01*
X133779762Y-85774318D02*
X133900714Y-85713842D01*
X133900714Y-85713842D02*
X133961190Y-85653365D01*
X133961190Y-85653365D02*
X134021667Y-85532413D01*
X134021667Y-85532413D02*
X134021667Y-85230032D01*
X134021667Y-85230032D02*
X133961190Y-85109080D01*
X133961190Y-85109080D02*
X133900714Y-85048603D01*
X133900714Y-85048603D02*
X133779762Y-84988127D01*
X133779762Y-84988127D02*
X133537857Y-84988127D01*
X133537857Y-84988127D02*
X133416905Y-85048603D01*
X133416905Y-85048603D02*
X133356428Y-85109080D01*
X133356428Y-85109080D02*
X133295952Y-85230032D01*
D13*
%TO.C,J11*%
X111490000Y-98580000D02*
X111860000Y-98580000D01*
X111490000Y-102280000D02*
X111490000Y-98580000D01*
X111860000Y-95720000D02*
X114570000Y-95720000D01*
X111860000Y-98580000D02*
X111860000Y-95720000D01*
X114570000Y-102280000D02*
X111490000Y-102280000D01*
X114570000Y-102280000D02*
X117650000Y-102280000D01*
X117280000Y-95720000D02*
X114570000Y-95720000D01*
X117280000Y-98580000D02*
X117280000Y-95720000D01*
X117650000Y-98580000D02*
X117280000Y-98580000D01*
X117650000Y-102280000D02*
X117650000Y-98580000D01*
X117950000Y-98280000D02*
X117280000Y-98280000D01*
X117950000Y-100430000D02*
X117950000Y-98280000D01*
D10*
%TO.C,J10*%
X132327644Y-97225000D02*
X132327644Y-97225000D01*
X132427644Y-97225000D02*
X132427644Y-97225000D01*
X132327644Y-97225000D02*
G75*
G02*
X132427644Y-97225000I50000J0D01*
G01*
X132427644Y-97225000D02*
G75*
G02*
X132327644Y-97225000I-50000J0D01*
G01*
D13*
%TO.C,VOLT2*%
X107640000Y-79990000D02*
X107950000Y-79990000D01*
X107640000Y-88810000D02*
X107640000Y-79990000D01*
X107640000Y-88810000D02*
X107950000Y-88810000D01*
X111850000Y-79990000D02*
X112160000Y-79990000D01*
X112160000Y-79990000D02*
X112160000Y-88810000D01*
X112160000Y-88810000D02*
X111850000Y-88810000D01*
X112360000Y-82400000D02*
X112860000Y-82900000D01*
X112860000Y-81900000D02*
X112360000Y-82400000D01*
X112860000Y-82900000D02*
X112860000Y-81900000D01*
D14*
%TO.C,J4*%
X101281500Y-97122950D02*
X101281500Y-100856750D01*
X101281500Y-100856750D02*
X102894400Y-100856750D01*
X102894400Y-100856750D02*
X102894400Y-103726950D01*
X102894400Y-103726950D02*
X108355400Y-103726950D01*
X108355400Y-100856750D02*
X109968300Y-100856750D01*
X108355400Y-103726950D02*
X108355400Y-100856750D01*
X109968300Y-97122950D02*
X101281500Y-97122950D01*
X109968300Y-100856750D02*
X109968300Y-97122950D01*
D15*
X99884500Y-98989850D02*
G75*
G02*
X99122500Y-98989850I-381000J0D01*
G01*
X99122500Y-98989850D02*
G75*
G02*
X99884500Y-98989850I381000J0D01*
G01*
D10*
%TO.C,J5*%
X128275000Y-71425000D02*
X128275000Y-71425000D01*
X128375000Y-71425000D02*
X128375000Y-71425000D01*
X128275000Y-71425000D02*
G75*
G02*
X128375000Y-71425000I50000J0D01*
G01*
X128375000Y-71425000D02*
G75*
G02*
X128275000Y-71425000I-50000J0D01*
G01*
%TO.C,J8*%
X126765971Y-85200000D02*
X126765971Y-85200000D01*
X126865971Y-85200000D02*
X126865971Y-85200000D01*
X126765971Y-85200000D02*
G75*
G02*
X126865971Y-85200000I50000J0D01*
G01*
X126865971Y-85200000D02*
G75*
G02*
X126765971Y-85200000I-50000J0D01*
G01*
D13*
%TO.C,J12*%
X111550000Y-56380000D02*
X111550000Y-58530000D01*
X111550000Y-58530000D02*
X112220000Y-58530000D01*
X111850000Y-54530000D02*
X111850000Y-58230000D01*
X111850000Y-58230000D02*
X112220000Y-58230000D01*
X112220000Y-58230000D02*
X112220000Y-61090000D01*
X112220000Y-61090000D02*
X114930000Y-61090000D01*
X114930000Y-54530000D02*
X111850000Y-54530000D01*
X114930000Y-54530000D02*
X118010000Y-54530000D01*
X117640000Y-58230000D02*
X117640000Y-61090000D01*
X117640000Y-61090000D02*
X114930000Y-61090000D01*
X118010000Y-54530000D02*
X118010000Y-58230000D01*
X118010000Y-58230000D02*
X117640000Y-58230000D01*
%TO.C,VOLT1*%
X107620000Y-67620000D02*
X107930000Y-67620000D01*
X107620000Y-76440000D02*
X107620000Y-67620000D01*
X107620000Y-76440000D02*
X107930000Y-76440000D01*
X111830000Y-67620000D02*
X112140000Y-67620000D01*
X112140000Y-67620000D02*
X112140000Y-76440000D01*
X112140000Y-76440000D02*
X111830000Y-76440000D01*
X112340000Y-70030000D02*
X112840000Y-70530000D01*
X112840000Y-69530000D02*
X112340000Y-70030000D01*
X112840000Y-70530000D02*
X112840000Y-69530000D01*
D14*
%TO.C,J3*%
X100966600Y-55743100D02*
X100966600Y-59476900D01*
X100966600Y-59476900D02*
X109653400Y-59476900D01*
X102579500Y-52872900D02*
X102579500Y-55743100D01*
X102579500Y-55743100D02*
X100966600Y-55743100D01*
X108040500Y-52872900D02*
X102579500Y-52872900D01*
X108040500Y-55743100D02*
X108040500Y-52872900D01*
X109653400Y-55743100D02*
X108040500Y-55743100D01*
X109653400Y-59476900D02*
X109653400Y-55743100D01*
D15*
X111812400Y-57610000D02*
G75*
G02*
X111050400Y-57610000I-381000J0D01*
G01*
X111050400Y-57610000D02*
G75*
G02*
X111812400Y-57610000I381000J0D01*
G01*
D14*
%TO.C,J1*%
X97848500Y-66789300D02*
X97848500Y-77990700D01*
X97848500Y-77990700D02*
X104071500Y-77990700D01*
X104071500Y-66789300D02*
X97848500Y-66789300D01*
X104071500Y-69659500D02*
X104071500Y-66789300D01*
X104071500Y-75120500D02*
X106941700Y-75120500D01*
X104071500Y-77990700D02*
X104071500Y-75120500D01*
X106941700Y-69659500D02*
X104071500Y-69659500D01*
X106941700Y-75120500D02*
X106941700Y-69659500D01*
D15*
X102591000Y-79768700D02*
G75*
G02*
X101829000Y-79768700I-381000J0D01*
G01*
X101829000Y-79768700D02*
G75*
G02*
X102591000Y-79768700I381000J0D01*
G01*
D13*
%TO.C,TEMP2*%
X101220000Y-90980000D02*
X110040000Y-90980000D01*
X101220000Y-91290000D02*
X101220000Y-90980000D01*
X101220000Y-95500000D02*
X101220000Y-95190000D01*
X103130000Y-90280000D02*
X103630000Y-90780000D01*
X103630000Y-90780000D02*
X104130000Y-90280000D01*
X104130000Y-90280000D02*
X103130000Y-90280000D01*
X110040000Y-90980000D02*
X110040000Y-91290000D01*
X110040000Y-95500000D02*
X101220000Y-95500000D01*
X110040000Y-95500000D02*
X110040000Y-95190000D01*
D10*
%TO.C,J9*%
X132452644Y-59325000D02*
X132452644Y-59325000D01*
X132552644Y-59325000D02*
X132552644Y-59325000D01*
X132452644Y-59325000D02*
G75*
G02*
X132552644Y-59325000I50000J0D01*
G01*
X132552644Y-59325000D02*
G75*
G02*
X132452644Y-59325000I-50000J0D01*
G01*
D13*
%TO.C,TEMP1*%
X101350000Y-61520000D02*
X110170000Y-61520000D01*
X101350000Y-61830000D02*
X101350000Y-61520000D01*
X101350000Y-66040000D02*
X101350000Y-65730000D01*
X103260000Y-60820000D02*
X103760000Y-61320000D01*
X103760000Y-61320000D02*
X104260000Y-60820000D01*
X104260000Y-60820000D02*
X103260000Y-60820000D01*
X110170000Y-61520000D02*
X110170000Y-61830000D01*
X110170000Y-66040000D02*
X101350000Y-66040000D01*
X110170000Y-66040000D02*
X110170000Y-65730000D01*
D14*
%TO.C,J2*%
X97818500Y-78569300D02*
X97818500Y-89770700D01*
X97818500Y-89770700D02*
X104041500Y-89770700D01*
X104041500Y-78569300D02*
X97818500Y-78569300D01*
X104041500Y-81439500D02*
X104041500Y-78569300D01*
X104041500Y-86900500D02*
X106911700Y-86900500D01*
X104041500Y-89770700D02*
X104041500Y-86900500D01*
X106911700Y-81439500D02*
X104041500Y-81439500D01*
X106911700Y-86900500D02*
X106911700Y-81439500D01*
D15*
X102561000Y-91548700D02*
G75*
G02*
X101799000Y-91548700I-381000J0D01*
G01*
X101799000Y-91548700D02*
G75*
G02*
X102561000Y-91548700I381000J0D01*
G01*
D10*
%TO.C,J7*%
X117165971Y-71325000D02*
X117165971Y-71325000D01*
X117265971Y-71325000D02*
X117265971Y-71325000D01*
X117165971Y-71325000D02*
G75*
G02*
X117265971Y-71325000I50000J0D01*
G01*
X117265971Y-71325000D02*
G75*
G02*
X117165971Y-71325000I-50000J0D01*
G01*
%TO.C,J6*%
X128275000Y-85200000D02*
X128275000Y-85200000D01*
X128375000Y-85200000D02*
X128375000Y-85200000D01*
X128275000Y-85200000D02*
G75*
G02*
X128375000Y-85200000I50000J0D01*
G01*
X128375000Y-85200000D02*
G75*
G02*
X128275000Y-85200000I-50000J0D01*
G01*
%TD*%
M02*
