M48
; DRILL file {KiCad 9.0.1} date 2026-01-13T20:44:32-0600
; FORMAT={-:-/ absolute / inch / decimal}
; #@! TF.CreationDate,2026-01-13T20:44:32-06:00
; #@! TF.GenerationSoftware,Kicad,Pcbnew,9.0.1
; #@! TF.FileFunction,Plated,1,2,PTH
FMAT,2
INCH
; #@! TA.AperFunction,Plated,PTH,ComponentDrill
T1C0.0315
; #@! TA.AperFunction,Plated,PTH,ComponentDrill
T2C0.0472
; #@! TA.AperFunction,Plated,PTH,ComponentDrill
T3C0.0490
; #@! TA.AperFunction,Plated,PTH,ComponentDrill
T4C0.0591
; #@! TA.AperFunction,Plated,PTH,ComponentDrill
T5C0.1260
; #@! TA.AperFunction,Plated,PTH,ComponentDrill
T6C0.2130
%
G90
G05
T1
X4.0799Y-3.6709
X4.085Y-2.511
X4.1587Y-3.6709
X4.1638Y-2.511
X4.2374Y-3.6709
X4.2425Y-2.511
X4.326Y-2.7571
X4.326Y-2.8358
X4.326Y-2.9146
X4.3268Y-3.2441
X4.3268Y-3.3228
X4.3268Y-3.4016
T2
X4.4614Y-3.9539
X4.4756Y-2.2197
X4.5598Y-3.9539
X4.574Y-2.2197
T3
X3.9244Y-3.1661
X3.9244Y-3.2646
X3.9244Y-3.363
X3.9244Y-3.4614
X3.9256Y-2.7024
X3.9256Y-2.8008
X3.9256Y-2.8992
X3.9256Y-2.9976
X4.0228Y-3.1661
X4.0228Y-3.2646
X4.0228Y-3.363
X4.0228Y-3.4614
X4.024Y-2.7024
X4.024Y-2.8008
X4.024Y-2.8992
X4.024Y-2.9976
X4.0476Y-2.2681
X4.06Y-3.8972
X4.1461Y-2.2681
X4.1585Y-3.8972
X4.2445Y-2.2681
X4.2569Y-3.8972
T4
X3.9972Y-3.6709
X4.0024Y-2.511
X4.3201Y-3.6709
X4.3252Y-2.511
X4.326Y-2.6744
X4.326Y-2.9972
X4.3268Y-3.1614
X4.3268Y-3.4843
T5
X3.7315Y-2.2063
X3.7315Y-3.9612
X5.3799Y-2.2067
X5.3809Y-3.9606
T6
X4.8018Y-3.3543
X4.8057Y-2.8081
X5.0208Y-3.8278
X5.0257Y-2.3356
X5.2431Y-2.812
X5.2431Y-3.3543
M30
