%TF.GenerationSoftware,KiCad,Pcbnew,9.0.1*%
%TF.CreationDate,2026-01-13T20:44:29-06:00*%
%TF.ProjectId,Scrutineering,53637275-7469-46e6-9565-72696e672e6b,rev?*%
%TF.SameCoordinates,Original*%
%TF.FileFunction,Soldermask,Top*%
%TF.FilePolarity,Negative*%
%FSLAX46Y46*%
G04 Gerber Fmt 4.6, Leading zero omitted, Abs format (unit mm)*
G04 Created by KiCad (PCBNEW 9.0.1) date 2026-01-13 20:44:29*
%MOMM*%
%LPD*%
G01*
G04 APERTURE LIST*
G04 Aperture macros list*
%AMFreePoly0*
4,1,22,0.945671,0.830970,1.026777,0.776777,1.080970,0.695671,1.100000,0.600000,1.100000,-0.600000,1.080970,-0.695671,1.026777,-0.776777,0.945671,-0.830970,0.850000,-0.850000,-0.450000,-0.850000,-0.545671,-0.830970,-0.626777,-0.776777,-1.026777,-0.376777,-1.080970,-0.295671,-1.100000,-0.200000,-1.100000,0.600000,-1.080970,0.695671,-1.026777,0.776777,-0.945671,0.830970,-0.850000,0.850000,
0.850000,0.850000,0.945671,0.830970,0.945671,0.830970,$1*%
G04 Aperture macros list end*
%ADD10C,1.300000*%
%ADD11FreePoly0,270.000000*%
%ADD12O,1.700000X2.200000*%
%ADD13C,8.115000*%
%ADD14O,3.500000X2.200000*%
%ADD15R,2.500000X1.500000*%
%ADD16O,2.500000X1.500000*%
%ADD17C,1.346200*%
%ADD18C,1.752600*%
%ADD19FreePoly0,90.000000*%
%ADD20C,3.600000*%
%ADD21C,6.400000*%
%ADD22O,2.200000X3.500000*%
%ADD23R,1.500000X2.500000*%
%ADD24O,1.500000X2.500000*%
G04 APERTURE END LIST*
D10*
%TO.C,J11*%
X114570000Y-99090000D03*
D11*
X115820000Y-100430000D03*
D12*
X113320000Y-100430000D03*
%TD*%
D13*
%TO.C,J10*%
X127527644Y-97225000D03*
%TD*%
D14*
%TO.C,VOLT2*%
X109900000Y-80300000D03*
X109900000Y-88500000D03*
D15*
X109900000Y-82400000D03*
D16*
X109900000Y-84400000D03*
X109900000Y-86400000D03*
%TD*%
D17*
%TO.C,J4*%
X104374900Y-100329850D03*
D18*
X103124900Y-98989850D03*
X105624900Y-98989850D03*
X108124900Y-98989850D03*
%TD*%
D13*
%TO.C,J5*%
X133175000Y-71425000D03*
%TD*%
%TO.C,J8*%
X121965971Y-85200000D03*
%TD*%
D10*
%TO.C,J12*%
X114930000Y-57720000D03*
D19*
X113680000Y-56380000D03*
D12*
X116180000Y-56380000D03*
%TD*%
D20*
%TO.C,MH2*%
X136675000Y-100600000D03*
D21*
X136675000Y-100600000D03*
%TD*%
D14*
%TO.C,VOLT1*%
X109880000Y-67930000D03*
X109880000Y-76130000D03*
D15*
X109880000Y-70030000D03*
D16*
X109880000Y-72030000D03*
X109880000Y-74030000D03*
%TD*%
D17*
%TO.C,J3*%
X106560000Y-56270000D03*
D18*
X107810000Y-57610000D03*
X105310000Y-57610000D03*
X102810000Y-57610000D03*
%TD*%
D20*
%TO.C,MH1*%
X136650000Y-56050000D03*
D21*
X136650000Y-56050000D03*
%TD*%
D17*
%TO.C,J1*%
X103550000Y-72390000D03*
D18*
X102210000Y-76140000D03*
X102210000Y-73640000D03*
X102210000Y-71140000D03*
X102210000Y-68640000D03*
X99710000Y-76140000D03*
X99710000Y-73640000D03*
X99710000Y-71140000D03*
X99710000Y-68640000D03*
%TD*%
D22*
%TO.C,TEMP2*%
X101530000Y-93240000D03*
X109730000Y-93240000D03*
D23*
X103630000Y-93240000D03*
D24*
X105630000Y-93240000D03*
X107630000Y-93240000D03*
%TD*%
D20*
%TO.C,MH4*%
X94780000Y-100615000D03*
D21*
X94780000Y-100615000D03*
%TD*%
D13*
%TO.C,J9*%
X127652644Y-59325000D03*
%TD*%
D22*
%TO.C,TEMP1*%
X101660000Y-63780000D03*
X109860000Y-63780000D03*
D23*
X103760000Y-63780000D03*
D24*
X105760000Y-63780000D03*
X107760000Y-63780000D03*
%TD*%
D17*
%TO.C,J2*%
X103520000Y-84170000D03*
D18*
X102180000Y-87920000D03*
X102180000Y-85420000D03*
X102180000Y-82920000D03*
X102180000Y-80420000D03*
X99680000Y-87920000D03*
X99680000Y-85420000D03*
X99680000Y-82920000D03*
X99680000Y-80420000D03*
%TD*%
D13*
%TO.C,J7*%
X122065971Y-71325000D03*
%TD*%
D20*
%TO.C,MH3*%
X94780000Y-56040000D03*
D21*
X94780000Y-56040000D03*
%TD*%
D13*
%TO.C,J6*%
X133175000Y-85200000D03*
%TD*%
M02*
